<mxfile host="app.diagrams.net" modified="2024-07-04T09:54:56.156Z" agent="Mozilla/5.0 (Macintosh; Intel Mac OS X 10_15_7) AppleWebKit/537.36 (KHTML, like Gecko) Chrome/125.0.0.0 Safari/537.36" etag="wS3ZgPjGORNlqNW88sC7" version="24.4.13" type="github">
  <diagram name="第 1 页" id="LReGcu2CM27HkbgXWE_M">
    <mxGraphModel dx="655" dy="462" grid="0" gridSize="10" guides="1" tooltips="1" connect="1" arrows="1" fold="1" page="1" pageScale="1" pageWidth="827" pageHeight="1169" math="0" shadow="0">
      <root>
        <mxCell id="0" />
        <mxCell id="1" parent="0" />
        <mxCell id="aXy_L43vjC-4vkgIH09A-53" value="" style="endArrow=classic;html=1;rounded=0;entryX=0;entryY=0;entryDx=0;entryDy=15;entryPerimeter=0;exitX=0;exitY=0.5;exitDx=0;exitDy=0;dashed=1;strokeWidth=0.5;strokeColor=#99CCFF;" edge="1" parent="1">
          <mxGeometry width="50" height="50" relative="1" as="geometry">
            <mxPoint x="73.85000000000002" y="181" as="sourcePoint" />
            <mxPoint x="73.85000000000002" y="252" as="targetPoint" />
          </mxGeometry>
        </mxCell>
        <mxCell id="aXy_L43vjC-4vkgIH09A-50" value="" style="endArrow=classic;html=1;rounded=0;entryX=0;entryY=0;entryDx=0;entryDy=15;entryPerimeter=0;exitX=0;exitY=0.5;exitDx=0;exitDy=0;dashed=1;strokeWidth=0.5;strokeColor=#99CCFF;" edge="1" parent="1">
          <mxGeometry width="50" height="50" relative="1" as="geometry">
            <mxPoint x="250.85000000000002" y="181" as="sourcePoint" />
            <mxPoint x="250.85000000000002" y="252" as="targetPoint" />
          </mxGeometry>
        </mxCell>
        <mxCell id="aXy_L43vjC-4vkgIH09A-55" value="产品描述语言" style="text;html=1;align=center;verticalAlign=middle;whiteSpace=wrap;rounded=0;fontSize=11;fontStyle=0;fontColor=#CC6600;" vertex="1" parent="1">
          <mxGeometry x="120.5" y="157" width="80" height="30" as="geometry" />
        </mxCell>
        <mxCell id="aXy_L43vjC-4vkgIH09A-70" value="智能渲染引擎" style="text;html=1;align=center;verticalAlign=middle;whiteSpace=wrap;rounded=0;fontColor=#0066CC;shadow=0;fontSize=19;fontStyle=0" vertex="1" parent="1">
          <mxGeometry x="100" y="229" width="132" height="27" as="geometry" />
        </mxCell>
        <mxCell id="aXy_L43vjC-4vkgIH09A-58" value="交付产品" style="text;html=1;align=center;verticalAlign=middle;whiteSpace=wrap;rounded=0;fontSize=10;textShadow=0;fontColor=#0066CC;" vertex="1" parent="1">
          <mxGeometry x="151" y="117" width="60" height="30" as="geometry" />
        </mxCell>
        <mxCell id="aXy_L43vjC-4vkgIH09A-64" value="" style="ellipse;whiteSpace=wrap;html=1;shadow=0;strokeColor=#CC6600;" vertex="1" parent="1">
          <mxGeometry x="38" y="181" width="250" height="30" as="geometry" />
        </mxCell>
        <mxCell id="aXy_L43vjC-4vkgIH09A-33" value="" style="ellipse;whiteSpace=wrap;html=1;shadow=1;strokeColor=#CC6600;textShadow=0;fillColor=#FFE6CC;" vertex="1" parent="1">
          <mxGeometry x="38" y="175.5" width="250" height="30" as="geometry" />
        </mxCell>
        <mxCell id="aXy_L43vjC-4vkgIH09A-6" value="&lt;div&gt;&lt;br&gt;&lt;/div&gt;" style="shape=cylinder3;whiteSpace=wrap;html=1;boundedLbl=1;backgroundOutline=1;size=15;shadow=0;strokeColor=#0066CC;" vertex="1" parent="1">
          <mxGeometry x="38" y="252" width="250" height="80" as="geometry" />
        </mxCell>
        <mxCell id="aXy_L43vjC-4vkgIH09A-35" value="" style="endArrow=classic;html=1;rounded=0;strokeWidth=0.8;strokeColor=#3399FF;entryX=0;entryY=0.5;entryDx=0;entryDy=0;" edge="1" parent="1" target="aXy_L43vjC-4vkgIH09A-73">
          <mxGeometry width="50" height="50" relative="1" as="geometry">
            <mxPoint x="38" y="197" as="sourcePoint" />
            <mxPoint x="37" y="260" as="targetPoint" />
          </mxGeometry>
        </mxCell>
        <mxCell id="aXy_L43vjC-4vkgIH09A-41" value="" style="group;textShadow=0;shadow=0;" vertex="1" connectable="0" parent="1">
          <mxGeometry x="78" y="181" width="22" height="32" as="geometry" />
        </mxCell>
        <mxCell id="aXy_L43vjC-4vkgIH09A-37" value="" style="group" vertex="1" connectable="0" parent="aXy_L43vjC-4vkgIH09A-41">
          <mxGeometry width="20" height="25.63" as="geometry" />
        </mxCell>
        <mxCell id="aXy_L43vjC-4vkgIH09A-14" value="" style="ellipse;whiteSpace=wrap;html=1;aspect=fixed;" vertex="1" parent="aXy_L43vjC-4vkgIH09A-37">
          <mxGeometry width="20" height="20" as="geometry" />
        </mxCell>
        <mxCell id="aXy_L43vjC-4vkgIH09A-22" value="" style="shape=image;verticalLabelPosition=bottom;labelBackgroundColor=default;verticalAlign=top;aspect=fixed;imageAspect=0;image=data:image/png,iVBORw0KGgoAAAANSUhEUgAAANUAAADICAYAAAB/CKTGAAAAAXNSR0IArs4c6QAAD+hJREFUeF7tnV1y3TYMhSVvpX1M1hBnW05mbM+02ZadNbSPyVasDi2ruldXEnFAgCLFk5fO1Pw9wEeAFK/Ud/xHBaiAqQK9aWtsjApQgY5Q0QmogLEChMpYUDZHBQgVfYAKGCtAqIwFZXNUgFDRB6iAsQKEylhQNkcFCBV9gAoYK0CojAVlc1SAUNEHqICxAoQKEPSfP7/fj8Xf3v/bD/0XoHpxRYd++DkP6u7186+/XosbZIUDIlQRowWQ+mF47LrhA6gKrQwMeei7564jYIBkN0UJ1YZ6rcF0K0P/GiLZ518/nlIcrMW6hGphdcJ0LUiIXAQLWxoI1YVe//z58NQP3SMmYRulCZfczoTqQysCFXcaghXX6P0AS1bs3KX+/ePbSysHEamWJFhxBZuHihEq7iTLEgRrX7OmoSJQOFBTDYK1rV2zUI2nfG8verdizaG/+8oHxisPI1p1DUYpC8v3r59+//3VoqUztdFkpLIBqn+/0nN91acu1xivWaXdFGG0qjBSzfftxsFbpBv//vEw6Nw/3DLony3GoOvfp9ao8du97hkdo9XSKsVFqtnA66to6gZZG6VS+/XBwbZVvTbcW11aogio8KtB+tVR4zitpTj4czu9PWyXhTJaOwwqHKRrwbSRA039tP2UYV7dKDQno59+/zjMl3Sz9KuVXYhUmGYp8NURdZYWgZr0RSN6a9F8D8lsUNnBNE8HXR1RR0Hb91v7jmkZSwPxRe6YWfn36g6VB0yTLKjTI1C1HKV00YpQTbq5QoU4sWb9QKFCVl5C1XVYukyoXKHyjE4peyoMKh4TY1B1HbrIaRbSGuqYRyrv6DSJqokkyMkfHWRUmprhGJtChUQCfKhzDQ1Qo4PIfzdFqAiV1kdNoMqT7v2fsaovcSJQ8YgY3VMx/TPbU6F5t47+6fJq2r07QoWpj6XyPKgwgcoXqPHyahio1QVWOgmhwhTQlVanfz5A2YN0KQs65pZTQFwrvsosKVKhgsd5z/eTCuQ0q+vaTWmQVDnYt+UFaOnfqkiFOeYeUvlgmkaBO0t7KzCWJo/K8rT04glqPIpcl0Cdcr39/DBN49BEWe0RPqptCeU1QLWkj8RGUKTSCL4cxNFpggaqMb0JL+4PhybnfLd4ymORo20qcfScZcRQpQNVzv4kbS7ji/vDlzFyGsqrr/GLJu/LhuqrJoxSt5YRQ5WyjypR+JT5eDl4je1yL6WEKmVlLxGoIEPKnGp0fo8xl2pbj7kibYoilXZVLz3Xtjl0QeQ+U9ly0vnSVI1CpV3Ra1nFCJbOJZn2beu2C1XKSVktp2TaOepc8Ry1alkwj1I7AhX+EbQaBSdYcvcrPaWXz8Sv5C5U+F6q7jybqeCeox33wN7P/X1a3oRKs5c6Q56tmbePaUpqte7FMreSm1ChUarGtG9L7ABW+Jvu3eK5TejZH6OTRl0zqM4QpZYCtgsXYdLANNVZhQpNgc4UpeLRK/3zMykG86lr88tqn7HV16oJVGeMUlJTLj/1I61XQjmrX1SXMJeSxrAKFbKfaiFKlWQwjqV8BW6gQp/ZEKryjcwR5lVgBSrsgW/LqV9eU7G3WhRIhIrPL2oxNMeZT4EbqJBbBUz98hmKPdWjQCJUfIl/PabmSHMpsAKV/Mvt3E/lMhP7qUkBQlWTtTjWKhQgVFWYiYOsSQFCVZO1ONYqFEiAisfpVViYg8yuAKHKLjk7PLsCCVDx/dlndw7OT6cAodLpxlpUYFOBJKj4EhB6FhW4VYA3KugVVMBYAUJlLCibowJJt9SZ/tGBqIAg/cN+pMhnVXQqKrBUIPmXv7xUS6eiAtcKGLyjgj//oFNRgUsFNqD69iL/sh5TQLoUFYhChe2reLOCLkUFzKHiz+rpVFRgVmDntc9ICshoRaeiApMCO1/9+H7fD28vUqlajFY1v512aVe+rVbq6fFypt+nOvvD4HGvOTzKD3HiBiivRPg4wfCzli9hlqdf10WgwlLArjvfSWAbIG25JgHTQBv5PCmWAoYBnCkNRN6BqBG/njqEC7HVLlShIY1j1Q4W+ikhRPCay9Zu11zaR6FCn1lNA691f0WgYq53vhQ/NmP071GoQoNaR6sNLO08UdHPUL422+bUXASVNg2saY9FoHC3I1jrmomh0qaBNYBFoHCgxhpMBdeUE0OVkgaiYIUvOYZNcdfdvXo/lCRQWqDGejy8uNUPgiolDZwPMLrnvQeLy4jobTTkU6xp7nfe2kwDr20LQ+UN1laa6QEXo5QV6EwDL5VUQZWyv7rsfA2UWNuWcOmjVP86pj79c/ivd4pq5fpb7Yx3GN/u33dJQ/eo6Y/RalZNBdW4v8JvW2wZ6xIUSbsW+y1tlLKEWuO83nW0uvDQwgAqa7CmTW8/9F+kF1ZTHByPUuGqTv9ce1SSQqmBKzVazfcsp0OQ4eeYCfx4ko67hHLqSDUNXhJZvCeKwqUZc4svuMGvqOn3VvG+xvuHOU6EU/01Gao5Yh3/kwgpXOgqLG031Ril1ccXHx1UqD2mrKbUCGYC1Ry1Hp60G10rh5IAEF8Vr85yXj/9/vur1fhqawd1eDQFRNtf6jfur8tKEU2hGqPW8WDFVjJkPyWBtDZQ0PFiemGvrLP0l1JsZQ5VSWBtwYU4SYt7qSV0SGRHHRuxhXQxQMcgbVdazgWqktLBaSxTWoLuEwgV9ps61KE9oJoW06PSQleopkOM8GCxlL0WBpVu4y1d0Wop56kZEgU1eqGQa/pY1nGHqpSoNUUcTwexMEiJbSD7HtSJMXvo1UHHpe8p8uKXlIa36iIGsuh/KSZmREYqdI+scV6vFHDtpDDHMXy2SLWcYIAr/D+/tHD7BgRiRO6pfPdU0xYBecdkymKrgR7t7zCoLgdqHb1iz0oQqGJtoYLXWB7Ta/+nPXvzt/aD7b58r5wVAdW87xpvS2ujl3QVwjbHbaeAqKNbLEL+WczocRZjXQO3KKj0qQC28mBQ+YlfQ9RColSYj3W6PP0sRbvQxjT2AKt6qDSiYIcV7zu/Jq8q4VFKn/rFnH86MPHYh2t8aG+81UIlTfW2Jo+uwKn9SZympDIoUGM65QuV5z7cMsJWCBWW6m1Dhb4nfoxYZ/9NVcq74y0dU7rAaOBfb9suG6kKKsswjaeAsylKvBktdcKtcikw5Y5SyznY7btswKoCKq+0Aj2w2FrhUh36+PrD+/spUv4dEaVu4Ur/hYSFrxUOlW+6lRKtUhzwbHUtHNFKk9SIO0Zd7Ocry7EXB9V8yuP/Is2pL6/jWitHKbsdm5TJeo5pe620ORUJlbXAsfbSDBBr/dx/LyHt294n6tPBlGhFqD4sYrO/OjdAy9mlOF4upfQLpj5aEaoL6xIsuauXtI+KjVoLlnaOhGphEa0BYoY9099riFBLvbULpia9JVQr3k6wtpYA39NY74UHvUWjPQkkVBuWzHVT2tuRrNrXpkJW/Vu0o3uEgu+tCFXEWq1HrTPAdGliTRqIpruESrgE2l2FEXZ4aLG607w96XJEK0KldN4RsvBv/ARN3f/u3j8NFP618AEGPPvAUkBCVTcNHL1SAfTQAkkBCZXSKKxWtwLo3opQ1W1vjj6DAvjeSp4CMlJlMCC7KFMBNAWUPggmVGXam6PKoACaAhKqDEZhF3UrgKaA0n0VI1XdfsHRJyhAqBLEY1UqsKUAsq+S3i5hpKK/Na0AApX0/Y+EqmmX4uSxwwrZsTqhol81rQChatr8nLyHAoTKQ1W22bQChKpp83PyHgoQKg9V2WbTChCqps3PyXsowCN1D1XZZtMKEKqmzc/JeyiAQMUbFR4WYJunUgC/+yf7qB0f/p7KTTgZRAH0XRW8pY6oy7JNKoCd/Mk/Es5I1aQ7cdJBAWQ/FcrzR4r0GyqwowCe+sn2U6FLRiq6XpMKEKomzc5JeyqApn7SQwpGKoXV5jfThsrneTttC2+mncyNRilkP0WohFBZfJxZ2NWhxcLDzTCAz79+PB06EOfO8Sgl308Rqt2N7Pf7fhgeu244wbvScS+V3h7AWz62hneUIlQb9kWfXxzrJr69nwkuDVDS91JcWoGnfxdqoNdWfN25rNaRjXpZI59Hg6Z9oaZmUSFUH5rrVrFS3cdnXBoH8xkJ3qrWvtIHvoxUC5toBcdNW3+NGsHS2lc71+YjlVbw+vHQz0DrbPoe9TVT7KuJUs0fVKQIrjfzOWrWsMdKsW/KwtF0pNJsXM+BhM0stCu5Te/7rRwFVNORKkX0HE5RRx+yN7amzGX6gDnyQDr1kUjqYtFkpLIDqv//A9QpjnNc3fQH255p4KWdJP1Y3HxJSfsmOxIqyKP716HvP67y/FU5UOPEp0jQD/0X3e0R+2i1BkfM2S0WylgfUldpDiqt+FaCSw1zRDm9NndfLS7k7kWaLf0tolPQ2tK+hErgvZLUQ9BMFUV0YKVHq1i/S6e3gmk0Svr4L43bHFToiZ/lClYFVR8pYT+8vSDj1W7upXCMN+jvXsPPbfSp6tqMbIFq7vQPvdvXIlCT28Uix9I90WguhQkBGy877pEtUtdmIxXqKNrVFzdumTWQqI4sQKgdfNSxj1BNnv4hxkScxMfox7eKPe+JO2kZ0cl+D7W0VFN7KsRJCNV43C7fW21DVQ5Mtqd8W8seodpQBt0jHB9X7EdgARWSHdjP4LrFXAtlY1A9DFLDtb6fmnRC9lWXmpUUncKRuceBBCMV+EZSQjW6jAaqFqNTs6d/yJ6KUKF7qvm1yAiI0swBL5c3OhEqgYW4pwpQPTz1Q/cokOvqVgKyeMnaRkodB1OTR+qYseNHxIipayyrhSrMFatroc7xMDUJFXaaJf/Kg4VLlNgGksZtX3hFop1GhXJgIlQC++U6ghUMJXsRNNLspctjW9qflqxNPYA0/Ax3Aa2vGFkI3dSR+nia9e0F+d1Qi2ChQAVdJQc7mnavnby8qLSKvAWZNbWBQhXm1hJYGsdH9dH0IQW3BF9sLlKh+6rJSKjjlGBcdAyaBUe76My/OJaeLsqiITpnj/LNQaVJAS+FP9OXMabPAqV8iCF1sUGiliTF9IAEbbNJqLTRChW3hfKpUE0aSeAiVIV7lDbVKXxaWYdnBdTloPfgIlRZzavrjGDpdJtqeTn5Flhe/aWpcFu7yfRvTjmQ3wtZS193ezmucS3hIlSV+Iwkl69kKtmG6ZH27Q0+2KjUB71r4246UiGb5GweW3hHuYEqXI7V4RGqD1kYseLumyPli4+i/BKE6sJGPGrfctg6rgeVghuhWrEEo9YsCtM9HFVCtaNZy3ARJhymqQahEminuacmaLawIuNngXK+IKUwAcyGQ6iUUk735pTVi6pW4m+SihIIHAyhAgVjcSoQU4BQxRTi36kAqAChAgVjcSoQU4BQxRTi36kAqAChAgVjcSoQU4BQxRTi36kAqAChAgVjcSoQU+A/G+lRX7Pac/YAAAAASUVORK5CYII=;" vertex="1" parent="aXy_L43vjC-4vkgIH09A-37">
          <mxGeometry x="4" y="4.370000000000018" width="12" height="11.26" as="geometry" />
        </mxCell>
        <mxCell id="aXy_L43vjC-4vkgIH09A-30" value="流程" style="text;html=1;align=center;verticalAlign=middle;whiteSpace=wrap;rounded=0;fontSize=5;labelBackgroundColor=default;fillColor=none;" vertex="1" parent="aXy_L43vjC-4vkgIH09A-37">
          <mxGeometry x="-2" y="15.629999999999999" width="22" height="10" as="geometry" />
        </mxCell>
        <mxCell id="aXy_L43vjC-4vkgIH09A-42" value="" style="group;textShadow=0;shadow=0;" vertex="1" connectable="0" parent="1">
          <mxGeometry x="63" y="152" width="22" height="30" as="geometry" />
        </mxCell>
        <mxCell id="aXy_L43vjC-4vkgIH09A-15" value="" style="ellipse;whiteSpace=wrap;html=1;aspect=fixed;" vertex="1" parent="aXy_L43vjC-4vkgIH09A-42">
          <mxGeometry x="1" y="10" width="20" height="20" as="geometry" />
        </mxCell>
        <mxCell id="aXy_L43vjC-4vkgIH09A-8" value="" style="shape=image;verticalLabelPosition=bottom;labelBackgroundColor=default;verticalAlign=top;aspect=fixed;imageAspect=0;image=data:image/png,iVBORw0KGgoAAAANSUhEUgAAAMgAAADICAYAAACtWK6eAAAAAXNSR0IArs4c6QAADORJREFUeF7tnU2S2zYQhUG54vIyF4jLS88uN8j4ZGOfIEfy+BTJ0plcIEtnUhZTpIeyRhYlon8AvMbzJnFCAuDr/tDdAEgNiX+oABVYVWCgNlSACqwrQEDoHVTgggIEhO5BBQgIfYAKyBRgBJHpxrs6UYCAdGJoPqZMAQIi0413daIAAenE0HxMmQIERKYb7+pEAQLSiaH5mDIFCIhMN97ViQIEpJKh/3jz6vZZ1/v997/vdvenw7r5/OWH/1Zp6F11S0Cczf3H65fvly6GcfwtDcNzMHL7H8cZlPHFiw/TPwlOroB51xOQPL2uXr0AMaR0d/ViqwuOoCEwVqJ+a4eAGOg5QWESHQzGMjcxjvdThCEsekEJiFDDKpFCMlbCIlHtcA8ByZRvjhYl06fM8a1eTlBEShKQjbLBgnH6fBMow/Dp5uHxsHiwUYIuLyMgV8weBowzzzmm9IGgXHYAArKiT2Qwnj0yU6+LhBCQE3maW5EqldgQlLNKE5AjWbqJGhegY9r1XBwCklKajn0MX7/eqXe5S832zv0Qku8Cdw8Io8Z52t4+PHbvG5MyXYtAONZDEaPIN226BeTPX376yJTqUjEy3r/9+793ztlc8813CUhVOJaDhcPw6Zl3nDnifvj/+/3tfNZrntKUp4G3uuRIQLqLIHMxvt9/3OojJtc97Vyn3e7e6vDg8i6J68ICAekrxSoKR+HjHC6rcASkH0BKwDEVtZOitY9uWMEy7nbvrCKeSSSu1EgXNcifr1+Onvq2uOKjBYXLvJ2sYnkW5C2CcToRSEBBeC7PCe+47dARxAsORAfauueD+GyesIQFZKtD5IgbwXnWIspcQxmutOXo2vK1IQEhHNdd7vizQyzG1/UKB4jHihVXdK4DF/WKcICY1h3cC4jq95ufKxQglqlVhHpjsxfwwlUFwgBimVoRDhKzKBAGEKvUinAQjnD7IGbRgzUH6ThRIEQEMTlKQjgIxxkF4AExS614OI+AhATE4CAi9znIxpoC0BHEYlmXRbkOjh++IxbspxigAVHXHqw7VHRcnaAC6AsLyFXjbDA9U6sNIq1ckjM5Ib9bAgtIjoHO2ZiplQKOzC/CIGsNCYjFvgfyrCZ3bf2dUu1R9YYERLu0izyj6V1c14I0tUXVHBMQzdJugMJR5+K6uzWTE2IUgQNEGuIXt2BhXg8QRO3hANHMYNOvv/JzmjpApCnW1CtimoUHiCK9QpzBdO5sf7cGkGk0aGkWFCBMr+wdPrdFrQ0ISK7iGdczvcoQy/FSzR4UWpoFFUE0gKAZxtG/1U1r0iw0O2ABwvpD7dwWDWgAQatDYABR5b5cvbLg4lkbmjQLqQ4hIOau00eDqnQX6OU0GEB6MQgKXpo0C6kO6QIQpJAOA4ji17oIiIOVNRGEgDgYJKUkrkOAakKcCCJdwQIyho8b+7VKQPy0zWqZK1hZchW7uIeoDhFBCEgxn8/qiIBkyeV3sQYQpILQT0GfljUrWSh1YfgIQkB84JhaJSB+2ma1rIogQJtSWaI0cLEGEJRXD+JHEALihhIBcZM2r+EeDJGnSBtX9xDZGUHa8DXIUfQwcREQSNdsY9AEpA07pB5CeSNSZw1DAwiXebOkvnwxATEU07ApAmIopqYpAqJRz+9eAuKnbVbLBCRLrmIXE5BiUl/vSHpylDvp17WVXkFApMo53EdAHERVNsnDikoBLW8nIJZq2rQlBgToHR2IfZDJnATExqktWyEglmoq25ICwg9WK4W/cDsB8dM2u+UejJEtSuUbepi0cFKszN/FO/gOUL5b2d+zu5cCgrSyCANID0uK2R5a8YZe9qYISEUnQ+6agDRmPU0EQXl7rTHJLw6HgDRmLZVBUvpw8/D4vrFHgh6OZsJCOck7GQgmxeJeSFs8iVcVwX6GjYC05XcwoxEDAraq2AUgk9chhXUESqRLvGgbt1iASPdCCIgpcz3Vg1CAaApDrmTZMaICBOwzTFiAdPKbFHau7NOSuP5IKaFNVFCAcCXLx+FzWxUDAlagwy3zagBhoZ6Lwfr1vRTokICwDrFzdElLqvoDcMMWLsVSAQJoIIkTe94jTq8A6w/MCKIo1NHW4D0dXdq2OL0CXWqHiyCsQ6Surb9Pk16hTk6YgCg2DJFe1tG7tG0LmvSWgNja4mJrGkMRELmheqs/IGuQxby95cJyt7a5U5VegdYf2IAwzbLx/I2taKIHanoFDYgmzeKm4UYqji7TRGy04yXH6kAW6RZpFmuR7ZD0ml5BR5B5uZdp1nYvV1yp0Rk5vYIHRJtmMYpcp0atMdjx9lNFoFMs7aYhAbkOiKb2QI8e8BFkegD1DMfzWauUUFuwr5qcs6TWiFzROs+HtjCPoit8isUocj1NklyhKsynDgFfjjqnEwF5UoX1yHf3sIjKyHsfYfZBjh9EVUw+NcRPAyXVb9If7BEkeoQo0hejmMx6LNhVe0uLLaJEj1CAaJd8D8btGBJ13RGo9lj8IUQNYhlFZht3CIlFBJ61A98YDLdRePpAZobuCBJqtr7OFyqCLI9pUbD3Ekms4IiyrBs+gljsixyLFDndMoMjYGoVsgZ5tuyrOOn7Q8ANtGw5TyDTl2G+fr1Lw3Ar2USMrk/IfZAfahHN54FWvCZCAWoZNWaZgk0eXaRY1qtaz0Qbx/vxxYsPN5+/3JvMvgUbMYcjcGoVPsVyhQRs5vQAo5dFjJCrWF5Lv2cn+0YjylRnpP3+dkjpziNIRV686KIGOXUKq6XfVWdrBBSvaHGaZr79+793HuC11mYXEeSwcrPffyxigAmWYfiUdrt771plAmJ6pmEcfzNblbokUvCivKsivcTK1ibgxnEu6Bdopn/PBWdJmQ7FYykgjh+wMzjmiWeTgQNdZL4HYKrN+E9Kw8+mTVo11iEcXQKy+IvJyVUr52u9nU7h6BqQKZLs9vvfx5R+bd0/a45vSgtv/vrXZse95oMI++4qxTosfdbI34UGaua2p4WHm4fHeVGglz9dANJ23YHnar3sgYRPsQiGL3wTKPOKXOCoEjKCEAxfME5bjwxKKEAIRlkwegAlBCAEoy4Y50CJknbBA1Lk7FFb/gczmgjFPCwgjBoYnMz1SYEzaV5qQALCXXAvd/BrFzWaQAHCqOHnwEVaBjyyAgMIa40iLlykE6RoAgFIUynV09F1kScNh5O6Ryd2xwund4d/Tvr59vdxOvUr/GP1JRNh98ttKJA0DYjFj7iI7Hjy/kbuuxuiPivcVP1sGkDK1SwgxVOqp1dm56MTgF8sseDL+z32tTG2/DmlJgEpCQf6MqQFGOfaKA1LqylXc4AUgaORDyx4Obd1u0Vs0uhX9ZsCxL0YJxgqdkqA0lokaQYQbzhaznNVXlvhZm9QWoKkCUA84WhJ7Aq+7NqlJyit2K06IG5wMJ1yhWNp3BOSFj6MXRUQLzhamX2KeGgjnbiBUnmvpBogLnAwalTFxQuSmhNeFUA84KgpYlWvbLDzSPYtDkgk8Rr0zWaG5BFNakyCRQFxES3Yzw434+EGA3Gxd+FfHy4GiLlYrDcMXNi/CY8DpyUjSRFAPODo5fcp/F3YvwePF91Kbfy6A2INR8nZw991+urBuv4sAYkrINbhlXDgA2UKSYE9EldALH/2jHDgw+Gy++4MiRsglqkV4YgDhwcknv7hAgjhiOfQHk9kmW55QWIOCOHwcKW4bZpC4rAnZg6IVd3hNSPEdTXcJzODxKEeMQXELHo4PCiu+/QxcitIrCdWM0AIRx+O7PWUllsClvsjZoCYpVYOeaSXUdmurQJmkBhmICaAWEUP6/Boaz62VkKB1nxJDUhrD1TCiOzDVwEznzLIRtSAWKRWjBy+DofYuknRbpBqqQAxId3gIRAdgGO+rIBVPaIt2FWAmEQPgzBIZ4upgAkkyglYDIhF9GBqFdOxLZ+qtp+JAdFGD8Jh6Uax21LXI4ooIgLEguq3D4+ivmO7Ap/unAIWqZa0FhE5KaMHHbm0ArWiSDYgapoV4a60UdhfWwpoJ2ZJ1pIPyOuX74eU7qTSsfaQKsf7tKm9JM0qCgjhoJNrFdCkWmUAefPqdtjvP0oeVBLiJP3wnrgKaFJ8if/lRxAhIIwecZ229JNJo0gRQCYxJAOUDK608OwPQwFJFJFO0NkRZJEwZ0VBOjgMc3GUNRTImqQVK6diQLZSTDhquE8ffW5a1VJ+w1kMyGKC1UEqB9aHifmUWgUuQWIxOasBOYDy5tVt2u9v0253P/23m89f5n/yDxUoocCU0Xj4nxkgJURgH1SgtAIEpLTi7A9KAQICZS4OtrQCBKS04uwPSgECAmUuDra0AgSktOLsD0oBAgJlLg62tAIEpLTi7A9KAQICZS4OtrQCBKS04uwPSgECAmUuDra0AgSktOLsD0qB/wGppFxBLmIzQAAAAABJRU5ErkJggg==;textShadow=0;" vertex="1" parent="aXy_L43vjC-4vkgIH09A-42">
          <mxGeometry x="6" y="15" width="10" height="10" as="geometry" />
        </mxCell>
        <mxCell id="aXy_L43vjC-4vkgIH09A-26" value="人" style="text;html=1;align=center;verticalAlign=middle;whiteSpace=wrap;rounded=0;fontSize=5;" vertex="1" parent="aXy_L43vjC-4vkgIH09A-42">
          <mxGeometry width="22" height="10" as="geometry" />
        </mxCell>
        <mxCell id="aXy_L43vjC-4vkgIH09A-43" value="" style="group;textShadow=0;shadow=0;" vertex="1" connectable="0" parent="1">
          <mxGeometry x="104" y="149.5" width="22" height="30" as="geometry" />
        </mxCell>
        <mxCell id="aXy_L43vjC-4vkgIH09A-16" value="" style="ellipse;whiteSpace=wrap;html=1;aspect=fixed;" vertex="1" parent="aXy_L43vjC-4vkgIH09A-43">
          <mxGeometry x="1" y="10" width="20" height="20" as="geometry" />
        </mxCell>
        <mxCell id="aXy_L43vjC-4vkgIH09A-11" value="" style="shape=image;verticalLabelPosition=bottom;labelBackgroundColor=default;verticalAlign=top;aspect=fixed;imageAspect=0;image=data:image/png,iVBORw0KGgoAAAANSUhEUgAAAMgAAADICAYAAACtWK6eAAAAAXNSR0IArs4c6QAADHtJREFUeF7tnVuS2zgMRaVsLJ6PXlW6Kumqzqr8EWdj8USynbbVMt8A+Dj+mkmTEnmBQwAUZc8THxRAgacKzGiDAijwXAEAwTtQwKEAgOAeKAAg+AAKpClABEnTjV6DKAAggxiaaaYpACBputFrEAUAZBBDM800BQAkTTd6DaIAgAxiaKaZpgCApOlGr0EUAJBBDM000xQAkDTd6DWIAgAyiKGZZpoCAJKmG70GUQBABjE000xTAEDSdJPtdXw9LDf4Mk2HP9N0ml7eT7I35OrPFAAQa984vh7m6fz9OowVDMfnNE/z7+Xvf17ef1gPfYT7A4iVlT/A8EHxdITzNL8BiqwBAURW309X/3J8/XH+iBhF7g4oRWTcvQiAyGn7eOUCEcM3VEDxKRT/dwCJ1yyuhwIY2wEBSpyJXK0BpJyWKulU6HCBJFQpdzsAKaPjXjr1S+LSsdcElFjFHtsDSJ5+6nVG6nABJU05AEnTrRkwNtNbn6OwNRxudAAJ12q3pcS2beaQvN2JJl6J/jUAkHCtWo0aT2cIKH7jA4hfo+7A2E4ZUJ47AYCEAmLwPCN0aCXaLZAs16E+YRcr2p9arDOiJ3ntQDQBkHDf6TxquIQAlIs6pFh7XmIPxuk8zW/L+yDL8EofbgxfIRYHGfvEMIBsvGU+fluegCcfQY9xvphi2TLNWyEZ9MUtALl6qaUD/gVyjRghbw5ajnPEaAIgtulUMBjbaAMoObE6vO+4gNiCUSS3t4TkUsD2X58MCYixY53OLz//C1/D/C0t59M7JGMBcokaVsfQk9MpPyKXFoASqlR4uzEAsU2nxMF4MPfx9bBsD1ttDfcWUfoGxBYM0xzdMposu3K9HKvvFhBrBwndtg0P9mktLXXoIZr0B4ht1NBNpyKYAZQIse6a9gMIYHg9YIHE8uhKixGlC0BqPR7i9VijBubRpKFjK00DYmnomOMhRhx4b2upXyvRpE1ASKe8zh/TAFCeq9UWILZgmG7bxjh8StsrJF9rPMmcMp9SfZoBhFWulMnd10HnR32qB8TSYD3UGalYWepeU31SLyC26VS1zzNSHT613+igVAnI6EZJdWapfiPbozpADI1R/Bi6lMNaXXdE21QFiNEDP9KpSOKsQDlP838hryVHTsfZvBpADEQHjBxPMjpWf375qeqzqjd7Zg9tOGraJcnx0Rr6attu3Vks/EamS0dzQJQFJmoIUaVpR80FzhyQ+fjtLGSz+8sChoLIyy20QNGqR0wB0RBTS0gl/2viNkrHVlRSLVNAJKOHZhhuwmsNBim9AGosfmaACIpHOmUAg9EGjHgUMQNE6JmHuGAV+V7dQ1H6iiXpbV8bQITFI70yZEf5DJ10mmUCiGB69eAZgKILipZdN7MSzRq6BuQqZDff0aTr7hF3E84IPCPpDxCh+sNzpqb/L1qOcOkyTZXTqWeDlqxDTCKIBSA3cUm7yrBhacPtDHoEROPpORGlDAsPVzGqM5wzkSzUrSKIOSBElEh6Kkmn9kYNIJG2TGhOIe8QraZ0CkASvLtUF+qTRyVrTKcApJS3Z1xneFAqTqcAJMOxS3cdEZTa0ykAKe3lBa43AiiG6dTpaqLk36anSC/g5AUu0Wchb5hO3RaeXDgBpIB3l7pEN9HEEIzte+UAsvHOzBel1rM3uaLmAtMyKIba7b6rkzseIsijNz8cTssVdyhQDKOGa0HJtSGAOAC5/SlX5K5BMQQj5Gt6cm0HIAGALE2UvizAxVJ1hXyu82UsHMGvPueOEUACASGa3AllGDVi6zMAESjSQ1a2XOFD7uFqE+soufdb+xuCEZJO7c0x105EkMgIsjVCrgFyHVcLFMN5BqdTABLgTSW2eQNu86mJoQOtYxEDxTBqlFi9c+1SYgzP/KnF90Gy3kGuoJAvB4ohGCVhBxCjGsQVZXKNkhLB7vusDjZNp9TfuzAcf1Y6RYoV4DlWKZaEcQKm62wSvRIbRg2pVCYXdqlxXdJig09NgDSzNWwIRjTEkT4FIBWmWM9smGusSN/41HzPGQ3HVDydkojiRJDMbd5Yp62mkJ+m0zydv/99vpD8rkTs3G/tJZ2u9Da85FhJsRweZLhyp/p1dj/pdIoIEmCiGmuQmne8AiQt0UQlnQKQAFO1BkgthXyAtElNJFOUkAHlRmrJ8ZNihVhw0ybXoAm3FOlikU4RQQJM2WoEuZ9aDYV8gNTPmpilUwASYLUeAGk07aoKjFIakmIpb/MGMP6pSe1pVy3pFBEkwLt6iiDb6VYISpVRYyddXZ73JH2IIA1EkApBqR4MUqwn60HPEaSGQr7mdIoUKyBIjgJIqRUyQNJbk2aiBimWw6qjAaIASpNglNKFGqTBGsS16pcs5FtLp0ixAvKBUSPIVprcnxqQXDkDzFisSe6CIakDR02KmTn+QtmAvPw0sV/8TN09AGSjDxHkIgiAXHQAEADZXUIBBECeOUbOz0Bnfe1P6fQg53oAAiAA4t7u/pXzOu2ZGmRVlyK9s23e23SIIEQQIggRxJuFUqRTpFOkOzABEAABEADxRtJ/DXgOwnOQe28hghBBiCBEECJIuAJEECKIe/eGB4UcNfnnIaRYpFikWKRY4QkGRTopFikWKZZ3xeBJOk/SeZLOk3TvQkENQg1CDUIN4l0oeFD4eaHgNC8vTH0GhyKdIp0inSLdG1Ip0inSKdIp0r0LBUU6RTpFOkW6d6GgSKdI33USIggRhAhCBCGChCvALha7WOxieXlhF4tdLFILdrGaXihMvts1d+Xs4RvNF6/J1aGL78U6vh7m6bycKEj+SOpgAkjursXqXNP89ufl/UeyqhV0HB6QAnD8/eI90W/aNAFkKiNM85CMDEiJRVJjoWwakFsQaDWaDAnIZXFcftH2UCKIS9veBpAC+feeuNJilTDo/TWGAqQwGDcdJeuPS4Sy+hRKs7bDbwmSUQAplU5Z2NoOkEsUyfl2EyfaLYDSPSBCi6Bmam0NSNYLQyHBr2ZQugVEKJ3a2Ft09+oDwhAvk2ojvMLcrzTLf9e2LdwdIDpgrGbVWvhMI8g6UyVINEUNXU96AkSqzrDejLEHpMA7yaEOqZm7hoypC0AUo4bFIlcFIOvEj9/E6xGLXRAXKLlzlt7idEKuDIbWtu5nHwlZ6pTa5DpMyjDXXHaaTtPL+ymlf06f3PlaAZI77lTNJH+L8NmYqokgtwFq5rL3omgVfQ/3zIya2oBY2WY9bzXNbyaLWCrNkv0MDaG2O1IirVQDxCidsqg5qk6xHganuLtltVOSm6qIA2IIRg1wXMZQ+afnaFIzID3rHuPy1QNiXZtIrmQ1AmIJhmWt0UyR7tta/DJNh/PluLT6p3QhXxUgtumUWRHuc6JmIsj9RKxXuXmaf5c4tlIFILZgqG6K+GDYr0VTelXSxxKUEtHEGhBL/aRflS3lok1GkO3kLQ2dA4oZILY7hNWmU91FkG3atfx/S/WJOiC26VRTYNx8q4sIUkt9skSTZSyh9YkaILZgVF9nuNKx7gBpaVtYAxDL9LPGbdvY2qRbQFoARRQQ26jRZDrVdQ3iWhmuq+jXUl81E78K7X/JnQggtmBMFiduY+0R0777CFJTfbI9Vl8akNzrxTjOtm3Obl7OfaX7DgVIbWlXrkPfDitSZ8hhMiQgtYByns5Zad+SzpT8lsJIN+umzhhyFyvU2Marb+gwq2rXazo1bJEe4l2A4ldpJDC6fVDoN7O7BaDs6jNEOkUECaXn+HqwPFYfOkyFdsOCQQQJ8K6Ro8mI6RQRJACKvSaDgaLynbeJplDvNvQ2b6zanYMyfDpFBIklYqf9Asnyz1bH6gtMYXsJwHCISgRJ9Lgeogl1ht/4AOLXyNmiUVCIGoF2B5BAoXzNGgEFMHyG3PwdQCIFczW3PlbvGltvx9ALms15KQARULqmaEKdkWdgAMnTr+b6hHSqgG0BpICIvksoRxTA8Bkk4u8AEiFWTlMNSEinciy03xdAymtqkXZxPETIjgAiJKzvsgWeyJNK+UQu8HcAKSBi1iU+jtaHvH67/o6i1c+RZc2z0c4AUqPhrtCs34Jy+xj8yGiN0miPCUC0Fed+TSkAIE2Zi8FqKwAg2opzv6YUAJCmzMVgtRUAEG3FuV9TCgBIU+ZisNoKAIi24tyvKQUApClzMVhtBQBEW3Hu15QCANKUuRistgIAoq0492tKAQBpylwMVlsBANFWnPs1pQCANGUuBqutAIBoK879mlIAQJoyF4PVVgBAtBXnfk0p8D/La3BQSU70UQAAAABJRU5ErkJggg==;" vertex="1" parent="aXy_L43vjC-4vkgIH09A-43">
          <mxGeometry x="4" y="13" width="14" height="14" as="geometry" />
        </mxCell>
        <mxCell id="aXy_L43vjC-4vkgIH09A-27" value="数据实体" style="text;html=1;align=center;verticalAlign=middle;whiteSpace=wrap;rounded=0;fontSize=5;" vertex="1" parent="aXy_L43vjC-4vkgIH09A-43">
          <mxGeometry width="22" height="10" as="geometry" />
        </mxCell>
        <mxCell id="aXy_L43vjC-4vkgIH09A-44" value="" style="group;textShadow=0;shadow=0;" vertex="1" connectable="0" parent="1">
          <mxGeometry x="199.5" y="150.5" width="22" height="30" as="geometry" />
        </mxCell>
        <mxCell id="aXy_L43vjC-4vkgIH09A-17" value="" style="ellipse;whiteSpace=wrap;html=1;aspect=fixed;" vertex="1" parent="aXy_L43vjC-4vkgIH09A-44">
          <mxGeometry x="1" y="10" width="20" height="20" as="geometry" />
        </mxCell>
        <mxCell id="aXy_L43vjC-4vkgIH09A-25" value="" style="shape=image;verticalLabelPosition=bottom;labelBackgroundColor=default;verticalAlign=top;aspect=fixed;imageAspect=0;image=data:image/png,iVBORw0KGgoAAAANSUhEUgAAAMgAAADICAYAAACtWK6eAAAAAXNSR0IArs4c6QAAB2dJREFUeF7t3QFuEzsUheF0P7MH6MqAldHuYfbDY1CqgqBJxon9zh1/kZCKFNvX//HfOzOI5OnkhQACHxJ4wgYBBD4mQBCnA4ELBAjieCBAEGcAgTYCOkgbN6MmIUCQSYK2zTYCBGnjZtQkBAgySdC22UaAIG3cjJqEAEEmCdo22wg8TJBlWT6fTqftz6dzKdvPXgiMIvByXuj15zl8Wdf17e93rX+3IGcxvpzluKsYgxF4IIFv21zrun69Z867BFmWZVt8k8MLgVQC3+6RpFkQcqSeB3X9g0CzJE2CkMMhLEigSZLdgpCj4NFQ8huB57037wRxeGYisD3det6z4V2CnJ9Yfd+zgPciEEZgVxfZK4inVmFpK2c3gV33InsF2bqHfwDcnYkBQQR2XWYRJCg5pQwh0FWQH0O2YBEEOhJY1/XmxnDzG7d6l2UhSMfgTD2GAEHGcLZKUQIEKRqcsscQIMgYzlYpSoAgRYNT9hgCBBnD2SpFCRCkaHDKHkOAIGM4W6UoAYIUDU7ZYwgQZAxnqxQlQJCiwSl7DAGCjOFslaIECFI0OGWPIUCQMZytUpQAQYoGp+wxBAgyhrNVihIgSNHglD2GAEHGcLZKUQIEKRqcsscQIMgYzlYpSoAgRYNT9hgCBGnn/Os7Jbx+fQnSYT//jCBtJ3zX5yW1LVFj1LIsh/6AQIK0nUOCnLkR5P0A+VysdxYEIchfv1oJQpC/DoUOooP86yJMB9FBdJALtycEIQhBCHL9CYZLLJdYLrEueEIQghCEINdb6el08hTLUyxPsS6oQhCCEIQgN3VTT7E8xfIUy1Os678s3KS7SXeT7ib9+m8KN+l/MHKJ5RLLJZZLrOu/OF1iucS6fkr6vOPuLnX0w9sH+5+z+v8gIyi3rUGQNm4PHUWQh+J86GQEeSjOtskI0sZtxCiCjKB8ZQ2CBITwQQkECciGIAEhECQ3BILkZqODBGRDkIAQdJDcEAiSm40OEpANQQJC0EFyQyBIbjY6SEA2BAkIQQfJDYEgudnoIAHZECQgBB0kNwSC5GajgwRkQ5CAEHSQ3BAIkpuNDhKQDUECQtBBckMgSG42OkhANgQJCEEHyQ2BILnZ6CAB2RAkIAQdJDcEguRmo4MEZEOQgBB0kNwQCJKbjQ4SkA1BAkLQQXJDIEhuNjpIQDYECQhBB8kNgSC52eggAdkQJCAEHSQ3BILkZqODBGRDkIAQdJDcEAiSm40OEpANQQJC0EFyQyBIbjY6SEA2BAkIQQfJDYEgudnoIAHZECQgBB0kNwSC5GajgwRkQ5CAEHSQ3BAIkpuNDhKQDUECQtBBckMgSG42OkhANgQJCEEHyQ2BILnZ6CAB2RAkIAQdJDcEguRmo4MEZEOQgBB0kNwQCJKbjQ4SkA1BAkLQQXJDIEhuNjpIQDYECQhBB8kNgSC52eggAdkQJCAEHSQ3BILkZqODBGRDkIAQdJDcEAiSm40OEpANQQJC0EFyQyBIbjYvp9Pp9c7yvtw5fvrhBJn+CABwiQBBnA8ELhAgiOOBAEGcAQTaCOggbdyMmoQAQSYJ2jbbCBCkjZtRkxAgyCRB22YbAYK0cTNqEgIEmSRo22wjQJA2bkZNQoAgkwRtm20ECNLGzahJCBBkkqBts40AQdq4GTUJAYJMErRtthEgSBs3oyYhQJBJgrbNNgIEaeNm1CQECDJJ0LbZRoAgbdyMmoQAQSYJ2jbbCBCkjZtRkxAgyCRB22YbAYK8c3vEB7W1pTDPqE+n0+lzpe0S5D2tb+u6fq0UXrVal2XZ+Jb6tEeCEGSYZwT5DfWyLD+GkX/MQjrIYzh+OAtBCNL5iNWeniAEqX2CO1dPEIJ0PmK1pycIQWqf4M7VE4QgnY9Y7ekJQpDaJ7hz9QQhSOcjVnt6ghCk9gnuXD1BCNL5iNWeniAEqX2CO1dPEIJ0PmK1pycIQWqf4M7VE4QgnY9Y7ekJUluQ2qdP9V0I+P8gXbCa9CgECHKUJO2jCwGCdMFq0qMQIMhRkrSPLgQI0gWrSY9CgCBHSdI+uhAgSBesJj0KAYIcJUn76EKAIF2wmvQoBAhylCTtowsBgnTBatKjECDIUZK0jy4ECNIFq0mPQoAgR0nSProQIEgXrCY9CgGCHCVJ++hCoKcg36t9m1AXwiatTOBlXdfnWzfwdOsbt/cty0KQPcC8N5FAV0HKfd1WYkJq+l8J7PpSpb0dZPuyxq2LeCFQlcDzuq7bl7ve9NoliMusm5h6Uy6BXd1j20aLILpI7gFQ2WUC/QU5dxH3Io5iNQK75WjqIG9UKn5gWLVE1fswAk1y3CWITvKw8EzUl0CzHHcL8psk249f+u7T7AjsIrA9qdrkuPmJ1b9m332T/lGJy7JsN+/bn0/n92w/eyEwisCbCK8/z+H2j4F3ifFW9MMEGUXBOgiMJECQkbStVY4AQcpFpuCRBAgykra1yhEgSLnIFDySAEFG0rZWOQIEKReZgkcSIMhI2tYqR4Ag5SJT8EgCBBlJ21rlCBCkXGQKHkngP43YqwUJF5jkAAAAAElFTkSuQmCC;" vertex="1" parent="aXy_L43vjC-4vkgIH09A-44">
          <mxGeometry x="5.5" y="14.5" width="11" height="11" as="geometry" />
        </mxCell>
        <mxCell id="aXy_L43vjC-4vkgIH09A-28" value="字段" style="text;html=1;align=center;verticalAlign=middle;whiteSpace=wrap;rounded=0;fontSize=5;" vertex="1" parent="aXy_L43vjC-4vkgIH09A-44">
          <mxGeometry width="22" height="10" as="geometry" />
        </mxCell>
        <mxCell id="aXy_L43vjC-4vkgIH09A-45" value="" style="group;textShadow=0;shadow=0;" vertex="1" connectable="0" parent="1">
          <mxGeometry x="244" y="152.5" width="22" height="31.5" as="geometry" />
        </mxCell>
        <mxCell id="aXy_L43vjC-4vkgIH09A-18" value="" style="ellipse;whiteSpace=wrap;html=1;aspect=fixed;" vertex="1" parent="aXy_L43vjC-4vkgIH09A-45">
          <mxGeometry x="1" y="11.5" width="20" height="20" as="geometry" />
        </mxCell>
        <mxCell id="aXy_L43vjC-4vkgIH09A-21" value="" style="shape=image;verticalLabelPosition=bottom;labelBackgroundColor=default;verticalAlign=top;aspect=fixed;imageAspect=0;image=data:image/png,iVBORw0KGgoAAAANSUhEUgAAAMgAAADICAYAAACtWK6eAAAAAXNSR0IArs4c6QAADodJREFUeF7tnetx3DoMhaVtIbeCJH1k01aSGdszidvyug/HFTgtrO5QltZarR4kCJIAePwrk6X4AM9HgA9RbYM/9Rb47+uvY9+I8/nYte23xQZ13Xua8a9tT5d/dt3zzTOHw+nt5fcljXojERvQEp/DYwUsMILQdd3dpfi58BPUq22ahz7bCqEBIAkExZXlDRAZYPCtey3QABBfRWRK56C4eAhBQOw13wHz9vp4v5dO2+8ARECPXXkKRVAsmq5tT23XPVuBBYAUBOTiLbRDsWZDA7AAkAKA/Pf5x33XNB8T7QJ1yF2k1hAMgGRSinlv4WlHbaAAEM+OpSYDGMuW0wIKAKEq3+O5GkMpD7NcJZEOCgAJ7VGP9L3XOJ+fPJIiyWCB9nD4LnHnHoAwShThFM2Ykr0IAKH16c1TIsOpyXmrxWYKWF6WDIezGQCJBKSo15gfODwc+sOF1FBleujR5dMffEwIkXQ4AEgsHLn3MwYg2rbtDw9SQQhtdg/O+dyfBubav9EABwAJVcok/acvP59Sjq6XotxudGYg1szCtfigBQ4AQgAkS0glCIrRRDXCAUACAUk+ER/AyBU6+Ta/VjgAiK9CmqZJCUf/boXQl5FqhgOAeAKSCg7psXjtcAAQD0BSwCEdDGcWwPEuDuyDbEDCvlIldI4xNwHg+LAIAFkBhBUOJWDAc9yKAYAsAMIZVmkIp2pfyt2KtAHIzDqAw2NitpFE04Dg01IAMrESGxyKQiqEVduYAJDBPlxwaBtBMSEHILuetFaR1NruXUFMEsCDNE3z6fOPLsRoS2nhOWItKPP56gHhWM6V+rromuTgOfxhrBoQjnkH4PAXm8aU1QICOOhy1RZO0lta8VGT2HkHPEeM7PQ8W6UHifUe2kZQzDnoQFYHCOCgiUXboEBrJc5iRS3pahMJPEc8JlV5kBjvATjixaYxh2oAiYGjadvTv79/vmvpYHiO7Z5y9vF9778aQGJWrf69PqqxE+DYgWO4y8x3FVJNx8eM3jHeQ1NoBTj84OhTeUYFVQBC9h6eRoyBl+tZwBEAx5DUx4uYByTKewi9kn8uBcARDoevFzEPCNV7aAmtAAcRDk8vYhqQGO+hYWIOOOLg8PEipgGx7D0ABwMcHl7ELCBU76EhtAIcfHDseREAMrO19NAKcDDDMWS31u9mAaGEV9K9B+BIA0e/LbKyYmkSEIvhFeBIB8dWmGUSEGveA3AkhmNjsm4OEGveA3DkgWPNiwCQnUka11EQSj6AIyMcKzowB4iV8Apw5IdjabJuChBqeCVxaZcC+o2kFB22DPGw1H72KmNms+oBkbq0yyUCqe3zEutCIi67bJU/HTBNAUIZdSULiEsMktsYAgqXPfbKnO6JVA+IxPBq2oFcotAOCZcd9uCYz0PMAEIyoJIYndS2BSVohYSr/T5wzJd7qwZEk2C4RKKpzU6sXO32hmO23GsGEMr8Q3p4Ne9ULrFogYSrve7986brjiGQjPMQE4BQ9wy0AcI5okqHhAsOJ/Su6+7qBmS4yiVohGiah7fXx/uQZ6SkZROPUBuwtW84oUsaQIf5qQ0PUhkglj0JNxy9rb7+Onbn81PQAFc9IEpuLNnqVDYxCfEkbO1Z6FvqHNWEB6F8Rk3j/GMJFjZRFYaErR0rAx9VIzYACf0Ip5L9D9+QgE1chSBhq/9GVEABxE3wAYivCoWnYxNZZkjY6r0TMlPmISYAITU8swhyscUmtkz2Yauvx3ySqhP1HoRiZOl7ADFAUeyxVF5qG7HV0wOOsX2hE3VngzoBCTBqjFhLPcsmvkSehK1+gf0YCojbga8SECsrWBqXgEvB4WxVJSCU1YkaAJG4mVgSDgASEM/UAogkSErD0QPy5edT8JmsAF2JTEppdE2ASIBEAhwAJADf2gApCYkUOAAIANm1AJtYPVe32MoLXK1aMwQl2lC/ikVpdI0eZBQNm2h3IGErhwkOeJDd8fMjQc2A5Ai3JMIBQABIgAX43vWe77hLhQOABMijdg+SKtySDAcAASABFvhIyiVqysUISxX2+XY5qaHYSfc3W8pO8K+FnJRskEQ2KXW/VHnUhNK5qTsiUidFHqfYkbOiOfqkTkAIL+Tn6AxO8eTKqxQkufojFBAbx90pgHhudOUSpqRyckOSC45qX5jqVycqfyedG7BckOSCg7r3Y8KDABBuPN7zSw1JTjio7THxTjp1fRt7IftgpYIkNxwxGlF/Fova+BKdtC9JeSm4ISll9+AwvGkaN4iaAITSiaU6Sh4C+zWi2Df3JuBWKygTdLfx+e/vHxv3YsUYYF8eSEGN4aeWKzkgUQAfz5jZ8CCEpd5xhID8/S1AEZrLvSQcVLhNAUJayRLQcf7SlJMyFJLScFC1MS7imPAgmKjnBcgXEglwkMLvYYLee7+8pk1XGskQxi6xTmfd25z3IJEAR2x4BUAmI0VOcVkpaw0SKXBQw6vpS2BmPAjCrDLYzSGRBAcpqpgNmtUDgtWseLBGSCTBQQ2v3HPTUxamAOEYMeLlUmcOzvZvL79PklpP2T2fv2NvChByzMl4tYwkgdRcF+pgOfeC9gAh3L+KMMseSnurbGstnh9iNQcIdeTA6V5bkHCEV6aWecfupQIibYJpS655W0P1HksaMOVBqHD03YdNw7wqTlgaxXus9b8ZQKLgGDoLXiShajNlTfYeK/cUmACEA44h3nx4e328z9SXKCaBBUjeY+NEhXpAAEcClSnNktt7qJ+kAw6lSk5UbW7voRoQwJFIZUqzTeE91AICOJSqOFG1qXC46uztf6mbgwCORCpTnC01tJqfu1oygSpAAIdiFSeqekrvoSrEAhyJFKY42xg4fLyHGkAAh2IVJ6w6NbTymXuM1RYfYgGOhApTnDXl68YT0XtvCIsGBHAoVnDCqseEVqFn7sQCAjgSKkxx1lFwEO5CEwkI4FCs4IRVj4aD8OEkcYAAjoQKU5x1LBwhE/OpmUQBAjgUKzhh1Tl04busO2+GGEA4jDCsW3uvUCTsU2TNZAEOXVDhELMPwmEEwMGkSEHZcOgiBg4RgHAYAXAIUjVTVbh0sXcYca+6RUMsLiPEjhJ7RsLveS3AMSHvB02G+86KAQI48opOS2lscBCWdJdsVAQQwKFFrnnrKQ2OInMQwJFXdBpK6zXRdXdN1x1j68sdbmf1IIAjtvvtPc/lNVIt1GQDBHDYE3dsi2JO5N6UnejivyyAAI5YKdl6ntNr9JZJBEeWOQjgsCXumNZwzjUu9UgIR3JAAEeMnOw8mwSM9y/QJj9WlCzEAhzbAnf2cSmkfZWJE8tUYKSakGfbBwEcO3B8/nHfNc3dGD+3Xfds6U7glGDkhCNJiAU4AuCYJXUhQ+9VlF6gnRqM3HCwAwI46HDMn9QCSw4oLp62bR9yh6RscxDAwQeHdFguULiKMux+7817ckzG1+rAAgjgSAfHTc5te3JzlpyhWG4gpm0uCQdLiAU4MsKxOsx9QNMnORxOoaHIuKrWnM/Hrm2/XYrK4CEWm+UGggIh1YL33nNw678DDgFwhHRf25765KVE71nX0l5j5sE8az1LBjiUwUHr5rxPCfEa0YAADsDBSo5AMMb2BU/SAQfg4IRDUji11K4gQAAH4OCCo9/nISwmcJXvm08QIDHXzU9cVvIDZr6N50zHfoSbs3KC8pLuMcirWBwvt2gzjq+uAMeOpQTPMfb62MuDcAgAcOx1hcHfFYPhPUkHHOvC5bCNy93d3+Q26Ny/L6d8tfJiAIqgZd7YeQc8x7bSly43c+CpgsUYFN6AxI6QgCMcjvkT/REQad5lPA+mYBUq1hFvzkFivAfgiIdjKYcrYNyZqZTHRsajKf29CO37uyovv9+Pq1TytwpIjPcAHGng2Mp1ethwmu7q4OFKBuPp4P7nw6EHoDYQ1my7CAjguDVXjE2uYlqGC5UrGbxFNJMXkMRXsJSyGOAoZfny5S4CQp17cFw3X94k1zUAHNJ6JG99bgChCsLivINqi3kXWhw48sq0XGlsgMR+yaecCZZLBhzSeqRMfW4AoYRX1rwH4CgjRomlXgFCPc5uyXsADokyLVena0CmN/551smS9wAcnp1eUTIAMnQ24KhI9QFNjQbEQngFOAIUU1nSK0AoL0VpBwRwVKb4wObGAaJ85xxwBKqlwuTXgHz+0QXZQDEggCOop6tNXCUggKNavQc3vDpAAEewRqp+oKo5COCoWuukxscB0jSNllUswEHSR/UPRQOi4aQq4Khe52QDRG8USgcEcJC1gQffPzX98Uc6rCh4qRdwQOOxFogHROg8BHDESgPPOwvcvg/y5edT6FUy0k70Ag6Im8sCLID0pAm5rQNwcEkD+Sx6ENI8pM+pPf37++d7SbMCjpLWt1m2mVtNAIdNgZZu1TIghHnI2JASoRbgKC0ju+UvXxz39dexO5+fSM3OHGoBDlIv4SFPCyS5mzfXpJ3ygteSXUp4Pc/+QbLCFkh2u/uwApDke4T9QkLX3YUuRwOOwmpTWPwmIBzhC/ceCUedSs6XFGqk6irvfqOQcpHc4kjdNFHehNNr5AoBq1aWkcbvAkLeF1kxUP99bPf9idfH/jNjW3/cUMBz7Fkcv88tsAuIe4AzrLnpgslXjC6/JfxqEibkgCDEAl6AJIckpMYRaQFHhPEqfdQbEGcfrmXVErYGHCWsrr/MIEC0QgI49Au1VAuCAVEFieHvd5cSTG3lkgBRMSfJfOSlNuHU0l4yIJIh4d6crEUMaOetBaIAkQgJ4IDMOS0QDchYmaR7JT4txnzDx0pIE2gBNkCKgQIwArscyUMswA5INlAARkg/Iy3RAskAuYDy9dexOZ+PXdt+izqePhxJadv24e3l94nYXjwGCwRZIDkg89q4ucr4fz007m969mpyNqvtuufmcOhhABRB/YrETBbIDghTvZENLJDFAgAki5lRiFYLABCtPYd6Z7HA/w+e9Urk/3MoAAAAAElFTkSuQmCC;" vertex="1" parent="aXy_L43vjC-4vkgIH09A-45">
          <mxGeometry x="6" y="16.5" width="10" height="10" as="geometry" />
        </mxCell>
        <mxCell id="aXy_L43vjC-4vkgIH09A-29" value="操作" style="text;html=1;align=center;verticalAlign=middle;whiteSpace=wrap;rounded=0;fontSize=5;" vertex="1" parent="aXy_L43vjC-4vkgIH09A-45">
          <mxGeometry width="22" height="10" as="geometry" />
        </mxCell>
        <mxCell id="aXy_L43vjC-4vkgIH09A-46" value="" style="group;textShadow=0;shadow=0;" vertex="1" connectable="0" parent="1">
          <mxGeometry x="208" y="182" width="22" height="29" as="geometry" />
        </mxCell>
        <mxCell id="aXy_L43vjC-4vkgIH09A-20" value="" style="ellipse;whiteSpace=wrap;html=1;aspect=fixed;" vertex="1" parent="aXy_L43vjC-4vkgIH09A-46">
          <mxGeometry width="20" height="20" as="geometry" />
        </mxCell>
        <mxCell id="aXy_L43vjC-4vkgIH09A-23" value="" style="shape=image;verticalLabelPosition=bottom;labelBackgroundColor=default;verticalAlign=top;aspect=fixed;imageAspect=0;image=data:image/png,iVBORw0KGgoAAAANSUhEUgAAAMgAAADICAYAAACtWK6eAAAAAXNSR0IArs4c6QAAF6pJREFUeF7tnX+IHVcVx++83SRtIGBrEP9Mm8oupSmkrVLIH0kDJoWiyb9i/xBFsX/FQgn9o9AG/ylFFIVSW00bRAyihSQgTdKSbsBCUVNLEjVBkqz/VJCUtW5+7O7bfSNn3puXefNm5px77rnz480ZKNvN3jtz7/eez5xz7ty5Exg9VAFVIFeBQLVRBVSBfAUUELUOVaBAAQVEzUMVUEDUBlQBngLqQXi6aa2WKKCAtGSgtZs8BRQQnm5aqyUKKCAtGWjtJk8BBYSnm9ZqiQIKSEsGWrvJU0AB4emmtVqigAJS8UBveejJXVETOqb/Mwx3miA4O2xWz8zB/89fPBn91KNcBRSQcvWOrhZBEYQvDi7dB4NyBMEh0zNzCgtFLJkyCoiMjqSzDMB4n1QYKxQEh+bPn3wJK6Z/d1NAAXHTj1Q74THo3oJ0ZmOMgkJVilVOAWHJRq+0Zdte8BjyYCSboJDQB8SypAJiKRi1uFevkd2IufkLp56gtk/L0RRQQGg6WZUSzTWsrgyzYMETmsTbipZfXgGR0zI6U6VwDPoyf+GUjqvQuKqQQkLGp+HkHME995mp+3ePtaS3cC36t97VM7at1HDLVrGc8gqIkJCR93j4yZdMOHy+UXjmGAr4STnWrp6xA0UTd4qsaBkFBJWIVsAGjulHv2PM5tnhiYO1ZdpFjDFWoGg+QtY1r6AC4ixh/wRbtu0NsVMF9z5ggpmvGfOFbZlFAZRgbcWY3oopgiZcuGZWzx3GLgd/11CLolJBGQXEUUBqaBVsnjXBjoPkq0WwdG8UgtJ97wX8fOpFcI0UECeN0MoU79HZ9yZ6nqwCRaAQPYl6EZby/UrqQRzEI3uPmX0mmN3ndKXOyqIJuotj5yDlJOpF2NorIGzpBrkHMnMVCMARNzEPEshHwJsUHOpFmOOsgDCFi6th4ZUkIHDNLEgIoZYCwhxnBYQpHDW84uYeRc3KggRN2DXMYo20AsKSrfzwKt3MNCRomKWAsEZaAWHJRgRkx0ED07s+jjQgaJilT9ZZw6CAsGSrHpB0PqKAOAxkQVUFxEFXbGGij/wj3dypm59E/4QCok/VWSOtgLBkG3gQ5G3BMgDpLH0aPW1XQBwGUj2IH/EwDwJLS3zlIHGP4lwEBURzEJYRVO5BhvtCDZrfpLfhsBW8ZQACskGYhT5RV0DqD8gQhv6eUPhGBrAPFGyaVtPtbRQQls01qlIpHmRgSDtJUOTJV8M7IPZ6re0KXq7lgAfRB4Vc9YrreQUEMyBWl2oGCrrUpIQ8xFw8anpX3i2UU99TZ1mbn9W8pWx5UxNQ0ETd8j0Q1jBigNREK1bfKq4k7kGwuFy0vzUYeIqX9Jmsh5eOm/DycSRO0G1KuXYnCkipcNzpcaUrVUmAePQivePfRsdewytUotwCYoBUBEfcsWohIexm4iNhDz94xYTXL6n34Ns/WlMEEC4c01unogZOb+0MG7p6pWdWr6yhDc8oUC0klE0bBF+eIsEBU+S6iRzHloZ1nAGxhQOguHvPOhPDkdf626dXoj8tne7SO1hhTkLVwdWTRB7j8gncc4BqFepBH7R6l3QHhHDn7HsJGhhZcgEsZFAqfO8Bm9FK9s32TUMrMPoXqtSj1tvs6a1zAoR617xrzzpz95719FZllLSApDLDoCTs6a5Fa7U+P2PM5pmxdVvD/ILqMRIn19DKydxkQizsIRlcZcNT681dT/XhCNfBf4EJunf2WOvc6rcl+W95XYPcZPG1JbznVXqR/ufVZL4ihfc0u0SF/ec2ua712B6E4j3W719vNuzfQOo7AAKwYKAQIanMi0BnKdqQROEU0ryDo1puHT4gSO5hA8dIbE4AhRRuVXwX5YRbjiM7Z8LgUJNWQzv2t5TqLEAod8hNRzY5dQA8ydRn+dvdQqiFTAdX6kXiztsk7g6C1aKvDu2vbVUvgHC9x1gCW+BNKKFWXRJVyg2FbSEaUrGlo1TkAYKEVxuf32imZvsPASUO8CRZuQnqRSoOs9J9FwVFwZAwLfQc1oBQYmvX8Cqr1dPXe2P/jAJSUyNyeD8myjNACM01UNsWKSAOiFR4lRVupXMSQphV+9h8y7a9/zbGfDF/GiU4ZHpmToEQsXfrk9gDgizM8wUI9KxzC6aCRxP3heduFnW6CYB8ZIzZnteJ+QunYKEa+nEe65HXCiQFxAGRzj/SvUiHWgoIaZy1EFOBxgGS9iIIILVfzbpl2171IEzjLaNa4wABUZJeRD1IGWbS3mvYA4KsNfKZg8TDlJz2VUDaa7xl9FwcEHj+AXmIzyMOs9BZrJpO8ya10RDLp6W4n7uRgMTLUNA1WQqIu4W0/AzWgIBe2DJ33zNZcR6CJehNeKNOPUi9CeQCAu875G4dWkaY1f3NEvqWYV3WYhWZgAIyiYAQXgry7UUWvzX+SeQRqRsQXg28sU7z1pgRlgehhFk+vcjysWWzcqy/qUPu0QBA+pt5h2+YwHwprx9hz+z+199OVfuGYo0N2HfT+IAQ9oLyMeVLggNUqxkg1jvbZ4/8nAmCs3Xd7d7VWOv4KQw2IBQvAmUkIVm7tGZuvTx4iZ02GpW+ZScERaGXbOpCRmttKvoUhhsgBC8iBQnZc2SZU8nepJTNu9P9LLmPtPvTeCkRbUrsqxMgAy9SOKOVlIjjTcBrABzw0/Hw7k1EBt+xk3ULLePueNGmBFDcASHMaKXHnAKKIBijl/cgqpfBdwGlonAkq8mlaONhTOO+OAMSeREGJHEDsl7NFfAWuHkJiSr6Gi3earsSQn20u+id0i52YX1NT30VASSChJiPWHecUiEw8yY0WyhFR8o4ilrSjiXW3UpV8B5aZnqOauxB/AU5MUAqg2Rg5E6AWoIiETZ85ZGHTBiG5rHtD5per2ce3f7giJ2d++vfh7+f+/gf5i8f3/mdRYxlH1nXGFRyGguXC/frikIiCkjpkGQMOntwiAbkEjY8/uWHzYHvPx2NIvx/8rh9+3b069JS/taqr7/1+6jM60fe5pkRsY+8k/drcfUP7rkvqh//hP+Hb7/Df4xDDBJxQOLOcIUiilEYNjjsGlL4gJHTpxiKNBBF/fQKi0dIbG8eAMPU/bvHwEhrA5D04L+rZ4jmIfeg2BsgibuJ2+ef05JYDDDHoPujNf5NP865DjzztPnBM32PwTmooFh7FAsNbdqNrfKOzxXcu9V0tn7VwM9I7rVl8mXWrp6hgyKwL5pXQEa8SeQzwxfJSowWZC+xcMoX4vzGcpbOFYy0RgBKUegF5SH8sgJFGBLqDSTvuygxJEH3BgqMBSTOoVYpgCQHPBKyD0uRZ5nrl5HbJI06gGMAwzMFC7CPHn5lLL9g3hTGqlFA+d6BH9ITeoE77PAmSPiQEvWjQQALBgqEXQAKmqM43ghKByTPWOBO73tzNCdvglg55BgAh+9jdXXVLC4WL/W38CbOd1joL+XmQ4UjqR8GCsCxeu4wKrnLe0G1AQTtpWAByoDaXE46pKJcGyABWPKOMiHBcg/X7zJ2VhZN0M2+KZAgcfCUrQRkJDeyCJ+yjLEKOOJ2YCEXGRIHA6LcbDjeI611ESTgRZBQi+0pWw0INTzIu0uXFVYVeRQpSLhhCAaIBBxx//MgoXgRbv9aD4iLN7l2/iQlGvJeBgu3SIk7M5lFwyvBb8ODkHmQoF6E6SUVkIT5YnfDpKX7nK3iECUBCecuiwHS2fcmpzuFdbIgIXgRVpilgKSGggJJlXlHnuVgs1uwlgs8CXJYGRH25FwyvEq3e+rmJyP/pIBgQyv0d+yOCJepS2iV7jIGCSnUsghFqgQky4t033uhyAqs4I9PpB7EMsSqo/dIWkVRqEXyIha5COZtfXoQ6HPaiyCAsHb6V0AsAKnDrBXmKAW8SOaddmTHkY7ZNVgJAe/g5L6HE+w4aOAZiK8j7UWwRJ2TYykgSUCQ5RJ19x5xV4qmfmlexDxrTPC5AQRw2txdNIuM37cHSQOiHsTXrYj42nBdc48sWRYWFnLVIuUiAlr7BiQdZmkOIjBoeafA4ummeA8xLyKgtesSE0oTknmIAkJRjFkGm71qGiAgQ54XIYVZTB3T1Xw8B0leo7P0abQ8Hl0CbzH5kDy/5iADNTBAmhRexQNcNKNVWpjlO1EfAIIl6Nz9whQQQv7RRO8BkBTNaJXlRXyHWeBBev98B33LkDODBRoqIBMMSF3CLJ/TvSRAmOGVAhKHV8geTk31INC9vDCL4UH6b3kGwVnYMBv+N37BDQtPvXqRi0dN78q7xRmTAuKWUWIzWHVbmGjT26Iw65Gd38g/VWA+Nr3gWcpbnph+EVebZw14EskjvH7JhB/gb3Fywyv1IEQP0kpALDdgo+wyKflchAoHNzmPQdYcpP9R0sId6ps4gxUPMNuDQAh14RTZPrCFi0ODE/Ak4aXjJrx8nOSMbPqQdUKyAKTWNLTQJANSlKhjU722xoXpOPJ8gfEiFXgNc/mEiX5SDofcQz1IQmBsYJscYhUBUpiDWHoQuA7Vi6RBMZtnChc1WoPRn0w4JPGpOvUghG1rmg5I3kwWAgjr/QkOJMnwK+0YyN5ihDoZODRJb0GSDl3MAoQwzcsCJPIk1Xz6IEaE3W7NQXLiVuyu1+TnIGxAHEOUiiARhUM9SOxBkL13JxEQdM8sR0C4OQkl984sI9Be9SBMD9KENwmLDCsrxCoDkLhN3r2JJzjUg4zOZIVFRtbkRD1r2Ts2g2UsNm+g3PUTm5Zzd/gfv4xHMHSaNyX3JE/1pgEhJOhWDwkpgIx4E/iFv+XrcOd/yjIYm7ZpiFWgFpaoNzXMynqSXmZ4VWSgVp/CGCySLAOKkRljV8ImpT4GCPSziUtOsjZwQMOrEkKXQnBK+BQG1W71QeFoHlK4JquJs1lpQFDvwXiCTjW2JpZTQJKAED611rRkPT2DVXfvUTeIFBBLQJqWiyQTdIr3kFrDVDdD57ZHAbGczYLiTfEi6fAK9R4aXo1xpICkASGEWU3xIuo9uH7jTj0FJEND7JkIVKl7wp70HqTQyvINQnfTa8YZFJAsQAhepO6QxIBQHgpGElQ8tVtXXBSQnJGhrh+qYz6S9B6UvEPhyMdTASm4dWHb2cRV6wZJDAj2Su2w68LrrurqDTjtUkCKACGGWnUKtwCOP374kXnjrbcNhFfooaFVoUQKiBAgdYHk5R//wrx+5G2UC/UeNIkUkLwcxMJ7JE9R5ezWj372lnn1l7+ljXyylIZYuZopIA6zWEWWWCYoH/75vPnJq78yf/rooj0ccQ2FJFM7BSQlC2VVr40V+gQFwPjpz39t4KfIoZCMyaiAJCSRhiMdej3+2MMGnsK7HDEMomBouKUhFmaU1Oceg/PMF33dFbsWeBUbWGSgCP8bfZiTcqgnGaqkHsR+H6doaxlLoFCzzPIsYqHTYCqXsoRGZ7dGh6r1gFga+si+S5Z1UUi8FEg951BI7FRuNSCWBp67KZnleexGiF96zoTBoax3uBUSuqitBcTSqNEd+7xsa0Mfx2TJXDCShRQSmritBEQajhHDq3JfWstlIwoJDknrAPEJRwYoO40xu/BhcCpB8hh5V1BIirVvFSBlwZGW3EP4FUEB15HYJ0ohyYekNYBYwWEZqtjc/4ewQKUwBA8DR56X6e8iCIfnjdMUkuxRbAUgdYGDAhI8zZfwCpRrjXk65FuNI+Vb8jBx4gFpEhwco5auo55kVNGJBkTh4OGjkNzRbWIBUTh4cMS1FJJB6ucmYz1rKxwy46KQGDNxHkThkIFDPckEehCFQxYOhWSCPIjC4QeOKiCpcqo7rWIlIVb05l7H7Eo8KEtMGwRn41/mz598iTLsCgdFJfcy0jlJZAfRQ9Aw/m5h/gNTeFAKKweINuHe25JDrMHrrCCE7dqkuaKnyAqHlCnQziMBiYMtDKx2sMymBFi8exArA8bGyOXlH4/LR7BmT9rfuZCI2kJf1Ojm6dOreAPE5wYIsJfsIDyjeSOFQ5xRK0gC86wJzT5G9EBrt8fx9QKIlXg0CfilPIrHb9Rk1KzVOIOkHtaHiQLiHFtK243CIa3o2PlqB4nwmIsB4jWk4gyzsFCcJrSlziRDIgfItr1hbQxC4Sh9KKQgmd46NdL21StrvL4IhVsigNiKE9xzX9Tpqft3Rz/j36MwcuGa6S1ci/69d/WMvTgKh71mQjVs7QAuC0DcvWdd1II0HHGzAJLulTWzdLpr11IBSJwBsZm6AxAAiiQQWI/Xrp6xAQXdfQS7nv6dr4CNLXTuDczGb95lph/oe4ygSwtAbp9esQHF2R6cALERJNhx0ASbZ/tirC0PRLkx8nvR0KyeOxx5F8LhLArhGlokQwGqPUzNTpmNz2/M1BBACbrGdG4VA0MGxTGicAOEkHdEUMx8fQhHlioATNC9MQQnz/rI3kTAtSoBdgpIwJG+IkBSBAoVkvkLp9h2zq5IEQTgAM9BPSigECFRL0IVXagc5XuORZ6jqBlFoJAgcfAifEAo3iMRVtmMQ2dl0QTdxdwqpHBLvYiN5E5lKTdLLhxxwyD06tzKzlUWX1sy2GwX14uwAKE88whm9plgFlYX8A7wJp2lTzMrQy4CkCCHehFMIaG/UwDZdGSTyNWyvAnAAZAUHswbJg8QwvaanX1vOgtSBAkh1FJAnEeAdgIsvFq/f73ZsH8D7WSEUlOfQSI/msQTvAjLHniAIOGVq/dIalQUbnXfe8HLXYMwRlpkoAAlmpDyHknRp6/3RsaA4kU4YZY1IBRBJLwHBRI0F2G6VbV+ugJYeCXtPZI5CXiS5IF6EYY9iAMi6T2SnZ+6+cnYqKG5iMPsBd1E2l2yKkBA9XSoVQ9AkPzDFyBZoRYKiDGsuLPdJm/Xe2x5iY/wKs+LoGFWKR6kIkBAFJjVip/CxyIheYgCYmfv1qWrBCTtRVBAGBGFfYiFAcJ89kEZmSwvooBQlPNXBpvB8ulBoFcwmxXnIq0HJLpjpHIRBcSf8VPOXLUHgTbGM1oKSEaYpYBQzNhfmToAEifr6LKTUkIs2MsoCN/Pk9xXkh5fLxlmoUk6QxB/pjSZZ8YAgVW7sMzE5xE/XUcBKSVJxwCxXKBoK1wSEPRpugJiK691eWya13UNFqVBcR5Sj2leBJBotklgmUmeMElA0AeFCgjFvpzKYA+OywRk4bmbhX0p5Uk6tABzq8mXo5zUz6icXJ+FLTXhCCLd3jacD5vJ8h1mgQdZ+d1y8ZuGzJul9TRvBEiFYVYMCBpe6UPC0tjEbpi+vQgA8r/v9t9OzT3qBAg00leyDiGW+c95fLk7U5DSrGqCLoTdMKGrvtZkwbnBeyz/YUU8vIrsmDtO2F0jOrmHh4YAyOo7B9Bma3iFSiRagGIPPkKt5WPLZuVYMRywVS13/14+IIRk3QskF4+a3pV3vbhTUYtp2ckoXgQkkYSEBAd8MqGKd9IpyXpsI1KeJPzgFRNev4Sanosg6Mm1QK4CFC8iFW5R4XDxHk4hVgQI0Yu45iQABcBBOhzcKen8WigfEAt74OYka5fWDMABPymH682SHWLFjcMeFKU7YZO8R97i8gmS1xhcR1fvUqzGYxlbewBQpmen0afttmBEXRS4WToDYhNqJccFQImOzTPjw3X5RPRvlHAqWdn1buHRblp1amqolRYFpoOTy1JiL0H1FiPnE4DDOcRKNogripjlMNbZiF1bTzSmQKX2IASHKCBcTyJiWwqHiIzSJ6kEEkE4xAGJICFsCSQ4EHMmDA7NXzw5J3hOPZWgAqXagzAcXgApERJNyAUN2eepSoDE241SJEnPEjcSJcq0h9/AlhoDb2JINVDPk62AF1A8eI1k670BEl9EVBTPYqhhl6OAgE14//xzrIR3QIagwEOkjtll9flm+A525IU0zyjHdMu9imWUUYktlAZIWvroKTwAEx9huBM+Ch/92uuDocl3uQZbh6tFdpE4qraBygCpw2BoG1QBTAEFBFNI/95qBRSQVg+/dh5TQAHBFNK/t1oBBaTVw6+dxxRQQDCF9O+tVkABafXwa+cxBRQQTCH9e6sVUEBaPfzaeUwBBQRTSP/eagUUkFYPv3YeU0ABwRTSv7dagf8DtHc4qgw8PDUAAAAASUVORK5CYII=;" vertex="1" parent="aXy_L43vjC-4vkgIH09A-46">
          <mxGeometry x="4.5" y="3.5" width="13" height="13" as="geometry" />
        </mxCell>
        <mxCell id="aXy_L43vjC-4vkgIH09A-32" value="关系" style="text;html=1;align=center;verticalAlign=middle;whiteSpace=wrap;rounded=0;fontSize=5;labelBackgroundColor=default;" vertex="1" parent="aXy_L43vjC-4vkgIH09A-46">
          <mxGeometry y="16.5" width="22" height="10" as="geometry" />
        </mxCell>
        <mxCell id="aXy_L43vjC-4vkgIH09A-40" value="" style="group;textShadow=0;shadow=0;" vertex="1" connectable="0" parent="1">
          <mxGeometry x="147" y="184" width="22" height="30" as="geometry" />
        </mxCell>
        <mxCell id="aXy_L43vjC-4vkgIH09A-19" value="" style="ellipse;whiteSpace=wrap;html=1;aspect=fixed;" vertex="1" parent="aXy_L43vjC-4vkgIH09A-40">
          <mxGeometry x="1" width="20" height="20" as="geometry" />
        </mxCell>
        <mxCell id="aXy_L43vjC-4vkgIH09A-24" value="" style="shape=image;verticalLabelPosition=bottom;labelBackgroundColor=default;verticalAlign=top;aspect=fixed;imageAspect=0;image=data:image/png,iVBORw0KGgoAAAANSUhEUgAAAMgAAADICAYAAACtWK6eAAAAAXNSR0IArs4c6QAAC8xJREFUeF7tnVuOHDUUhl0TkFgACxgp4Y1E7CAZEPsAFsAWkqyAHUBgGwjS2ULCYyLmkS0gkSlUPd2dnk53ly/HrnN8vn7hMrbL9f/+6rfrOgR+KIACJxUY0AYFUOC0AgDC6ECBMwoACMMDBQCEMYACeQqQIHm6UcuJAgDixGh2M08BAMnTjVpOFAAQJ0azm3kKAEiebtRyogCAODGa3cxTAEDydKOWEwUARIHRDy6/fDJ1YwzD0yEMr267dLN6e/3XSkH3XHcBQBa2//7lw5chhDUgh78hDM/fXr9+tnAXXW8eQBayf0qNMQwTHLO/IYxXpMmsTFUKAEgVWecbPZccR2qv3l2/uZpvlRLSCgCItKIR7T24fPRsDOPTiKK7Iky3UtSSKwsgclpGt5SYHtt2SZFoheUKAoicltEt3b98OEYX3iv47voNfuUIV1AHwQvEy6masjg/bJ/Feo7iZXUApEy/5NoAkizZohUApLH8ANJY8MLNAUihgKnVASRVsWXLA0hj/QGkseCFmwOQQgFTqwNIqmLLlgeQxvoDSGPBCzcHIIUCplYHkFTFli0PII31B5DGghduDkAKBUytDiCpii1bHkAa6L99ICqEiydjGB+fev4joisrHqiKUEmwCIAIirltapMS27t1jz4MJbnZ6U7fqT0erpJU9bYtABHQdP+R2YJ0EOjJuol1ygCLjJwAUqDjXlJUT4nMbgJLpnDbagCSKKABKI7uEdOwRKM3xQEkUjerYBzuHqBEGg4gcUL1AgagxPn9sU559bqv1SsYx0BhQX96ODPFOqJNzksVrB8xeCnEcQcBZE8XL6lxDmYe672rDoBs9PCYGqdAIU0+KAMgIYTM1/BYn1Wd7T+Q3MrjGpCSGwe7pmNv57xPudwCwpQqHnHPaeISEAVw7D5rsH937t0he7G7fWVzB/D058VuafEKiTtAFoBjDcMQxudSb2if9mFqM/X9vvGZceqUp7/PMbgCpCEc4lCcGty3dxIXP2cSzY63JHEDSAM4VlNKTCNNKimiR+2daznpb45P3Y4nSFwAUhsOjQPG4z6ngh5TvntAag4UjWAcmu59/2MgOH9nQWkLiutXHBzr6dSSU6lU2WtpYeEgkarVfvluE6TSRUBzYLRIlJ4vJnYLSO5Hak4dbXo6UlZIk26/ftUlINIDoCc4tgcAaY2ml0X0+KHR7gCRNr7n6YP0NLTHA0l3gAhOrcyvN2IXp5J3M/d2QOkKEMH06HK6cA4YtDt1e03sYUZ5OSmDe5wmxFonlSQ9adhNgghNrdwlxyE8UpD08snqLgCRS4/xytLFv9hkSCkntXDvJUW6AEQiPXoxNAWGc3cIj2F4WdpWDwt284BIpAdwfIyChK49XBsxD0hpegDH6ZyQgMR6ipgGRMBA94vyuWmUwKLdtMamASE95oZ3+d8lFu2Wz2iZBaQ0PZhaxcNTmiKWtTYLSHl6cEo3FhHPKWISENIjdmjLlStPEZsHJJeAWJ4Tyw35tJYEUsTkYt0kICXTK8vz4bQhLV+6NLktHpjMAeLRJPmhnt9i2cHJ3jTLFSCkRz4Y25qFaxFz0yxzgJQdwfy9OrMcibstlK5FrE2zXAFizRzpwS3VXtlBytY0yxQgJesPpldSeJR9cMjavVkAIjdu3LRUOM0ytQ4xBUhJtDO9kuW3wAsAkbXiQ2teTKmln2S7JWezLB2szCRISayz/pBE47atMj/sLNSdAGLHEPmhXKdFAKmja3arZWewACRb+BMVywCxcz3KUILkfznJ0pxXeiDXbM/DmtAMIF4WhTUHtHTbACKtaEF7BYCYOq1YIFHzqh488ZAgAFIJHQCpJGxOs7lmcIo3R+24OrmeTK1bWRdaSpAxzra7pQAkR7W4OiVnFgEkTuPoUrkLQgCJlji5IIAkS1avAoDU0za3ZQDJVa5CPQCpIGphkwBSKKBkdQCRVFOmLQCR0VGkFQARkVG0EQARlbOsMQAp069GbQCpoWpmmwCSKVzFagBSUdzUpgEkVbH65QGkvsbRWwCQaKmaFQSQZlLPbwhA5jVqXQJAWit+ZnsAosiMTVcARJEnAKLIDADRZwaA6POEBFHkCYAoMoME0WcGgOjzhARR5AmAKDKDBNFnBoDo84QEUeQJgCgygwTRZwaA6POEBFHkCYAoMoME0WcGgOjzhARR5AmAKDKDBNFnBoDo84QEUeQJgCgygwTRZwaA6POEBFHkCYAoMoME0WcGgOjzhARR5AmAKDKDBNFnBoDo84QEUeQJgCgygwTRZwaA6POEBFHkCYAoMoME0WcGgOjzhARR5AmAKDKDBNFnBoDo84QEUeQJgCgygwTRZwaA6POEBFHkCYAoMoME0WdGj4B88vt3T3ZKX1x8+Pft/7y5WU3/+t+3L9b/1PYjQRQ50gMgExDjveHpWtYxfAzEjN7TJ63XwHzz8zMN1gCIBhc2fbAKyA6KDCDOya8BFgABkGwFaoFxrEMTLEukCoBkDw/5ilYSpCUYhyq3BgVA5Md5dov3Lx++DCFv3v72+nX1OfuSYCwFyoPLL5+MYZh8Sf69u34zJFdaoIKJTk665ALSwohP/vjh2RjG28W3kl+rNMlJ9qlvLQ5aElaYAST3aFUbEI1wbAdGC0hyDlwAIoHukTZSzahphKYp1Vm5h7B6//UvV5UsCTkHrtoHLcl9NZMg006nmFEdjou8ubekeSltDTfjVa0LjikHrpq+pOgRW9YUILeQPJqd79c24d4f34+xAmsqVxOSOF/Gq7fXf6m8K+CUT+YA2e7IxpDHe2e21sIPYXxe04R7f37/MucquApQqk+3Hq3PFh6csFj78u76TbVpXk1tzQJSU5RTbWtekMfq0WLhHtsXC+UAJNKlHuBoeXYrUlb1xQAkwqKe4NhBUnHRHiGpmSIAEmGV1UX5kqd/I2Q1UQRAZmzqMT1IkXg2AWRGqy7T48NipOpFxPhhqLdkU0A2F/q29ywlPzCkV0Z61kKB7TMwLe/jagZIytXWFmKzDbsK1L4QvK9ME0CAw+5gVNzzVYuLj9UBibkFQbEJdE2xAi2SpDogOc8LKPaErilTYAh17++qCgjpoWw0ddgdAOnQVHZJToHa06yqCcLiXG4g0NJxBUwDkvKAEwMABXIUAJAc1ajjRgHTa5DJJaZZbsZq8x2tnR7TDlVdg2wV41Rv87HjYoMtXv7QBBDWIi7Ga8udXNV+tHq7M00A2W6M6yItx1Cf22oxrdpXrikg+xueUkWjhf/8+MVP42f3vtLYt9p9+vSff3/9/Le/X9TeTm77NV/GcapPiwGSK1Ltej0/IDWnHS90+FghADnQBEB0fJxnDuZWfweQQ0Cmr0AZe2ui1GCp+WI5qT62bgdAAGSnAIAwxZo9AK1fSk2CzOrkpQAJcsTprl/UcGZkv//mF8bDgT4IcgwQy+/fzTy0cwbruHAAckQXj9MsAAGQpGOrt2kW0ysASQPE0zSr8mcRkoRXVpgp1glDPE2zmF6dphJAzhyxvEyzmF4BSFZwe7jthPQ4PzRIkBl0ek8R0gNAstJjW6nnFCE95ocGCTKvUTD94U6unEc4zBqkSKQez2iRHnFDggSJ0yn0NNUCjkjTW73VJL47ukv2MNUCjrQxRoKk6WV+PcJZqzTDASRNr2B5PcIDUYlmM8VKF2yqYRESplZ5XpMgebrZgWQIq+H9+Py/b1+sMnfVdTUAKbRf9dkt7tItdLfRu3mLe6m8AY2QMKWSGTQkiIyOqq6TAIeQqSzS5YTUcO8WYMj7SYLIa7puseW0CzAqmUiC1BP2TqIM4+MwBtmXdXN2qr55ANJE491GplSZ/mMM49OsLW+gmOpy2jZLweRKTLGSJZOpMF1sXLd0cXEnWcZhfDyMw6v1325udtcuAEJG99RWACRVMcq7UgBAXNnNzqYqACCpilHelQIA4spudjZVAQBJVYzyrhQAEFd2s7OpCgBIqmKUd6UAgLiym51NVQBAUhWjvCsFAMSV3exsqgIAkqoY5V0pACCu7GZnUxX4H7g8vyPDsZ0jAAAAAElFTkSuQmCC;" vertex="1" parent="aXy_L43vjC-4vkgIH09A-40">
          <mxGeometry x="4.5" y="3.5" width="13" height="13" as="geometry" />
        </mxCell>
        <mxCell id="aXy_L43vjC-4vkgIH09A-31" value="通知" style="text;html=1;align=center;verticalAlign=middle;whiteSpace=wrap;rounded=0;fontSize=5;labelBackgroundColor=default;" vertex="1" parent="aXy_L43vjC-4vkgIH09A-40">
          <mxGeometry y="16.5" width="22" height="10" as="geometry" />
        </mxCell>
        <mxCell id="aXy_L43vjC-4vkgIH09A-56" value="&lt;div&gt;&lt;br&gt;&lt;/div&gt;数字化产品" style="rounded=0;whiteSpace=wrap;html=1;fontSize=7;labelBackgroundColor=none;fillColor=#d5e8d4;strokeColor=#82b366;fontColor=#336600;" vertex="1" parent="1">
          <mxGeometry x="33" y="67" width="260" height="30" as="geometry" />
        </mxCell>
        <mxCell id="aXy_L43vjC-4vkgIH09A-57" value="" style="shape=flexArrow;endArrow=classic;html=1;rounded=0;startSize=0;endSize=4.258181818181819;endWidth=10.115702479338843;width=10.181818181818182;fillColor=#dae8fc;strokeColor=#6c8ebf;textShadow=0;shadow=1;" edge="1" parent="1">
          <mxGeometry width="50" height="50" relative="1" as="geometry">
            <mxPoint x="157.99" y="153.5" as="sourcePoint" />
            <mxPoint x="157.81" y="103.5" as="targetPoint" />
          </mxGeometry>
        </mxCell>
        <mxCell id="aXy_L43vjC-4vkgIH09A-59" value="订单管理系统" style="rounded=0;whiteSpace=wrap;html=1;fontSize=7;labelBackgroundColor=none;fillColor=#f5f5f5;strokeColor=#666666;fontColor=#333333;" vertex="1" parent="1">
          <mxGeometry x="38" y="57" width="50" height="20" as="geometry" />
        </mxCell>
        <mxCell id="aXy_L43vjC-4vkgIH09A-60" value="客户管理系统" style="rounded=0;whiteSpace=wrap;html=1;fontSize=7;labelBackgroundColor=none;fillColor=#f5f5f5;strokeColor=#666666;fontColor=#333333;" vertex="1" parent="1">
          <mxGeometry x="97" y="57" width="50" height="20" as="geometry" />
        </mxCell>
        <mxCell id="aXy_L43vjC-4vkgIH09A-61" value="财务审批系统" style="rounded=0;whiteSpace=wrap;html=1;fontSize=7;labelBackgroundColor=none;fillColor=#f5f5f5;strokeColor=#666666;fontColor=#333333;" vertex="1" parent="1">
          <mxGeometry x="158" y="57" width="50" height="20" as="geometry" />
        </mxCell>
        <mxCell id="aXy_L43vjC-4vkgIH09A-62" value="仓储管理系统" style="rounded=0;whiteSpace=wrap;html=1;fontSize=7;labelBackgroundColor=none;fillColor=#f5f5f5;strokeColor=#666666;fontColor=#333333;" vertex="1" parent="1">
          <mxGeometry x="218" y="57" width="50" height="20" as="geometry" />
        </mxCell>
        <mxCell id="aXy_L43vjC-4vkgIH09A-63" value="..." style="rounded=0;whiteSpace=wrap;html=1;fontSize=7;labelBackgroundColor=none;fillColor=#f5f5f5;strokeColor=#666666;fontColor=#333333;" vertex="1" parent="1">
          <mxGeometry x="278" y="57" width="20" height="20" as="geometry" />
        </mxCell>
        <mxCell id="aXy_L43vjC-4vkgIH09A-65" value="数据读取算子" style="shape=cube;whiteSpace=wrap;html=1;boundedLbl=1;backgroundOutline=1;darkOpacity=0.05;darkOpacity2=0.1;size=3;fillColor=#D1E0F5;strokeColor=#6c8ebf;strokeWidth=0.8;fontSize=5;fontColor=#004C99;" vertex="1" parent="1">
          <mxGeometry x="44.5" y="288" width="37" height="17" as="geometry" />
        </mxCell>
        <mxCell id="aXy_L43vjC-4vkgIH09A-66" value="操作算子" style="shape=cube;whiteSpace=wrap;html=1;boundedLbl=1;backgroundOutline=1;darkOpacity=0.05;darkOpacity2=0.1;size=3;fillColor=#D1E0F5;strokeColor=#6c8ebf;strokeWidth=0.8;fontSize=5;fontColor=#004C99;" vertex="1" parent="1">
          <mxGeometry x="91" y="302" width="37" height="17" as="geometry" />
        </mxCell>
        <mxCell id="aXy_L43vjC-4vkgIH09A-67" value="关系算子" style="shape=cube;whiteSpace=wrap;html=1;boundedLbl=1;backgroundOutline=1;darkOpacity=0.05;darkOpacity2=0.1;size=3;fillColor=#D1E0F5;strokeColor=#6c8ebf;strokeWidth=0.8;fontSize=5;fontColor=#004C99;" vertex="1" parent="1">
          <mxGeometry x="142" y="305" width="37" height="17" as="geometry" />
        </mxCell>
        <mxCell id="aXy_L43vjC-4vkgIH09A-68" value="前端渲染算子" style="shape=cube;whiteSpace=wrap;html=1;boundedLbl=1;backgroundOutline=1;darkOpacity=0.05;darkOpacity2=0.1;size=3;fillColor=#D1E0F5;strokeColor=#6c8ebf;strokeWidth=0.8;fontSize=5;fontColor=#004C99;" vertex="1" parent="1">
          <mxGeometry x="195" y="303" width="37" height="16" as="geometry" />
        </mxCell>
        <mxCell id="aXy_L43vjC-4vkgIH09A-69" value="流程编排算子" style="shape=cube;whiteSpace=wrap;html=1;boundedLbl=1;backgroundOutline=1;darkOpacity=0.05;darkOpacity2=0.1;size=3;fillColor=#D1E0F5;strokeColor=#6c8ebf;strokeWidth=0.8;fontSize=5;fontColor=#004C99;" vertex="1" parent="1">
          <mxGeometry x="245" y="288" width="37" height="17" as="geometry" />
        </mxCell>
        <mxCell id="aXy_L43vjC-4vkgIH09A-73" value="" style="ellipse;whiteSpace=wrap;html=1;shadow=1;strokeColor=#0066cc;textShadow=0;fillColor=#CCE5FF;" vertex="1" parent="1">
          <mxGeometry x="38" y="247" width="250" height="30" as="geometry" />
        </mxCell>
        <mxCell id="aXy_L43vjC-4vkgIH09A-36" value="" style="endArrow=classic;html=1;rounded=0;exitX=0.5;exitY=1;exitDx=0;exitDy=0;strokeWidth=0.8;strokeColor=#3399FF;entryX=0.198;entryY=0.869;entryDx=0;entryDy=0;entryPerimeter=0;" edge="1" parent="1" source="aXy_L43vjC-4vkgIH09A-30" target="aXy_L43vjC-4vkgIH09A-73">
          <mxGeometry width="50" height="50" relative="1" as="geometry">
            <mxPoint x="87.85" y="203.27999999999997" as="sourcePoint" />
            <mxPoint x="87" y="271" as="targetPoint" />
          </mxGeometry>
        </mxCell>
        <mxCell id="aXy_L43vjC-4vkgIH09A-38" value="" style="endArrow=classic;html=1;rounded=0;entryX=0;entryY=0;entryDx=0;entryDy=15;entryPerimeter=0;exitX=0.5;exitY=1;exitDx=0;exitDy=0;strokeWidth=0.8;strokeColor=#3399FF;" edge="1" parent="1" source="aXy_L43vjC-4vkgIH09A-32">
          <mxGeometry width="50" height="50" relative="1" as="geometry">
            <mxPoint x="218.85000000000002" y="204" as="sourcePoint" />
            <mxPoint x="218.85000000000002" y="275" as="targetPoint" />
          </mxGeometry>
        </mxCell>
        <mxCell id="aXy_L43vjC-4vkgIH09A-49" value="" style="endArrow=classic;html=1;rounded=0;entryX=0;entryY=0;entryDx=0;entryDy=15;entryPerimeter=0;strokeWidth=0.8;strokeColor=#3399FF;" edge="1" parent="1">
          <mxGeometry width="50" height="50" relative="1" as="geometry">
            <mxPoint x="288" y="197" as="sourcePoint" />
            <mxPoint x="287.70000000000005" y="261" as="targetPoint" />
          </mxGeometry>
        </mxCell>
        <mxCell id="aXy_L43vjC-4vkgIH09A-47" value="" style="endArrow=classic;html=1;rounded=0;entryX=0;entryY=0;entryDx=0;entryDy=15;entryPerimeter=0;strokeWidth=0.8;strokeColor=#3399FF;exitX=0.5;exitY=1;exitDx=0;exitDy=0;" edge="1" parent="1" source="aXy_L43vjC-4vkgIH09A-31">
          <mxGeometry width="50" height="50" relative="1" as="geometry">
            <mxPoint x="159" y="217" as="sourcePoint" />
            <mxPoint x="157.85000000000002" y="276.5" as="targetPoint" />
          </mxGeometry>
        </mxCell>
        <mxCell id="aXy_L43vjC-4vkgIH09A-75" value="AI产品引擎（黑盒子）" style="rounded=0;whiteSpace=wrap;html=1;fillColor=#dae8fc;strokeColor=#6c8ebf;textShadow=0;shadow=1;" vertex="1" parent="1">
          <mxGeometry x="460.25" y="169" width="254.5" height="59" as="geometry" />
        </mxCell>
        <mxCell id="aXy_L43vjC-4vkgIH09A-76" value="" style="shape=image;verticalLabelPosition=bottom;labelBackgroundColor=default;verticalAlign=top;aspect=fixed;imageAspect=0;image=data:image/png,iVBORw0KGgoAAAANSUhEUgAAAMgAAADICAYAAACtWK6eAAAAAXNSR0IArs4c6QAAE1pJREFUeF7tnb+vHVcRx3dvRJrYSFRgGtKARAWIFv8q6JM/IBFtLBokGmieLSHRINEYuwb/AUmLQPLzs6VEQghRIUFhUhBDheT3aBL5LTp77z7vu3d35ztzfs3ZM7dxlLd7ds535jMz5+zevW1jH1PAFJhVoDVtTAFTYF4BA8SiwxRYUMAAsfAwBQwQiwFTQKaAVRCZbnZWJQoYIJU42qYpU8AAkelmZ1WigAFSiaNtmjIFDJCdbld+/INbm/PNrUHGrutuyiQt66y2bZ84i88358fu37P7z/p/7bNVoGpAvnznxt0ehLa5AKP6wOiaYweNA8ZgqRSQHoymO6oeBkqArjnu3uju1QxKVRXEwKCImPl71xyfPnx6W3h20adVA4jB4RmnlVaTKgC5+sH1x9A6Y9d/e4ZScadfbEgAa7Fu092uqeVaPSAUHG3T3rMF6ZZpt5PXvmqPqGRSEySrBmQJDgfGywcnd4tL9wkMRkA5ffB01bEzyLzaSS6tOQwOjLIelPP28eTRlSzcVwnIkmNrag8wDJaPWtKyhkSzSkDmWqsaHBoCiv0xliBZe6u1OkDmnInC8fGL5/1d9bZr7EbiiJTf/P7R2x/96Q9v78OD6hoD3BRjrg6QyeoB9suffPbc9dv22MlM5P3u5MPm0cmHB39dcxVZHyB3rnf7HqTWHa5qtF0zvRhNkaYKucYcIJS+hUxv0sxVATLXXlEZ7pPPnh9AVbJTY9r+00e/bP766d8uXWLNbdaqAJG0Vx//6/ndtrX1BgpVbW3W6gFZKv8GB4rF6+Nc9XBVZP9DVWn+lXScYYBY9WBH4g9/8b4BwlZNwQlXJxboS5nNdq1kTpsCZK0L9XVVED4gtjgXMGKACETTcIqgghggAscZIALRNJxigKTxggGSRufgV4kJyOnnZ83Z52fN6Renvd1Xv3S1//fala95zSPWuM4oN/aL/70Iaq8bzADxcnm+k2MB8vf//qMPtqnP19+6Jobkxdm/m892ARxybGers3nu42OzAZIvvr2vHAOQP//nL5Bd3/rKN5urb16BjnUHUXAMA3GDGR3X2epslnysgkhUU3BOaEDQYOtbLkbAccZ1Y3PgQ4F243LhG1xsgCgIdokJIQGh2pQp+9BA5gQxBz4ueG7s73/1e2ypDRC2ZDpOCAmIJNiQjCwBD61OS2ulOQ+hUI/PN0B0xDvbityAIIEsAQ/N9NzKxG3frMVih6SuE0ICIsnGCCCSChITEKTq7XvZKoiuuIetCQmIJJCRYJOMi4DnRJJAbWuQ5fCyZ7Fm9JEEMgKIuxy3FULHNUDgXAofaIAsSMVZL6BB7C7HhY+T5TnwcWy2RTrMlN4DQ7ZYwyzRrMwJYjc2Ch83iFH4uOMaIHrjHrYsBiBUMKPrg6lJLEHixr321jXW3fnhGsMzWDEej3HXsEU6HJK6DowFyNAWuYcV+//+4rQPXvfhPF4yp5YDZRjXPQR55c0rQcYdHoQMbbMBoivuYWtiAgIbUcGBBkihTjZA0jjOAEmjc/CrTAGy9F1pex+WzAUGiEy37GdNvRfLAAnrFnvtT1g9k442BcjSW/+sgvDdY4DwNVNzxuSP5iy8uNoA4btu6tWjDfhycP7V8p+xqjvp3HfzGiD8AKxp/eHUWRUg/X2JiXdjzbVZBggPEHu7O08vlUfP/Tbh1BsWDRCeC6eqx5rbq1VWkLkqMuVIAwQHZHLt0TTNWl85OiizuhbLTWyuiuy3WgYIBshca7X26rHaCjJbRfpF1+vfRzdAaEBm4aigeqwaEOo3vrs3unt//Pkj+9m1BUaW4Fjzr0qNJVllizVMcK7VGv7+3o13m/dvvEun0cqOWAJjm1VfV+G1S7NqQJbWI2PHfucb327eu/FO/7/cf9f4cVC4z9Sv2F7SY8U3Baf8vnpAUEg0QuFb4eYeC5HOtabKsepdrKkAWFyTSCMmwXmuov3qvZ+JrkS1SpxBa4Rj1Yv0OedP/hIuJ1IyHDu0gNz2b+7eBWcKtYJRXQUZB0VfTV61R03b3OIES+5juS2XDyAODDfflw9O7uaed87rV7EGWRL4ApZtPVUPDKflmnw0ZEEMg+JQnOoBmVuv5Mxam/PNra7pjuZsQFquuQW6ezRkPO7Z/WfHOeeq/doGiFIPIW3gUstV2xebYrnRAImlbKBxqZudcy3XJCCV3cMI4QIDJISKkcegIHGXd1vB412u2r75F8sFBkgsZQOPy225pgCpfctW4hIDRKJaxnOoajIs4B+dfNS4Nmv8Wft3N2K4xQCJoWrkMSlI5i5vgPAdY4DwNVNxBtJy7Rs69bVjFZNRbIQBotg5iGlwNbEdLETOg2NWDYjLsv1Nt667eTHz8d3yrulvkrVt+8T9W+pjFdCDmAaIAeIUkLQe+8q53Z7zzflxSXeZqXlz1h9uLKeJSy7u33GCGZKJ+/+laSQhZBUVhAoOiTB9ZSnwgb2plgvZ3vV6Jq1rjh04pVbgpfgoHhC4B5dS0qfQsgJgvwIsBW6vn2tBAz2oWWJSWSUgsarGsljr+S52isSCVC6fvJXi3CIrSArnLonP6edTOJFzjdSJpXRIigNEyzcCS4QkZ2IpFZSiANECx5CxS3K6Bu1K0uu1jzn1OeOxXg7e3e8Y3/O42L70XJxqrySpWyoqREqDpIgKImoNdjtPyF79xQ3FhW/xlbommfo5CCqID/4+JBjPZFJi5VUPCBuOrjl2rxWV3uRjX2+3DXz68Omlr7KygzDCCeKqC2jodNpOff6rwWvYEVQPCCcDhizfXFBCXjsEK1z73b0eaWJhX2s3Qe3t6fZmseIPR/gYYnOu32fTTXdbWrlCuoFrdyi4udd1c9b+hLFaQDhixwxM6EHAIbqVPBDIqbqhtWPpVcCLsNUCgjo5VPZbyuAcp4cOOG5lgROLR0uF2MRZ/+TWbHmthMw28TGok1PAMUwdtSn3ry6hiSVFUMKQKKm8U2GusoJAwZhBVNThKYJvypmQbgnbmpIq71wNUAkIkgVTVo9BPNThOWxzNmrUDdUsd+UtBhAkC+YKwD4IP7j+mHw0PEN1Q3TLtWsEaaZ0R0tdBUEcnRMQNCOm3r5EgjCXbqhmuVrTohbpiKNTB9++gEgrk9rZiE05dUPs09hmqasgpJAZ2pcDQIA2K2W2RjJ0SnumMjKS+AwQYru4BEdrXIdob0udZohvc62RimmxEBFzZ0InJhKQKbMhYk/qlm+yity53lG31DTYObZRVYtVCiCInSkBQdqXnOuPIeDI9lnR82yDzaoAKSUTInYaIIe1AgHZKshCjUUys7VYssBTUUGAzQ0DxACh2nD235HMrAIQYA2iIQEWvQZJ2brMRSoSkCkdjdhTCiBWQYj8iCzkcjsbsVEbIBoCD9FNg51qKwj6wF1OEaEFesInZtFt55yaoTbafRCgu0bahZxtFgpIyioH2ZT5CQTIRoUPLKra5uXccc2VEZE2IXUmRHb/UtskeX4tZ+Kby93FApJDTDQLplx/cG7C5bCL017lsq+YR00unA3sl7tjU1YRNEs7u3I4GmpNM7UwaNVN6U+g2+8PUVdBOG1WyrYBdXJKm8ZOhgFOvBZBq24u3ShQVALS72aBVSRFqwXbkql6cNqslBUOhjazbsW1WJy+tZ9cxKzIgSN3FuRk6xTtjPaqS1UPtS0Wdy0yHB/S6ZK3oudYe4h2i3YnhdTroN171R6R393fnaRBt2J2sUR99eikEGJzMvFw6RDXRTIadQzX9tB2c9qqYS4p7xlR+u3/Xe0aZDCU6/BxwCI/fTAc7/sTCJqczG0LQ0Ei8VWoa3MDHz1ePSCsBfvMrJ0T3J8cMOND3O+AX/wGuMdvX2hzsiSL+yzeJWD4XA8N7hDHFQFICEhCiDU1hjY4fCtvfz7x40PDz0y3jHXGlHaaqm6RaxDf9UgsKLStO+bmKc3ssXUrpXps7SzoI20dYkxRa+XYnyt3PRJDq/0xS9GuOECCtA8BIqAkB2trT0vTrqgKMo7tLO1D5N/UCMDu7BBZ9NqzJtZ9l5i6FQmI5CZeKBFLy4DZk8pu0S/9/cNQfpOOUwwgOaGYEnfYOn754KT/tdcSPrk0LDmpqAckl1M5Aa89APr2qutuoo9+cObOObbEpKIWkBLA0Lw7o10/7Ull8K06QLQ7FsmYOZ1fmn45tcJ8iRyV6BgNOy2hppq6nSgNDM3Vd2ybigqS5AZg11w8h9W27ZN+cyVBX54iQ64tsWja+MgOSPA7vaPniBwEZ/efXXpAcalCDE/0Dsd0TXcUsqKEdnySxPJajK2OHg91olqmSCq4LeiRgY8L2hJEvIHnsnNfbQLAEtLxMRJLH/+76jo8+TyXYIYHFt0T0RfVODBAIfWShm+WCuKd+XbtUuqbTyFg8XV6jMTCrbRUsIXcVvbVi7KV+ntyQLz65YiVghJq/+++8zh9+PR20muOWqWUiSVEUon5zgHKB0kBEQeVIjBCgsLJjmLttv3hcUoo5oLOaw6J34M2zCEZINKemRNEVDaI+Xep85EH+KTabZcE7b3QmwO+Okq1yjGfJIBIBNHoWCQwJHNdgkQKRwn6SbRKDUl0QCQiIFkVCdZcx4SaswSOEsAI0aammmdUQNiBEvEFcKlhYe827c2dDYeSdYZUZ8nOZgpIogHChSPFZKXO8zmPpcMOEtY5u0W4ZFfMZ16xzuXOPXa3EQUQ7iTXCscQRBw92qb9Z9d0b6MBuEbtOHr1+WHT3eY8MYFqu13vBP5wS2XMyQWemtdwXKcjF1uzdly9YmkRHBBO7xxrUkhw5TiGmzxmbSx8vYFqz13HxXjPVlBAONTXBoek3ZoMpBVtZKCgwEk3gjZBAUFfd7/Gvhl1tjuOk0j2x42RJTm25ziWU3lDJ95ggKBOrx0On0oS2vk5gl16TQ4kIZNIEEAMDpnbUd22uyn6HhmRzVp+FgxJwFYrCCBIa2UOPgwMBiBPTh887b93UfsH1SxUtfUGBDU4ZNlbQ5Cgug1zDeXwmrQLEXPegFj1kIUcotulkQO2DTKLdZ2F7GyF6Fq8AIGyoDn2ILIg3SbiMURG1BXmcmvQ9YivZl6AIFkwBMVyGXWeieg2ZblpeVkVJNH4aiYGJIVxOsPbzypEt6Ur+GZEP+v1nY0kGx/NxIDENkyfK8JYhOi2dCVbrF9WB2m1fDQTAYJkQd/SFiYcdY0C6rb8NK+t6Q6cSi7YPTQTAYJkQZ+ypiusw1kDAdI2P+m65tdWRXDdY1aRKIBY9Th0LuLEQbeYGREPu7KOjKUZGxAoC9pjEaKt3QEQUmOPlqGssMetRRKQpKuJAojEEFyKMo8kM1zTNINuiLN9Fp5lKkhbTbX+Es3YgFBGWHs17UiubhRQpvOhzpRmkjc0sgAhS789dTpJh0Q3sopYm3WgNanZqErT9Wh7RHBArL06lB4BZEo3quqY1hNV5M71LuQOIAsQymFW9sO0V8MoVMsg6anRzFnqcZRm3DbLAIkcCUjZnwt0ytmWkATb6czWFAbEx9GRY1D18NL2yk2K1JzpbNVCBTSO6nQ4rSkMCOJoK/nh1h8GiJwYChBOnAYFhEOmfPplnUm1SVRPTDnbNOdv9+YBxMr9JLlUgFPrCOp8A4QPCKX5eES4gvhmwrLyfjhrqQCnnEXpzsmG4Wale6SQazccEGJ/mXK0bknjWEc6CnjxsgHC9w2pO6PbMUD4+sNnkI4C7uxSmyOWmGT3ntDW1ACBw51/IBXcbkTKUdQYBogBwo9MJWdQwY0AQrVYBogWQD64/rhpm/m3+zH6OiXxG90MpMWiFtnUIp86P/oklV6A0o2q3MO08BaLAgRoF5RqGc0sX0CQ81FHR5ukwoHJys1I5jAgiLMsm12OFkSzpRuFpKMtKU3iSeqWCxDqrrDCZBPdJKrUL2lGnWvrD9n6g6MbXEGcKdSC0R3DuXj06FRwAUSzqcpLZkHTWlY9gHtP44FZgCBOc4Nbq/VaYkmbheps649DRqiqi+wcigHpqwhxR30Y3CDZKgEBMqoG3OMVFEk1JiCJhdvhsCqIUwIxwiC5HDNIm7U740nTNDeRiLPqcVklNC65urEB4VQRW5PwqggChml6qBIKB7d6bLUWfFCDLvdydf/GHqOKLHuEsUUpcG1xp3B0TQYIt9W6pHrXHLdt61qJ5nxzflycR4QGb7r2u9Q7d5GhuS0CMmaJx3CTtAQOcQUZBOXQW6ITtNncdu1vXz48+ZE2u2Lb4zYuhmu0r9qjxUeepozxqLqiFmtsg0ESOzxsfF8FfKquNyBe7ZbvzO18U4BQwPd2QxBADBKLU3UKdM1x90Z37+z+M691bjBABoG4iyd1wppB5SvgsebYn3xwQIZq4v7tmu6ofLVtBiUp4NtSJQFkfBFXUQyWhRDrmm0LsGk+bbvW/T6hJRUBkdJtXOpSUSrI0kXdlt3mfDP/zUTK4sL/Pr73M9UfD/p0XXeTvZ1ZuDZs8wOtM5aumxwQtgiVn7CfUHpwKv24G8xDgvFdfKMSGiCoUnZclQoYIFW63SaNKmCAoErZcVUqYIBU6XabNKqAAYIqZcdVqYABUqXbbdKoAgYIqpQdV6UCBkiVbrdJowoYIKhSdlyVCvwfbbDDm/ZqwqoAAAAASUVORK5CYII=;" vertex="1" parent="1">
          <mxGeometry x="557" y="27" width="67" height="67" as="geometry" />
        </mxCell>
        <mxCell id="aXy_L43vjC-4vkgIH09A-77" value="" style="shape=flexArrow;endArrow=classic;html=1;rounded=0;fillColor=#d5e8d4;strokeColor=#82b366;endWidth=12.857142857142858;endSize=5.757142857142858;" edge="1" parent="1">
          <mxGeometry width="50" height="50" relative="1" as="geometry">
            <mxPoint x="587.5" y="98" as="sourcePoint" />
            <mxPoint x="587.14" y="159" as="targetPoint" />
          </mxGeometry>
        </mxCell>
        <mxCell id="aXy_L43vjC-4vkgIH09A-78" value="" style="shape=flexArrow;endArrow=classic;html=1;rounded=0;fillColor=#d5e8d4;strokeColor=#82b366;" edge="1" parent="1">
          <mxGeometry width="50" height="50" relative="1" as="geometry">
            <mxPoint x="587.14" y="270" as="sourcePoint" />
            <mxPoint x="587.14" y="340" as="targetPoint" />
          </mxGeometry>
        </mxCell>
        <mxCell id="aXy_L43vjC-4vkgIH09A-79" value="" style="shape=image;verticalLabelPosition=bottom;labelBackgroundColor=default;verticalAlign=top;aspect=fixed;imageAspect=0;image=data:image/png,iVBORw0KGgoAAAANSUhEUgAAAQMAAADICAYAAADsiYQIAAAAAXNSR0IArs4c6QAAEHRJREFUeF7tnel13LgSRiknNnYQHiegPDSThxJ4M0HYTsx6B2pzxGazidqw9u1fPhaWwleFywJIgk8LPxRAARRYluUJFVAABVAgKQAMiAMUQIF3BXQw+Pf587IsL2iHAijQQIFfy8/3Xj8tP5avrz+iLcjDYAXA25JAwA8FUKAXBd6Wv5dvr39FmXMOg/89/7U8kQlEiU07KBCuwNN7lvAlot37MAAEEfrSBgrUUeBp+eJdOhzDABDUcSC9oECkAn++5pf9J/0dV/7n+S3SRtpCARSooIBzyXALA7KCCl6jCxQopIBjuXALA7KCQl6iWRSooIAjO7iGAVlBBW/RBQoUVsC4dwAMCvuF5lGgugLGpcI1DP59/r7wcFF139EhCoQqAAxC5aQxFBhXAeOTiWQG47ocy1HgWAFgQGSgAAq8KwAMCAQUQAFgQAygAAp8KEBmQDSgAAqQGRADKIACZAbEAAqgwE4BlgmEBAqgAMsEYgAFUIBlAjGAAigw0jIhrWHSia78UAAFtgq8FHkXqOs9A+OLE8QNCkytQKkXA4HB1GHD4GZUABjM6FXGhAIGBYCBQTSqoMCMCgCDGb3KmFDAoAAwMIhGFRSYUQFgMKNXGRMKGBQABgbRqIICMyoADGb0KmNCAYMCwMAgGlVQYEYFgMGMXmVMKGBQABgYRKMKCsyoQKkvmPE48ozRwpimVgAYTO1eBocCcgWAgVwrSqLA1AoAg6ndy+BQQK4AMJBrRUkUmFoBYDC1exkcCsgVAAZyrSiJAlMrAAymdi+DQwG5AsBArhUlUWBqBYDB1O5lcCggVwAYyLWiJApMrQAwmNq9DA4F5AoAA7lWlESBqRUABlO7l8GhgFwBYCDXipIoMLUCwGBq9zI4FJArAAzkWlESBaZXIAEh/Z6Wl7CxcrhJmJQ0hAJtFEhg+LT84f4yMzBo4z96RYFwBbzZAjAIdwkNokB7BSz7CsCgvd+wAAWKKaCBAjAo5gYaRoE+FPj3+fPya/mc3WwEBn34CytQoLgCuSwBGBR3Qd0O1qtA2l3+tfx87/zT8mP5+vqjriH01q0C96AADLp1mc6wBIFleTm9vWR0ts4QSg+hwBEQjPHxdDXgUp97elq+cEUThFYu/ds2YXS4wAqKrApcwHz9S2v2lKFtfz1ka9vYMcYGMOgl9DUgWG02Or2XIXdjx3ZJlox6W24hIDH2afnx35Iulf/2enm6sNZvjSFjXACDWo7K9fPP81uuyOHfybr0sq1LMc/El/a6BUQNOKwPLBn6AgZSp5YsZ8kKVntSsH19/VLSvCnaluzF1Bhoumq3yBoEYwMGApGKF7FmBathf75e+7G4wYN00AsA7smVwNDRHSJg0ENce2HAUuHai71DYB9znWQLwKA1DFLgvi3fXWYAg4t8o0HgyOnGzT9X/PyuDAwiVPS0AQw86n3ULXVbPMY6XSuNgAAMdG6KLw0MfJp6Nl99PZevXRkKwEDj0vV+9LaO4RbOVZfAQOOBbSaQf1LT1nJ/tSpBARhIXJ+7+nicBQwkHrguk/OHvsX+a3hiTDg6YJATSroWtd7vBwY5D1z/XeoPXatjlLbGmHB0wOBMKG3gWZwFDGShOsOdAtlI86UKZQnA4J701lRUCwRgkA/+CI3yvYxVogAQgMG9EPA8CKS57x8R6Jr+xgr5y7MD3ucwRhuz1N5gIACDI+GtWcHalmZyRgS7pj9poPVQzuuHHsZQ2oZAIACDMjCQvzwEDI6nCyCQYyQICMDgSHLtxuG+Dc2+ATC49QAgkINgLRkABGAADPSBV7JGBBxL2tdz204gAANg0Fd4ezZu+xpJG2sc+0djw2A9oy6dS7f+vI8Hp3ZYJrQJZK/ubazur1fj+RZjwiD3AIr30AhvULJnoJ8g7BPoNbtXQxN/mzbGg4EmaKxrKGAQF5iSljQ+lbQ3epk0mZffx6NtT17WfJDVEPtjwcASNAZRWCZUnk3sE1wE12S0krmg3D8YCwbWoNGuocgM6tFAEtT1rGnXk3Livhuau/OiXC6MAwNP0ChFITOoNCc8Pq1kYpVuLCDYGnZ28VJkxuPAwJoVJNGAQZWYVnfi8am6s04rKCbr3RHkMgRhZvwYMLgAQf6JN5YJ5WcOWcFljyDiVnjy1pmewovhGDDIkU8SusBAolK9MmQFyyK8YoudcnYRE8Q/MDhSmsxAHH+mgmQFsVnB6oRzGGRfngMGwMA0n12VyApKweD87IdMdgAMgIFrXqsrkxVcJBOk7WptU4Uz0Gb2DoABMDDFnLkSWcFFuuj9gtUhOX1P+gUGwMA8r9UVyQo+JGuRGaTeT+5gAANgoJ7T5grAoD0MTpYKwAAYmOe2umIuhVU3OHCFyGcMVhmksL2TlQADYFBnRkkDtY417XsRPgikMlSq8Z2+gQEwUMWbubA0UM0dDFgxet9AmnkBAx5HbjpdpIHqNfJyFsDH721zCpa37ej6kdmBFrYHICIzIDOIDvHb9iIeJ89ZuR4Isj0MRLuWzvVR4u8RewdaEKRxAIPX66vGPefyOHJs2FuCVWOBNN0ubYfG5uvsxf7CknVMB1kJmQGZgTWE5fW8cD3rSQqC3rMES4ZgBcElM7h5VwEYAAP5pLaWLLVfYJlAaQwl4WTVSDqWtORKp4E/LS/Wrv6rtwMpMAAG7pg6baDUfoF08hz7t7+Pue4fE07AOvpFbogCA0Hse68cml3iiMmiTZUFEoQV8aSyZ0Z4YNBbdrAfSynN9nru+iUzIDMIm/eHDZUKbO+LPl7gR6nWCgQH+wbAABhEhfVxO8DgXN+j5UHkUuB88/VqExEYAIOyMCh1BfZmBqUgpVGzZVZAZsBzBppYDSlbCgbefZJSdzg0ou2B1sKmjQ1kBmQGmvDVly0V4JpN2r3VEZu2eiWua7TOClZrgEHGk96rmSZQIwLTe5X0BvZZ/VIwSH1alwqtlwh7EETEgNWHwAAYWGNHXa8kDDTQ3RreGgZ7iLW0BxgAA/WktlYoCYNkk/V5g1YTsJflwerPTVbJngF7BtZpLqtXGgae5UKL9LyHTcOt58gMyAxkMzmgVGkYHK2/r81+Wdb79veyiFpZQm9ZwQ6kZAZkBgEz/qSJ0jDQXmlbAeGo39LaSDxLZkBmIImTkDLeOzNnRniutEd3YNKyYVk+MokQAX430tOm4cMvEzS3obwBrNnUili39nxr0avlvQm5v5Ng0bFWluCBViSQjtoaLjNIg/CmVDoY+F5x1cAgjc07YTRjKx1c+/a9Y7tnb9QEqwEE7VKmlo92QB1jz8A7YfST0wcD7eT0TBjt2GoF2tpPic25KBBstSgFhRK2RvlwyFeYLzCwT1Dt5PTAxzI5a48tKpgk7XjGdq/9UlfaaCD0umm46josDNIALFcZy+RcxdJesa1PxLUYm2QiR5SJhkHpK+09H1pib7+XY2kjwgfCpdY4ywRL2ukBwZqNSHeXz47qljpUEyzesUltiijn2e/Zfwfh6+uXK5M8bZ+NzZsllIZWhF+GPPZsP/A0adLv3qGQERNz22dukkZOzNpjiwiqXBuWDGtZ/l6OvoGg8UvOrtzfNUBYofVr+fne7LfXS4yuv1LQyo3h7O+75dZ4mcE9MKT///T7azq5ILIKuE7UtX7qr1Rf6ym4277Sv0v1Z9VEUk8DA81Sq9YEu/dMQjqlWBIDuYuJRMPoMsMelR4tBO3VVUC6b6ABQRqBBjLeEXuzv96AcDCe8TMDr5OpX14BOQy+qDIfabtRI5wJCMN+Xi3KmbTTToHcVVybFawjybUbPWIvEGrbe2/8B7fbyQyig4X2jhXITQLrJKudHVieWdkqUtveI2/c0RoYMHnrKJCbBCPAwGrjXuEcGEt7BBiUVpj2swqcTQLry1Y5yGSNUhSIgkHrzcQ72Q2ZgSIWKOpU4GwSWCdazYllBdZtZmB/tN7pgrNj4oCBV1zqyxU4u4pbNxBrPWuQRundL/jY9AQG8qih5LQKRC4VamYFM8Agk32RGUw76zodWG6NL03Fc+2UGL7UtlzftSG22gMMcp7h79UVyO2m5/YPWoAgiZSzSypkKxhkljlkBlIHUi5OAclkThMv/db3TT56L3NGoWR01n2Nfds19zmEWUEqBgwkQUCZeAVy2UF8jzEterODFlmBEGJ1YLBSPsYdtFJLgdur8nHPljcpJdlBrXFq+7HuHbQAgWJ5UwcGWrEpP5YCwivPzaBaTY4IdbUZQquxKuwEBhGBQRtpwal743DVrMX6OcpfkolW8lsMknEono0ABhJBKZNXwJodjLxc2G7O9bbZqVgerMMABvkwp4RUAWt20CqFlo5rxHKSrGU3LmAwoqN7tdmaHaTxjHp3oVdfKJYHZAa9OnF0u6zZwQzLhV58Z8gKkulkBr04cBY7PNkBywV/FBhBAAz80tPCkQKOgDR9KAcvXBTw6E5mQBQVU8C6XEgGkSHo3eIEAZmBXnJqSBXwLBcAglTlSzmv1r97Y89AJzulNQp4soPUD3cY8moHgYDMIC81JbwKGG5xXXXJkuG+BwJBAAy8gU79vAIRAQsQbnUO2CPYN7pfJrQ7my0fVpQYVYGIwAUIH96P0PMglq5hkAqM/OLIqJPlEeyOCGCA4L59eBZqtzBA8EeYmm3G6N1QXK1+xI3Fyyff85+pd3j2FgZkBw45qZpVwLuhuHbwSBetiKwq65j948gf5GXvQCAeRQwKRGwoPgoQKmQDWw8eZwapxCOR1xDTVHEoEAmEWWO1UjYgg0EqxZtkjoin6qkC0UCYBQqVswE5DB4lHWPetlGgBBBGhUJDCKzOv79MOAqPlCn8Wj63iRx6nVKBdAKz5XRliRgjLHU7gIANBhIHUAYFelMgQSH9npaXLkzrCAD6ZUIXCmIECgQo0AoMnQIAGATEFE1MoMB22RudNaTJ/2v5+f55uFLLoGAX6PYMgjunORToToGjfbFPyx937UwTPv3Wr08NMvGPxgMMuotGDEKBNgoAgza60ysKdKcAMOjOJRiEAm0UAAZtdKdXFOhOAWDQnUswCAXaKAAM2uhOryjQnQJzwuDyGezLj8enuwu6IgYNdD+/yPgDGp0HBhcAvCxvvDsREBdjNrE+6PPt9fL4MT+VAnPAYIQXUlRuobBbgXQeQPoBBrGU48PgEc/DE7uXgu8KAAZRIIwNA0AgcjKFNgqsSwmyhpuwGBcGLA2Y41EKbAGxvmOQ2h74PQOLNGPCABBYfE0djwINziT0mGupCwwsqlHnMRWI+u5Dp+qNCQO++tRpOE1uVqkzGzuRbTwYsEToJHQe0Axg0JnTgUFnDnkwc6K+CNWhbGQGHToFkzpWABh05Bwyg46c8YCmAIOOnM5XnjpyxgOaAgw6cjow6MgZD2YKG4gdOpzHkDt0ygOYNPmDR+NtIKaYIzt4gJnX4RAnXiIktceEwQUI3zm7oMMJM6tJk2cFo8Pg8/K2fJ819hhXRwo8AAjGhgHLhY5my8SmTL5puPXcuMuEdRTsH0w8ExsP7UEyglXl8WGwjoSHkRrPnIm6H+CLySXUngcG20xhPRH57IOZJdSkzdEVuJyb+GCHmsyXGYwehtiPAo0VmC8zaCwo3aPAqAoAg1E9h90oEKzA/wG0N6tu89UPRQAAAABJRU5ErkJggg==;" vertex="1" parent="1">
          <mxGeometry x="553.83" y="348" width="67.34" height="52" as="geometry" />
        </mxCell>
        <mxCell id="aXy_L43vjC-4vkgIH09A-80" value="输出产品" style="text;html=1;align=center;verticalAlign=middle;whiteSpace=wrap;rounded=0;fontSize=9;" vertex="1" parent="1">
          <mxGeometry x="591.5" y="282" width="60" height="30" as="geometry" />
        </mxCell>
        <mxCell id="aXy_L43vjC-4vkgIH09A-81" value="描述需求" style="text;html=1;align=center;verticalAlign=middle;whiteSpace=wrap;rounded=0;fontSize=9;" vertex="1" parent="1">
          <mxGeometry x="586" y="107" width="60" height="30" as="geometry" />
        </mxCell>
        <mxCell id="aXy_L43vjC-4vkgIH09A-82" value="" style="shape=image;verticalLabelPosition=bottom;labelBackgroundColor=default;verticalAlign=top;aspect=fixed;imageAspect=0;image=data:image/png,iVBORw0KGgoAAAANSUhEUgAAAMgAAADICAYAAACtWK6eAAAAAXNSR0IArs4c6QAAC2xJREFUeF7tnUuS20YMhjUnc6aK2zlQnIXtRZwDeasq2ydzzAkZyxpJbOLRBNDfbJKymiD7B74G+iHq6cQfCqDAXQWe0AYFUOC+AgBCdKDAAwUAhPBAAQAhBlBApgAZRKYbVw2iAIAM4mi6KVMAQGS6cdUgCgDIII6mmzIFAESmG1cNogCADOJouilTAEBkunHVIAoAyCCOppsyBdICMk3TH0uX5/++k3WfqxwV+L7aPp/PHx3v42o6HSALGB9Op9MKiKtAGDdV4FM2WNIAAhimgXq0sTSgpABkmqY5Rc9Zg786CqSAJDwgwFGHiBs9CQ9JaECAozQca+dCQxIWEOAYAo61k8/n8/lbxB4DSESvjPdM387n83PEbocEhOwRMVTcnylkFgEQd79zg0YFQmaRqID8aBSVZnUUAJBWX07TBCCtYtVqF67MCpdBlh3zr7X8Tm8aFQCQLaEUgIRcJtzqb+HPJWflAGQrIKSAnM/ncNlwq6+VPxeWyQCyFRQAsqVQjs8BxMlPAOIkbGezAOIkOIA4CdvZLIA4CQ4gTsJ2NgsgToIDiJOwnc0CiJPgAOIkbGezAOIkOIA4CdvZLIA4CQ4gTsJ2NgsgToIDiJOwnc0CiJPgAOIkbGezAOIkOIA4CdvZLIA4CQ4gTsJ2NgsgToIDiJOwnc0CiJPgAOIkbGezAOIkOIA4CdvZLIA4CQ4gTsJ2NgsgToIDiJOwnc0CiJPgUkBOp1O4b6M5SRTebCUfhvyaapXRJ3wkOz2gFJCIX5sGEKcgGdms9M2YANIYNdM0za/92ftWjNBvCW/seolmAOLsRiEgId/M5yxVSPNCQEL6L2qJJckgIQUOGcHODyWcQ4b0X1RApD+5xkqWc/C3mBcCErJEjgrIPP+QvH4UQFoi2LGNsLyanwhAWv0iXSb8ObEPmaZb+12hnRSQiCtYsz9CZpD5wYQT9VNUoSsEf0sfhOVV2IGtHCDsqLeEsU8bafaIWl5FzyDSeUjY0cgnLONYVQASdu4YNoMsZZb0h3TCCh4nnG2fRAFH6LI4OiCS/ZDZ82QR2/jftKYAJOTq1drh6IBIy6y5f2SRzbC2aaCAI+zybgpAlGUWWcQm/jetaACJvuoYOoNolnsXr4ZO35uRl6CBBo7Iq1eZMoimzKLUcoRMsaH7+lTRs0foZd5Lv0o3DRcblFpOkAg3BdenSZHdw5dYS5mlzSJAYgyJsrRKkT3SZJAFEukJ31QjlnEcu5jTwpFh7pFmDnJVakk3DoHECBUDONJkj1QZxCiLMGlXgKKdlGdcWUwxBzGcsK+m2ETcCYoRHOnmghkB0U7Y0ywx7oxh1+bKFau0A1M6QAxLrXSjmSsBD4wrl9lTz/9SArJAIj3IeBkKQLJB3chwpJukX/tydOd5ZxSLFav5GTPsmN/TMm0GWbKIyXwk07q8NxSrfSs4sp+qTg2I4XxkNpXi6EMPQAzhSK9pekCAxBYZ4PhdzxKAAIkNJMDxVscygBiubM2mhttINNoILFeqlgIESGSZxBCOcsvm5QABkv2QGO2Sl4Mj/T7IvVBgRGyHxGgvKfVexyO1SmYQ4z2SkiMjmbZtECkLCJA8DgDDFavSCxqlAWH59zYkhnCk3wjcyiPlAQGS30MAOLaQKLpRuNVtAuP1JyW03+tfZS6fOdaODpFB1s6OHCAj931r8BxyFevBErDF90hS7bYbLnsPkzmGzCAXmWQYSAzhKLvcTQa5oYDVBln0c1vskmsKrMC/Uajr1vbVI4ysVoNA5m8EbkfC4xZDTdKvpagMiRUc0TOkFoCt64cGpOpuu+GKVeld8i045s+HB6TaRqIhHMOtWN0CBkAWVSoEVoU+tIzqPdsAyIXamQMs87P3DPi99wKQK8UMA61r/W60nEtZdRUPAOK3R9JtY80IauC4EQsAcifnGiyT9gRE+7sp3Z51b4lzdHsAeeABLSS9NtiU5RVwPIgBAAEQAAGQ/Ylamz3mOybJIPOjAsmdECGD3J6kW3yxqNuk1wJm3k18mxAAcVrm7ZU9jI/LdIN6f04/5goAYaPwOvKA5EIRAOGoya2hGUgWVQDkVOtlBkabhnN4AAmneV/hKPcrVUaT9hmSrsdljpllPL7r0BnEEI5wy6RAYoPb6IBoj2iE3kOwgqTnipxNWNtZGRYQq+CJXIZUzpB2CFBivVFgBDjWTgOJDqXhMsiIqzyGkAy3sjUUICPCcZFJLI7PDLf8OwwgI8MBJPIyawhAgONXgKDFPljKA0JAvA0INGmHpDQgTE7vB8JIK3ntOLxtWRYQQzjC7ZJrHH55LZBsK1kZkNK75NuubWsBJANuFFo5fYQjFmTawQCxgiPyEZK23NDeCkjua1WqxDJcnRnumDeQ3IakDCCGcAx3nIKNxOIZBDjay6mtlmj5u0LpMwgO3Qr5/Z+j6S/NUgNiWDcPW1bdw8cQktTzueyAWOx1AMcdSoxWBFNvtKYFxGiES+28/cXT/itGhyQlIMCxP9A1VxhBkjJTpwPEat4xwi65BoqrM1tWr0ZKNx/JCMjXn28jnx2m+UvnKE1nLa41GpjSlbSpADEqrYBDSIwRJKlKrWyAaFetUjlHGMeul1kMUpnK2zSAGDgGOIzQGckXmQDRZA/gMILj4tyWdi6YotRNAYh2xMqU0o3j2NWccvk3xYQ9CyCa7JFipHKNZCfjBpP28L4JD4gye1BaOcFxUWppXkgXPotkAESaPYDDGQ6L+Uj08jc0IGSPThGuvI2y1ApdZlUFhOyhDPq9lysm7KHLrOiAUF7tjdSD2muySOQyKywgCsHJHsdBIt0bCVtmRQZEujoCIMcBIj31G7bMigyIaDSKnK4Pituut52mSVIWA8heLwmF1mWPL/9oj9Hv7WbM9i9/fpM+mGKyHrLMCplBFMu7ckBe4fgxZy3+Tk/PJyEkirkjgLRGnhQQVXkFIBfuOQQQ+eDWGliCdlEzSP/5B4CYADIbEZZZIechlQDRjUAAAiA3MkxUQCQrIQAiKCFuXyIvsZYMIlmiJ4O0+u+4FSwm6f/5SA2IaD9ENYdsDa6d7SplEN0qCCWWZYkFIDtBbG5+2DIhgPzy0ct71cB5mA+bo6y9oUqI9tu0t5SKa5Kev3yWzH3aO5elpRKQZR4i0VJXBTjoCyCXon75++Pp9PTBQedEJn98Or38NU+yVX/CeSSAbKl+aAaZH+7LZ9EezFa/cnxuAwcZxNHbhwPyCsmQmeTb6eX9s5VrySBWSl7ZCQHI/5DM//P0zuBdwE5qqc0uhxKfPknPXt17AgBR++a2gTCAOPVvFLMA4uRpAHEStrNZAHESHECchO1sFkCcBAcQJ2E7mwUQJ8EBxEnYzmYBxElwAHEStrNZAHESHECchO1sFkCcBAcQJ2E7mwUQJ8EBxEnYzmYBxElwAHEStrNZAHESHECchO1sFkCcBAcQJ2E7mwUQJ8EBxEnYzmYBxElwKSA/T9yKX5fp1JXRzUpe48oXpraiRgHIlmk+j68AgGz5CEC2FKr7ucl7BYzlCfed9Ll/wldXGkuDud4KAEij4gDSKFStZro3YzppETWDiF485qQRZvsoACB7dCaL7FErfduQcMyqhswgyzyELJI+7ps7ACDNUl00lP6QjuReXHOYAmHhCJ1BVncByWGB2+PGoeFIAchSbkl+b6KHg7mHXIHwcKQBBEjkURjwyvlI0AxHiqNBYSfp9xxLyRUw5NseKRUYa5fSAXLpiwWW9Z/mV4TyF0uB7+sh0iwZ41q+1IDEigWepqICAFLRq/TJTAEAMZMSQxUVAJCKXqVPZgoAiJmUGKqoAIBU9Cp9MlMAQMykxFBFBQCkolfpk5kCAGImJYYqKgAgFb1Kn8wUABAzKTFUUQEAqehV+mSmAICYSYmhigr8CwsoQiOdPTfFAAAAAElFTkSuQmCC;" vertex="1" parent="1">
          <mxGeometry x="573.5" y="237" width="28" height="28" as="geometry" />
        </mxCell>
        <mxCell id="aXy_L43vjC-4vkgIH09A-83" value="等待1分钟" style="text;html=1;align=center;verticalAlign=middle;whiteSpace=wrap;rounded=0;fontSize=9;" vertex="1" parent="1">
          <mxGeometry x="591.5" y="237" width="60" height="30" as="geometry" />
        </mxCell>
        <mxCell id="aXy_L43vjC-4vkgIH09A-84" value="" style="shape=image;verticalLabelPosition=bottom;labelBackgroundColor=default;verticalAlign=top;aspect=fixed;imageAspect=0;image=data:image/png,iVBORw0KGgoAAAANSUhEUgAAAMgAAADICAYAAACtWK6eAAAAAXNSR0IArs4c6QAADGhJREFUeF7tnU2W0zoQRu1sjGYIbODBPOuArIM5sAFg2GFj8TuWk07SHdsq/Vmquhm8cx4ty9JXuq4qSZb7boPf9//+Prnb7k5P3bB7d23CMP07P+MK9EcnQH/6dxFi/+PTty1E6Uvd1EHRd1+n+wFCKd3V3acfDmOfSgGTFZArFAChbqDW0KECsGQBBDBqGD3G2tAPhxxeJSkggGFsUNbY3cSgJAEEMGocKYbbNIZep91x/+vDlOxH/KIB+f7l97du6M/Jd0RLuBQFUiuQwJsEA4LXSG1N6sujQH/c//zwPrTuIEAmOIbn0JtyHQoUVyDQm4gBIaQqblpumEqBAEhEgABHKktRz2YKCCHxBgQ4NjMpN06tgAASL0CAI7WFqG9zBTwhWQUEODY3JQ3IpcDQv19bK1kH5POfIVf7qBcFNldgBZJFQL5//vvMztvNTUgDsiqwvE4yCwihVVarUHlNCizkIw8BYSGwJuvRliIKzIRajwFhf1URm3CTmhR4HGq9AYTQqiaj0ZaiCjzwIm8BYdaqqE24WU0KvPUid4DgPWoyFm3ZRIFXXuQeELzHJjbhpjUpcO9FXgDBe9RkJNqyqQI3XgRANrUEN69TgasXuQJCeFWnrWjVJgrsf350bLj/EF5tYgNuWrMC5zALQGo2Em3bUIEpzJoAIbza0BDcuk4FAKROu9CqehQY+vc9+Uc99qAllSkAIJUZhObUpUA/HPAgdZmE1lSlQH/seWtwa4ucPxbjJt2vH4y5a9XLR4b4jERZawFIQb37owPgtHMHKq8dFrDUMPdC2/h1rvHn4AGcPIZ0gHAoQy5xu6GbvoaU4JTxtTa+QMNB4mtSif4OICK51gr3x5JQzLUGWNbs5P93APHXaqHkBEYJTyFtrpvGd6EYn6iQaufSQkKsENku19QLxute4VXC7AwgQbrFfXMi6JYJL2Jx2F9MAPHXanS41YZSom6wg9tbLgDxlcrjHFffqmoqhzdZtgaArI7WtsOp1e6N3sR9Maz7ynrKW7UAZGkEeR6R7zMIWyiDNwEQz3FaNtdwT/Db32WVfPy3BCvvnp12xYDkXi08yJvRkzekuk63hm4ROW9ZOcOTY+2Fs5mvgwJA7gBJD8c1vh9vlGnPVD8cRk+TGhY2srJQePOoGA77H5+mVecEv80S38R5k3VI8CAjDAkH1RTDh4ZPCci8VJGyT4Y/pAQgiQZStcltqv4ZhcQ4IPE5x2ahlNTZJADF4r49w4AkgKO1Dw1FQmJxdsssIJejJaUPYrdW0PrKcwQo1iCxCUjMAGnNa8w9AdDA69loDxAGRpKpbSvTv+YACQ2tqp2l8noOLhQKfGBYCbVsARI6GLSEVbOchE1YWIDEDiDAsexrQvVRvj5iBpCQ0EptWJUwcdfuRWwAEvB01G74+WhLvidNc8JuApAg76E8dFiMtwJeL9a6yq4fkBDvoT4pX5v6kiftWr2IekCk3sNc3pEoH9EakuoGJMR7cFbxFRlhqKXRi6gGBO+xFkqt/V0Wamn0InoBwXusjX6/vxv3IgByHibkHrPJiPscsh9Nl53Ow7Nv+drLqQVEHF6Re8yPVYEX0RZm6QREGF7hPdae48JcRNEakk5ABE889wIU3mONkPH7Iu99jxXS5EVUAiIJrzQZc32Ux5Tw9yKaNFUIiL8hnfcwv2ruC41QVyVeWR8g0vxDiSF9h3lUOUmYpSQP0QeIxIh4DxkvgoePljBLHSCi/ANAZIB0/mEWgAilLVUcQPIqLdJXQfiqzIP4P+GY3g0ESRLCAkigyLkuE8TIABJoBBEgf5+zffIhsPnSy3R5EAEgWmJkqcGjy0s0VjCTpQsQydONBD2QFf8wVsMaE4AEDhO7lwFIu7bHgxSwHYAUEDnTLQAkk7C31QJIAZEz3QJAMgl7X63vWoiGiRBykCJDStNN8CDtWhMPUsB2AFJA5Ey3AJBMwpKDFBC2wC0ki1juM2p6DhcooO75FniQclqnvhOApFb0bX0SjRUsxupK0gXGGy3Pu+gBPAk01nDSoi5ABO8rAEgAHOMlkjyPvViBIme7zD8+ngBpf7dpNilnKvZdA9HyAFLmQbpOZkAAkQLmq6+GRcJRG3WAiEIAZrJkfEjyDwUJunlAtIQBslEeURpAIsSr5lLykFym8A2vNOV3+kIs6UwWYZYfTwLvockzKwRElqhrMqbfSA8sJQBEw5uEF5VUAiJJ1DWFA4FD3+syUXilJEHXmaQ7cwvzEMKsZUgE3kObR9bpQYQrvniRZT6seg/FHkS2JcIBghd5TInUeygKr3QDIgyz8CKP+ZB4D23hlXJA8CJe2fdSIePeQz8geJEoRqx7DwOAyL2IxjAhiBK8xzQfqv+lIdmULwn7OCqGw/7Hp28SsLSOIwOABHoRZbMx/oM94IGiWCsbgATkImZntQRvDF6g0+o9jIRYZzMGGN4cJAEaadp39cjLGvEg8u0nL09HKwuIAXmHhQkNQ4CEQ6Lek4TCoTj3uDwgjQESlrBfY22F77ADx+L8hT1AOvn7IrcKqjoJJSDnsJCY39rbJCDS7fCvHzHtJ6b9sRu6w/7Xh6P/9O+1pKqHxIoARgEJWwy78yStxt+BIdWL52i13yFPAhsr6QvKRA4Wl7w3M2DivEZbfQ2k4cFldj3IyzSFfFtFcyGXqQdBOjhsLRQu6RaRrNYddsV7Dauew+407xwoqSAZFxZ3p6du6L+mfZZJaksDhoPDykLpjLyEWHdzevHh1ubJbIJwavM+SJ4FmcsCyGuBmx5g8p24c+OrncmHvIQAyCN9E0FSfpClAaR8u/MO8pjaAWROvQSQlB9o8YBYWgT0AQdA1lSKAKUlQKwn47PPSc0vu6yNfe+/B0LSCiB4jfmRgAfxpkS+PaV2QPAa68YHkHWN7ksI1ktqBqR826RC11EeQKR2ABCpYk2XBxCp+QBEqljT5QFEaj4AkSrWdHkAkZoPQKSKNV0eQKTmAxCpYk2XBxCp+QBEqljT5QFEaj4AkSrWdHkAkZpPAoh7l6Ir915If/rne+g06yB+hgcQP52upQSASKsuWR5A/NQGED+dAESqk5LyACI1JB5EqljT5QFEaj4AkSrWdHkAkZoPQKSKNV0eQKTmAxCpYk2XBxCp+QBEqljT5QFEbL74977Ft8xwAW8R+okKIH463Zdq3IuwBuJvdADx1+qmZLtehNdsZQYHEJle96X74eD+4bQL+s5GzK2DrnXbXoanoGuNXgQgRg1Pt/0UABA/nShlVAEAMWp4uu2nAID46UQpowoAiFHD020/BQDETydKGVUAQJIZvj92/elfsupSVrTp165SdqR8XQCSSPP9z499oqqSV8MB5eGSAki4djdX1r2yDiDhRgaQcO0AJIl2dVcCIEnsgwdJImOFlQBIEqMASBIZK6wEQJIYpXZA/j6zSTHM0AASptubq5jFSiRkZdUASCqDVPoSFS9HxRkYQOL0q34miyneOAMDSJx+r67uj93QHfa/Pmz+AtX05iAvSMWaF0BiFXx4/YbbTobdu6lJvDmYwrQ9p1ukkJE6dCrQHwFEp2XpVRIFACSJjFSiVIF+OPRMAyo1Lt2KV8AB4mY7huf42qgBBZQpACDKDEp3kiow7o5wL/kwk5VUVypTogCAKDEk3cigQD8cxg+iTh6EPCSDwlTZtAK3gExh1p+h6Q7ReBRIqMBld/bLQQPkIQnVpaq2FTh7j7ETV0AIs9o2Kq1Pp8AjQJjNSqcvNbWtwO3Lb3dnOZGst21YWp9AgRvvcRdiXaomF0kgMlU0q8DrV6ffnAaIF2nWtjQ8VoFX3uOhByEXiVWZ65tU4AEc84Awo9WkjWl0hAIzh27MHrjMNvgIsbm0LQVmvMesByFhb8u+tDZGgeVD/xaP7CdhjxGea1tQYO3Av9VvWgBJC2amjUEKLIRWl/pWAXGzWl9+f+v4SlGQDbioUgU84FjNQW67BiSVGppmyRXwhEMECJ5EbgeuqFABARxiQICkQoPTJH8FhHAEAQIk/vagZEUKBJ6+75Wkz3WTjY0VDQCaMqNA3IHiUYDgTRiVVSsQEFK97k80IA6Sce/W7vTEVHDVw8VQ4+K8xq1QSQC5VMhUsKExWGVX04Fx6V5SQAClylFjoFHpwcgKyB0o4/+wCm9gkG7RxXxgFAHkVjIXfgHLFqNI0T376dN2BT9zlyXE8rHICzCuw3w2zEczO2XOIIwd7k//utPOgbHFtx//B/xwmqFPhvMsAAAAAElFTkSuQmCC;" vertex="1" parent="1">
          <mxGeometry x="38" y="614" width="65" height="65" as="geometry" />
        </mxCell>
        <mxCell id="aXy_L43vjC-4vkgIH09A-85" value="" style="shape=flexArrow;endArrow=classic;html=1;rounded=0;fillColor=#d5e8d4;strokeColor=#82b366;" edge="1" parent="1">
          <mxGeometry width="50" height="50" relative="1" as="geometry">
            <mxPoint x="108" y="645.8299999999999" as="sourcePoint" />
            <mxPoint x="219" y="646" as="targetPoint" />
          </mxGeometry>
        </mxCell>
        <mxCell id="aXy_L43vjC-4vkgIH09A-86" value="人" style="rounded=0;whiteSpace=wrap;html=1;fillColor=#dae8fc;strokeColor=#6c8ebf;" vertex="1" parent="1">
          <mxGeometry x="222" y="504" width="53" height="30" as="geometry" />
        </mxCell>
        <mxCell id="aXy_L43vjC-4vkgIH09A-87" value="数据实体" style="rounded=0;whiteSpace=wrap;html=1;fillColor=#dae8fc;strokeColor=#6c8ebf;" vertex="1" parent="1">
          <mxGeometry x="222" y="546" width="53" height="30" as="geometry" />
        </mxCell>
        <mxCell id="aXy_L43vjC-4vkgIH09A-88" value="字段" style="rounded=0;whiteSpace=wrap;html=1;fillColor=#dae8fc;strokeColor=#6c8ebf;" vertex="1" parent="1">
          <mxGeometry x="222" y="588" width="53" height="30" as="geometry" />
        </mxCell>
        <mxCell id="aXy_L43vjC-4vkgIH09A-89" value="操作" style="rounded=0;whiteSpace=wrap;html=1;fillColor=#dae8fc;strokeColor=#6c8ebf;" vertex="1" parent="1">
          <mxGeometry x="222" y="631" width="53" height="30" as="geometry" />
        </mxCell>
        <mxCell id="aXy_L43vjC-4vkgIH09A-90" value="流程" style="rounded=0;whiteSpace=wrap;html=1;fillColor=#dae8fc;strokeColor=#6c8ebf;" vertex="1" parent="1">
          <mxGeometry x="222" y="674" width="53" height="30" as="geometry" />
        </mxCell>
        <mxCell id="aXy_L43vjC-4vkgIH09A-91" value="关系" style="rounded=0;whiteSpace=wrap;html=1;fillColor=#dae8fc;strokeColor=#6c8ebf;" vertex="1" parent="1">
          <mxGeometry x="222" y="717" width="53" height="30" as="geometry" />
        </mxCell>
        <mxCell id="aXy_L43vjC-4vkgIH09A-92" value="通知" style="rounded=0;whiteSpace=wrap;html=1;fillColor=#dae8fc;strokeColor=#6c8ebf;" vertex="1" parent="1">
          <mxGeometry x="222" y="759" width="53" height="30" as="geometry" />
        </mxCell>
        <mxCell id="aXy_L43vjC-4vkgIH09A-94" value="" style="shape=flexArrow;endArrow=classic;html=1;rounded=0;fillColor=#d5e8d4;strokeColor=#82b366;" edge="1" parent="1">
          <mxGeometry width="50" height="50" relative="1" as="geometry">
            <mxPoint x="288" y="646.26" as="sourcePoint" />
            <mxPoint x="376" y="646.26" as="targetPoint" />
          </mxGeometry>
        </mxCell>
        <mxCell id="aXy_L43vjC-4vkgIH09A-96" value="" style="shape=flexArrow;endArrow=classic;html=1;rounded=0;fillColor=#d5e8d4;strokeColor=#82b366;" edge="1" parent="1">
          <mxGeometry width="50" height="50" relative="1" as="geometry">
            <mxPoint x="438" y="646.1899999999999" as="sourcePoint" />
            <mxPoint x="526" y="646.1899999999999" as="targetPoint" />
          </mxGeometry>
        </mxCell>
        <mxCell id="aXy_L43vjC-4vkgIH09A-98" value="" style="shape=image;verticalLabelPosition=bottom;labelBackgroundColor=default;verticalAlign=top;aspect=fixed;imageAspect=0;image=data:image/png,iVBORw0KGgoAAAANSUhEUgAAAMgAAADICAYAAACtWK6eAAAAAXNSR0IArs4c6QAACjtJREFUeF7tnVt21DgQQK3OmQybmAyfySpIVkaysjSrgE9gNsHj0JpjhwDDJO1SVUltqW5+KcmqW3WR7Xa702T8e/vyxXXK+fUyTc7XxukYDgE7gZT2Oec3Vx+/3FonS5YJ3l6c36ZpepCDPwhskECepjuLKGpBkGOD3cCSniRgkUQlCHLQib0RyLvdzdX7T/vSdasEeXdxnksPRDwETkogpf3lh883pWsoFmS5KD8c7ksPRDwETk1As4uUC8KF+anrzPGVBBBECY5hMQhoLtbZQWL0BlnOH9MpbvkiCK0ThgCChCk1iWoIIIiGGmPCEECQMKUmUQ0BBNFQY0wYAggSptQkqiGweUE0H9RoQDBmXAKWJzkQZNy+ILPvBBCEVoDAEQIIQntAAEHoAQjoCLCD6LgxKggBBAlSaNLUEUAQHTdGBSGAIEEKTZo6Agii48aoIAQQJEihSVNHAEF03BgVhACCBCk0aeoIIIiOG6OCEECQIIUmTR0BBNFxY1QQAggSpNCkqSOAIDpujApCAEGCFJo0dQQQRMeNUUEIIEiQQpOmjgCC6LgxKggBBAlSaNLUEUAQHTdGBSGAIEEKTZo6Agii48aoIAQQJEihSVNHAEF03BgVhACCBCk0aeoIIIiOG6OCEEAQQ6FneIbhDC0gcPX+074g3C0UQRQo3/Lb7Qpq9iHzzwlMu92+pSwIUlC3Bda3b6+nlNg5Crh5h2p+d0O7BgQpIPfu4jwXhBNakUArSRBEWEROq4SgGoa1+AUxBBEWlN1DCKphWItdBEEEBbVAEkxPiJZAzvvLf77eaIdLxllqrxE4SRb1a4zl1MZrC7asoTRf4ssIXH78UtxTJUdAEAEtCyTB9IRoCbCDTJPlf2+3HWS+vXs43GvryLg6BDSnMKUrsfznqFlf8Xa4BUFmqFykl7ZW/XhNA5auCkGExCyghIcgrIBACznm5VjqrlljtzvIsov89cc9n6IXdHHF0NoX549LR5DCIlpO+QoPRfhTBHLe57Ozu1bPYyGIsg0XUXJ+xY6iBFgyLOflSd6WYrCDlBSI2LAE2EHClp7EJQQQREKJmLAEECRs6UlcQgBBJJSICUsAQcKWnsQlBBBEQomYsAQQJGzpSVxCAEEklIgJSwBBwpaexCUEEERCiZiwBBAkbOlJXEIAQSSUiAlLAEHClp7EJQQQREKJmLAEECRs6UlcQgBBJJSeiZnhTYfD9fLFKf6OEsgpvVkCGr+d3VoWBFEQXKDxlncFuYchmpcZqA9mHIgghQD5TnohsCPhXu8t81vR/2dCkAK6yFEASxLa4M2IkmUci0GQAoK8PK4AljB066dbCCIspAWU8BAxwza+i1jqrpG/2xfHcXpVz99WL4HTZIAgQmoIIgSlCNvyxTqCCAuKIEJQijB2kJ/Q+j3F4icQFK0vG4IgAwgyp8DLq2UNXxKluZAtmd8ayylWAUELrILDxAnd+B2suRCWmmvk7/YU67FruRZx8rcDORBEWWuexVKC+z5M8z+r7Yj60ewgenbL9js/zWuYItbQ3W75GYNWv+3hARdBPCgyx7AEEGTY0pKYBwEE8aDIHMMSQJBhS0tiHgQQxIMicwxLAEGGLS2JeRBAEA+KzDEsAQQZtrQk5kEAQTwoMsewBBBk2NKSmAcBBPGgyBzDEkCQYUtLYh4EEMSDInMMSwBBhi0tiXkQQBADxeVx9/mPR94NFAVDT/jCawQR1Of3EL5VqIDmMGT+olXrt8MjSEHh+CZhAayKoS2/kYggBYXk3bwFsCqHtnrZHIIIC8lplRBUw7AW79NCEGFB2T2EoBqGtTjVQhBBQS2QBNMToiXQ4NVBltprBO7yvVicXmk7uPI4BJkmS3N6XchZ/hep3CKxp0cQBIltwPHsNacwpTwt/zlq1tflKdYMlYv00taqH69pwNJVIYiQmAWU8BCEFRBoIce8HEvdNWvsdgdZYF2c36Zpel1QR0IrEWjxGQiCKIqHJAponkNy3uezs7tW7/dlB1EWbxEl51fL8JR4gbWSo2hYzstLr1uK8bguBBFViKCoBBAkauXJW0QAQUSYCIpKAEGiVp68RQQQRISJoKgEECRq5clbRABBRJgIikoAQaJWnrxFBBBEhImgqAQQJGrlyVtEAEFEmAiKSgBBolaevEUEEESEiaCoBBAkauXJW0QAQUSYCIpKAEGiVp68RQQQRISJoKgEECRq5clbRABBRJgIikoAQaJWnrxFBBBEhIkgLYGlwXJ+eFVSzqFebhHuvVjaJok6LvorkhAkaucL8o4ux7JhTtPd1ccvtwJcP0K6frNiSaKRY5HjofoIEtmCI7nzom8EQY1nCFju+owGlR1ktIo65MPp1U+ICOLQUKNNgSAIMlpPu+aDIAji2lCjTYYgCDJaT7vmgyAI4tpQo02GIAgyWk+75oMgvwiy292U/hIWn6S7tuP2JkOQnzXR/I4igmyvp11XZBIkpeWn1pr+VXrCWPMZyJw3gjStfvuDWQTR/I9rydCy1mPH1cqBIJZqdjLW0nQtBbGs82gpUtpffvh8oy0XO4iWXCfjLI3XShDLGmvKwQ7SSZNblmlpvhaCvPv7z/sa32y0nFb9ypsdxNJ9HYzdqiA/vvpb4aLcSw52kA4a3LrELQpS8xF8TzkQxNp9HYzfmiCW9azhzooPAtfm5BRrjVDn/25pSO9rEMtaal+MPzc/gnQuwNryLU3pKYhlHaeSg1Oste4a4N8tjeklyNbvVB0rMzvIABIcS+GUgvRypwpBBpdgi4JUvVNV4WKca5CgkpxiB7Ecc+16I6d0V/rIuqX0nGJZ6HUw1tKsmmsQy/HW5LA8U6UtFYJoyXUyztKwpYJYjnUMp/eHfyWlQ5ASWh3GWpq2RJCe71Rxkd5hY3stubYgI9ypQhCvbutwnpqCjHKnCkE6bGyvJdcSxDLv2sV46ztVCOLVbR3OY2nk565BLHOuyXGKO1UI0mFjey3Z0sxPCWKZb6t3qhDEq9s6nMfS0L8LMuqdKgTpsLG9luwhyOh3qhDEq9s6nMcqSIQ7VQjSYWN7LdkiyPwJdpqmh5+M9vwzvorHcylrc/FJ+hqhzv/dIkiV1DuSY84fQap0wXYm3ZIgp3ymSlsRBNGS62TcVgTpUQ52kE6a3LLMLQhS420jFiYlY9lBSmh1GHtSQVLab+mxEU35mgoyneJ1+hoqo42p8PbCVUSdXYw/l09bQVapEjACgV6vN55ijyAjdOSGchhJjuYX6RuqI0upQGA0ORCkQpNEnbLnO1XHasYpVtSO9sp7gDtVCOLVDMzzXwKD3KlCEBrbncCI1xs+d7FevrhOh8O9O3Em7IZAFDl0F+kI0k0j11hoJDlUgsyDan31skZBmdOPwKh3qlyvQebJan7LzK+czORGIMDF+HOsim/zPk7ELuLWftueKLAc6lOsx4qe9EnRbbfVEKuLdr3hchfrqUkWUVJ6VeMH4YfotJ6S+P7Ede+PqXsh/xcpSH5ul4EleAAAAABJRU5ErkJggg==;" vertex="1" parent="1">
          <mxGeometry x="385" y="623.7099999999999" width="44.58" height="44.58" as="geometry" />
        </mxCell>
        <mxCell id="aXy_L43vjC-4vkgIH09A-99" value="" style="shape=image;verticalLabelPosition=bottom;labelBackgroundColor=default;verticalAlign=top;aspect=fixed;imageAspect=0;image=data:image/png,iVBORw0KGgoAAAANSUhEUgAAAQMAAADICAYAAADsiYQIAAAAAXNSR0IArs4c6QAAEHRJREFUeF7tnel13LgSRiknNnYQHiegPDSThxJ4M0HYTsx6B2pzxGazidqw9u1fPhaWwleFywJIgk8LPxRAARRYluUJFVAABVAgKQAMiAMUQIF3BXQw+Pf587IsL2iHAijQQIFfy8/3Xj8tP5avrz+iLcjDYAXA25JAwA8FUKAXBd6Wv5dvr39FmXMOg/89/7U8kQlEiU07KBCuwNN7lvAlot37MAAEEfrSBgrUUeBp+eJdOhzDABDUcSC9oECkAn++5pf9J/0dV/7n+S3SRtpCARSooIBzyXALA7KCCl6jCxQopIBjuXALA7KCQl6iWRSooIAjO7iGAVlBBW/RBQoUVsC4dwAMCvuF5lGgugLGpcI1DP59/r7wcFF139EhCoQqAAxC5aQxFBhXAeOTiWQG47ocy1HgWAFgQGSgAAq8KwAMCAQUQAFgQAygAAp8KEBmQDSgAAqQGRADKIACZAbEAAqgwE4BlgmEBAqgAMsEYgAFUIBlAjGAAigw0jIhrWHSia78UAAFtgq8FHkXqOs9A+OLE8QNCkytQKkXA4HB1GHD4GZUABjM6FXGhAIGBYCBQTSqoMCMCgCDGb3KmFDAoAAwMIhGFRSYUQFgMKNXGRMKGBQABgbRqIICMyoADGb0KmNCAYMCwMAgGlVQYEYFgMGMXmVMKGBQABgYRKMKCsyoQKkvmPE48ozRwpimVgAYTO1eBocCcgWAgVwrSqLA1AoAg6ndy+BQQK4AMJBrRUkUmFoBYDC1exkcCsgVAAZyrSiJAlMrAAymdi+DQwG5AsBArhUlUWBqBYDB1O5lcCggVwAYyLWiJApMrQAwmNq9DA4F5AoAA7lWlESBqRUABlO7l8GhgFwBYCDXipIoMLUCwGBq9zI4FJArAAzkWlESBaZXIAEh/Z6Wl7CxcrhJmJQ0hAJtFEhg+LT84f4yMzBo4z96RYFwBbzZAjAIdwkNokB7BSz7CsCgvd+wAAWKKaCBAjAo5gYaRoE+FPj3+fPya/mc3WwEBn34CytQoLgCuSwBGBR3Qd0O1qtA2l3+tfx87/zT8mP5+vqjriH01q0C96AADLp1mc6wBIFleTm9vWR0ts4QSg+hwBEQjPHxdDXgUp97elq+cEUThFYu/ds2YXS4wAqKrApcwHz9S2v2lKFtfz1ka9vYMcYGMOgl9DUgWG02Or2XIXdjx3ZJlox6W24hIDH2afnx35Iulf/2enm6sNZvjSFjXACDWo7K9fPP81uuyOHfybr0sq1LMc/El/a6BUQNOKwPLBn6AgZSp5YsZ8kKVntSsH19/VLSvCnaluzF1Bhoumq3yBoEYwMGApGKF7FmBathf75e+7G4wYN00AsA7smVwNDRHSJg0ENce2HAUuHai71DYB9znWQLwKA1DFLgvi3fXWYAg4t8o0HgyOnGzT9X/PyuDAwiVPS0AQw86n3ULXVbPMY6XSuNgAAMdG6KLw0MfJp6Nl99PZevXRkKwEDj0vV+9LaO4RbOVZfAQOOBbSaQf1LT1nJ/tSpBARhIXJ+7+nicBQwkHrguk/OHvsX+a3hiTDg6YJATSroWtd7vBwY5D1z/XeoPXatjlLbGmHB0wOBMKG3gWZwFDGShOsOdAtlI86UKZQnA4J701lRUCwRgkA/+CI3yvYxVogAQgMG9EPA8CKS57x8R6Jr+xgr5y7MD3ucwRhuz1N5gIACDI+GtWcHalmZyRgS7pj9poPVQzuuHHsZQ2oZAIACDMjCQvzwEDI6nCyCQYyQICMDgSHLtxuG+Dc2+ATC49QAgkINgLRkABGAADPSBV7JGBBxL2tdz204gAANg0Fd4ezZu+xpJG2sc+0djw2A9oy6dS7f+vI8Hp3ZYJrQJZK/ubazur1fj+RZjwiD3AIr30AhvULJnoJ8g7BPoNbtXQxN/mzbGg4EmaKxrKGAQF5iSljQ+lbQ3epk0mZffx6NtT17WfJDVEPtjwcASNAZRWCZUnk3sE1wE12S0krmg3D8YCwbWoNGuocgM6tFAEtT1rGnXk3Livhuau/OiXC6MAwNP0ChFITOoNCc8Pq1kYpVuLCDYGnZ28VJkxuPAwJoVJNGAQZWYVnfi8am6s04rKCbr3RHkMgRhZvwYMLgAQf6JN5YJ5WcOWcFljyDiVnjy1pmewovhGDDIkU8SusBAolK9MmQFyyK8YoudcnYRE8Q/MDhSmsxAHH+mgmQFsVnB6oRzGGRfngMGwMA0n12VyApKweD87IdMdgAMgIFrXqsrkxVcJBOk7WptU4Uz0Gb2DoABMDDFnLkSWcFFuuj9gtUhOX1P+gUGwMA8r9UVyQo+JGuRGaTeT+5gAANgoJ7T5grAoD0MTpYKwAAYmOe2umIuhVU3OHCFyGcMVhmksL2TlQADYFBnRkkDtY417XsRPgikMlSq8Z2+gQEwUMWbubA0UM0dDFgxet9AmnkBAx5HbjpdpIHqNfJyFsDH721zCpa37ej6kdmBFrYHICIzIDOIDvHb9iIeJ89ZuR4Isj0MRLuWzvVR4u8RewdaEKRxAIPX66vGPefyOHJs2FuCVWOBNN0ubYfG5uvsxf7CknVMB1kJmQGZgTWE5fW8cD3rSQqC3rMES4ZgBcElM7h5VwEYAAP5pLaWLLVfYJlAaQwl4WTVSDqWtORKp4E/LS/Wrv6rtwMpMAAG7pg6baDUfoF08hz7t7+Pue4fE07AOvpFbogCA0Hse68cml3iiMmiTZUFEoQV8aSyZ0Z4YNBbdrAfSynN9nru+iUzIDMIm/eHDZUKbO+LPl7gR6nWCgQH+wbAABhEhfVxO8DgXN+j5UHkUuB88/VqExEYAIOyMCh1BfZmBqUgpVGzZVZAZsBzBppYDSlbCgbefZJSdzg0ou2B1sKmjQ1kBmQGmvDVly0V4JpN2r3VEZu2eiWua7TOClZrgEHGk96rmSZQIwLTe5X0BvZZ/VIwSH1alwqtlwh7EETEgNWHwAAYWGNHXa8kDDTQ3RreGgZ7iLW0BxgAA/WktlYoCYNkk/V5g1YTsJflwerPTVbJngF7BtZpLqtXGgae5UKL9LyHTcOt58gMyAxkMzmgVGkYHK2/r81+Wdb79veyiFpZQm9ZwQ6kZAZkBgEz/qSJ0jDQXmlbAeGo39LaSDxLZkBmIImTkDLeOzNnRniutEd3YNKyYVk+MokQAX430tOm4cMvEzS3obwBrNnUili39nxr0avlvQm5v5Ng0bFWluCBViSQjtoaLjNIg/CmVDoY+F5x1cAgjc07YTRjKx1c+/a9Y7tnb9QEqwEE7VKmlo92QB1jz8A7YfST0wcD7eT0TBjt2GoF2tpPic25KBBstSgFhRK2RvlwyFeYLzCwT1Dt5PTAxzI5a48tKpgk7XjGdq/9UlfaaCD0umm46josDNIALFcZy+RcxdJesa1PxLUYm2QiR5SJhkHpK+09H1pib7+XY2kjwgfCpdY4ywRL2ukBwZqNSHeXz47qljpUEyzesUltiijn2e/Zfwfh6+uXK5M8bZ+NzZsllIZWhF+GPPZsP/A0adLv3qGQERNz22dukkZOzNpjiwiqXBuWDGtZ/l6OvoGg8UvOrtzfNUBYofVr+fne7LfXS4yuv1LQyo3h7O+75dZ4mcE9MKT///T7azq5ILIKuE7UtX7qr1Rf6ym4277Sv0v1Z9VEUk8DA81Sq9YEu/dMQjqlWBIDuYuJRMPoMsMelR4tBO3VVUC6b6ABQRqBBjLeEXuzv96AcDCe8TMDr5OpX14BOQy+qDIfabtRI5wJCMN+Xi3KmbTTToHcVVybFawjybUbPWIvEGrbe2/8B7fbyQyig4X2jhXITQLrJKudHVieWdkqUtveI2/c0RoYMHnrKJCbBCPAwGrjXuEcGEt7BBiUVpj2swqcTQLry1Y5yGSNUhSIgkHrzcQ72Q2ZgSIWKOpU4GwSWCdazYllBdZtZmB/tN7pgrNj4oCBV1zqyxU4u4pbNxBrPWuQRundL/jY9AQG8qih5LQKRC4VamYFM8Agk32RGUw76zodWG6NL03Fc+2UGL7UtlzftSG22gMMcp7h79UVyO2m5/YPWoAgiZSzSypkKxhkljlkBlIHUi5OAclkThMv/db3TT56L3NGoWR01n2Nfds19zmEWUEqBgwkQUCZeAVy2UF8jzEterODFlmBEGJ1YLBSPsYdtFJLgdur8nHPljcpJdlBrXFq+7HuHbQAgWJ5UwcGWrEpP5YCwivPzaBaTY4IdbUZQquxKuwEBhGBQRtpwal743DVrMX6OcpfkolW8lsMknEono0ABhJBKZNXwJodjLxc2G7O9bbZqVgerMMABvkwp4RUAWt20CqFlo5rxHKSrGU3LmAwoqN7tdmaHaTxjHp3oVdfKJYHZAa9OnF0u6zZwQzLhV58Z8gKkulkBr04cBY7PNkBywV/FBhBAAz80tPCkQKOgDR9KAcvXBTw6E5mQBQVU8C6XEgGkSHo3eIEAZmBXnJqSBXwLBcAglTlSzmv1r97Y89AJzulNQp4soPUD3cY8moHgYDMIC81JbwKGG5xXXXJkuG+BwJBAAy8gU79vAIRAQsQbnUO2CPYN7pfJrQ7my0fVpQYVYGIwAUIH96P0PMglq5hkAqM/OLIqJPlEeyOCGCA4L59eBZqtzBA8EeYmm3G6N1QXK1+xI3Fyyff85+pd3j2FgZkBw45qZpVwLuhuHbwSBetiKwq65j948gf5GXvQCAeRQwKRGwoPgoQKmQDWw8eZwapxCOR1xDTVHEoEAmEWWO1UjYgg0EqxZtkjoin6qkC0UCYBQqVswE5DB4lHWPetlGgBBBGhUJDCKzOv79MOAqPlCn8Wj63iRx6nVKBdAKz5XRliRgjLHU7gIANBhIHUAYFelMgQSH9npaXLkzrCAD6ZUIXCmIECgQo0AoMnQIAGATEFE1MoMB22RudNaTJ/2v5+f55uFLLoGAX6PYMgjunORToToGjfbFPyx937UwTPv3Wr08NMvGPxgMMuotGDEKBNgoAgza60ysKdKcAMOjOJRiEAm0UAAZtdKdXFOhOAWDQnUswCAXaKAAM2uhOryjQnQJzwuDyGezLj8enuwu6IgYNdD+/yPgDGp0HBhcAvCxvvDsREBdjNrE+6PPt9fL4MT+VAnPAYIQXUlRuobBbgXQeQPoBBrGU48PgEc/DE7uXgu8KAAZRIIwNA0AgcjKFNgqsSwmyhpuwGBcGLA2Y41EKbAGxvmOQ2h74PQOLNGPCABBYfE0djwINziT0mGupCwwsqlHnMRWI+u5Dp+qNCQO++tRpOE1uVqkzGzuRbTwYsEToJHQe0Axg0JnTgUFnDnkwc6K+CNWhbGQGHToFkzpWABh05Bwyg46c8YCmAIOOnM5XnjpyxgOaAgw6cjow6MgZD2YKG4gdOpzHkDt0ygOYNPmDR+NtIKaYIzt4gJnX4RAnXiIktceEwQUI3zm7oMMJM6tJk2cFo8Pg8/K2fJ819hhXRwo8AAjGhgHLhY5my8SmTL5puPXcuMuEdRTsH0w8ExsP7UEyglXl8WGwjoSHkRrPnIm6H+CLySXUngcG20xhPRH57IOZJdSkzdEVuJyb+GCHmsyXGYwehtiPAo0VmC8zaCwo3aPAqAoAg1E9h90oEKzA/wG0N6tu89UPRQAAAABJRU5ErkJggg==;" vertex="1" parent="1">
          <mxGeometry x="532" y="620" width="67.34" height="52" as="geometry" />
        </mxCell>
        <mxCell id="aXy_L43vjC-4vkgIH09A-100" value="拆解" style="text;html=1;align=center;verticalAlign=middle;whiteSpace=wrap;rounded=0;" vertex="1" parent="1">
          <mxGeometry x="122" y="614" width="60" height="30" as="geometry" />
        </mxCell>
        <mxCell id="aXy_L43vjC-4vkgIH09A-101" value="组织" style="text;html=1;align=center;verticalAlign=middle;whiteSpace=wrap;rounded=0;" vertex="1" parent="1">
          <mxGeometry x="292" y="614" width="60" height="30" as="geometry" />
        </mxCell>
        <mxCell id="aXy_L43vjC-4vkgIH09A-102" value="渲染" style="text;html=1;align=center;verticalAlign=middle;whiteSpace=wrap;rounded=0;" vertex="1" parent="1">
          <mxGeometry x="444" y="612" width="60" height="30" as="geometry" />
        </mxCell>
        <mxCell id="aXy_L43vjC-4vkgIH09A-103" value="业务需求" style="text;html=1;align=center;verticalAlign=middle;whiteSpace=wrap;rounded=0;" vertex="1" parent="1">
          <mxGeometry x="40.5" y="677" width="60" height="30" as="geometry" />
        </mxCell>
        <mxCell id="aXy_L43vjC-4vkgIH09A-104" value="产品描述语言" style="text;html=1;align=center;verticalAlign=middle;whiteSpace=wrap;rounded=0;" vertex="1" parent="1">
          <mxGeometry x="368.64" y="668.29" width="77.29" height="30" as="geometry" />
        </mxCell>
        <mxCell id="aXy_L43vjC-4vkgIH09A-105" value="数字化产品" style="text;html=1;align=center;verticalAlign=middle;whiteSpace=wrap;rounded=0;" vertex="1" parent="1">
          <mxGeometry x="530" y="672" width="71.33" height="30" as="geometry" />
        </mxCell>
        <mxCell id="aXy_L43vjC-4vkgIH09A-106" value="" style="shape=image;verticalLabelPosition=bottom;labelBackgroundColor=default;verticalAlign=top;aspect=fixed;imageAspect=0;image=data:image/png,iVBORw0KGgoAAAANSUhEUgAAAMgAAADICAYAAACtWK6eAAAAAXNSR0IArs4c6QAADGhJREFUeF7tnU2W0zoQRu1sjGYIbODBPOuArIM5sAFg2GFj8TuWk07SHdsq/Vmquhm8cx4ty9JXuq4qSZb7boPf9//+Prnb7k5P3bB7d23CMP07P+MK9EcnQH/6dxFi/+PTty1E6Uvd1EHRd1+n+wFCKd3V3acfDmOfSgGTFZArFAChbqDW0KECsGQBBDBqGD3G2tAPhxxeJSkggGFsUNbY3cSgJAEEMGocKYbbNIZep91x/+vDlOxH/KIB+f7l97du6M/Jd0RLuBQFUiuQwJsEA4LXSG1N6sujQH/c//zwPrTuIEAmOIbn0JtyHQoUVyDQm4gBIaQqblpumEqBAEhEgABHKktRz2YKCCHxBgQ4NjMpN06tgAASL0CAI7WFqG9zBTwhWQUEODY3JQ3IpcDQv19bK1kH5POfIVf7qBcFNldgBZJFQL5//vvMztvNTUgDsiqwvE4yCwihVVarUHlNCizkIw8BYSGwJuvRliIKzIRajwFhf1URm3CTmhR4HGq9AYTQqiaj0ZaiCjzwIm8BYdaqqE24WU0KvPUid4DgPWoyFm3ZRIFXXuQeELzHJjbhpjUpcO9FXgDBe9RkJNqyqQI3XgRANrUEN69TgasXuQJCeFWnrWjVJgrsf350bLj/EF5tYgNuWrMC5zALQGo2Em3bUIEpzJoAIbza0BDcuk4FAKROu9CqehQY+vc9+Uc99qAllSkAIJUZhObUpUA/HPAgdZmE1lSlQH/seWtwa4ucPxbjJt2vH4y5a9XLR4b4jERZawFIQb37owPgtHMHKq8dFrDUMPdC2/h1rvHn4AGcPIZ0gHAoQy5xu6GbvoaU4JTxtTa+QMNB4mtSif4OICK51gr3x5JQzLUGWNbs5P93APHXaqHkBEYJTyFtrpvGd6EYn6iQaufSQkKsENku19QLxute4VXC7AwgQbrFfXMi6JYJL2Jx2F9MAPHXanS41YZSom6wg9tbLgDxlcrjHFffqmoqhzdZtgaArI7WtsOp1e6N3sR9Maz7ynrKW7UAZGkEeR6R7zMIWyiDNwEQz3FaNtdwT/Db32WVfPy3BCvvnp12xYDkXi08yJvRkzekuk63hm4ROW9ZOcOTY+2Fs5mvgwJA7gBJD8c1vh9vlGnPVD8cRk+TGhY2srJQePOoGA77H5+mVecEv80S38R5k3VI8CAjDAkH1RTDh4ZPCci8VJGyT4Y/pAQgiQZStcltqv4ZhcQ4IPE5x2ahlNTZJADF4r49w4AkgKO1Dw1FQmJxdsssIJejJaUPYrdW0PrKcwQo1iCxCUjMAGnNa8w9AdDA69loDxAGRpKpbSvTv+YACQ2tqp2l8noOLhQKfGBYCbVsARI6GLSEVbOchE1YWIDEDiDAsexrQvVRvj5iBpCQ0EptWJUwcdfuRWwAEvB01G74+WhLvidNc8JuApAg76E8dFiMtwJeL9a6yq4fkBDvoT4pX5v6kiftWr2IekCk3sNc3pEoH9EakuoGJMR7cFbxFRlhqKXRi6gGBO+xFkqt/V0Wamn0InoBwXusjX6/vxv3IgByHibkHrPJiPscsh9Nl53Ow7Nv+drLqQVEHF6Re8yPVYEX0RZm6QREGF7hPdae48JcRNEakk5ABE889wIU3mONkPH7Iu99jxXS5EVUAiIJrzQZc32Ux5Tw9yKaNFUIiL8hnfcwv2ruC41QVyVeWR8g0vxDiSF9h3lUOUmYpSQP0QeIxIh4DxkvgoePljBLHSCi/ANAZIB0/mEWgAilLVUcQPIqLdJXQfiqzIP4P+GY3g0ESRLCAkigyLkuE8TIABJoBBEgf5+zffIhsPnSy3R5EAEgWmJkqcGjy0s0VjCTpQsQydONBD2QFf8wVsMaE4AEDhO7lwFIu7bHgxSwHYAUEDnTLQAkk7C31QJIAZEz3QJAMgl7X63vWoiGiRBykCJDStNN8CDtWhMPUsB2AFJA5Ey3AJBMwpKDFBC2wC0ki1juM2p6DhcooO75FniQclqnvhOApFb0bX0SjRUsxupK0gXGGy3Pu+gBPAk01nDSoi5ABO8rAEgAHOMlkjyPvViBIme7zD8+ngBpf7dpNilnKvZdA9HyAFLmQbpOZkAAkQLmq6+GRcJRG3WAiEIAZrJkfEjyDwUJunlAtIQBslEeURpAIsSr5lLykFym8A2vNOV3+kIs6UwWYZYfTwLvockzKwRElqhrMqbfSA8sJQBEw5uEF5VUAiJJ1DWFA4FD3+syUXilJEHXmaQ7cwvzEMKsZUgE3kObR9bpQYQrvniRZT6seg/FHkS2JcIBghd5TInUeygKr3QDIgyz8CKP+ZB4D23hlXJA8CJe2fdSIePeQz8geJEoRqx7DwOAyL2IxjAhiBK8xzQfqv+lIdmULwn7OCqGw/7Hp28SsLSOIwOABHoRZbMx/oM94IGiWCsbgATkImZntQRvDF6g0+o9jIRYZzMGGN4cJAEaadp39cjLGvEg8u0nL09HKwuIAXmHhQkNQ4CEQ6Lek4TCoTj3uDwgjQESlrBfY22F77ADx+L8hT1AOvn7IrcKqjoJJSDnsJCY39rbJCDS7fCvHzHtJ6b9sRu6w/7Xh6P/9O+1pKqHxIoARgEJWwy78yStxt+BIdWL52i13yFPAhsr6QvKRA4Wl7w3M2DivEZbfQ2k4cFldj3IyzSFfFtFcyGXqQdBOjhsLRQu6RaRrNYddsV7Dauew+407xwoqSAZFxZ3p6du6L+mfZZJaksDhoPDykLpjLyEWHdzevHh1ubJbIJwavM+SJ4FmcsCyGuBmx5g8p24c+OrncmHvIQAyCN9E0FSfpClAaR8u/MO8pjaAWROvQSQlB9o8YBYWgT0AQdA1lSKAKUlQKwn47PPSc0vu6yNfe+/B0LSCiB4jfmRgAfxpkS+PaV2QPAa68YHkHWN7ksI1ktqBqR826RC11EeQKR2ABCpYk2XBxCp+QBEqljT5QFEaj4AkSrWdHkAkZoPQKSKNV0eQKTmAxCpYk2XBxCp+QBEqljT5QFEaj4AkSrWdHkAkZpPAoh7l6Ir915If/rne+g06yB+hgcQP52upQSASKsuWR5A/NQGED+dAESqk5LyACI1JB5EqljT5QFEaj4AkSrWdHkAkZoPQKSKNV0eQKTmAxCpYk2XBxCp+QBEqljT5QFEbL74977Ft8xwAW8R+okKIH463Zdq3IuwBuJvdADx1+qmZLtehNdsZQYHEJle96X74eD+4bQL+s5GzK2DrnXbXoanoGuNXgQgRg1Pt/0UABA/nShlVAEAMWp4uu2nAID46UQpowoAiFHD020/BQDETydKGVUAQJIZvj92/elfsupSVrTp165SdqR8XQCSSPP9z499oqqSV8MB5eGSAki4djdX1r2yDiDhRgaQcO0AJIl2dVcCIEnsgwdJImOFlQBIEqMASBIZK6wEQJIYpXZA/j6zSTHM0AASptubq5jFSiRkZdUASCqDVPoSFS9HxRkYQOL0q34miyneOAMDSJx+r67uj93QHfa/Pmz+AtX05iAvSMWaF0BiFXx4/YbbTobdu6lJvDmYwrQ9p1ukkJE6dCrQHwFEp2XpVRIFACSJjFSiVIF+OPRMAyo1Lt2KV8AB4mY7huf42qgBBZQpACDKDEp3kiow7o5wL/kwk5VUVypTogCAKDEk3cigQD8cxg+iTh6EPCSDwlTZtAK3gExh1p+h6Q7ReBRIqMBld/bLQQPkIQnVpaq2FTh7j7ETV0AIs9o2Kq1Pp8AjQJjNSqcvNbWtwO3Lb3dnOZGst21YWp9AgRvvcRdiXaomF0kgMlU0q8DrV6ffnAaIF2nWtjQ8VoFX3uOhByEXiVWZ65tU4AEc84Awo9WkjWl0hAIzh27MHrjMNvgIsbm0LQVmvMesByFhb8u+tDZGgeVD/xaP7CdhjxGea1tQYO3Av9VvWgBJC2amjUEKLIRWl/pWAXGzWl9+f+v4SlGQDbioUgU84FjNQW67BiSVGppmyRXwhEMECJ5EbgeuqFABARxiQICkQoPTJH8FhHAEAQIk/vagZEUKBJ6+75Wkz3WTjY0VDQCaMqNA3IHiUYDgTRiVVSsQEFK97k80IA6Sce/W7vTEVHDVw8VQ4+K8xq1QSQC5VMhUsKExWGVX04Fx6V5SQAClylFjoFHpwcgKyB0o4/+wCm9gkG7RxXxgFAHkVjIXfgHLFqNI0T376dN2BT9zlyXE8rHICzCuw3w2zEczO2XOIIwd7k//utPOgbHFtx//B/xwmqFPhvMsAAAAAElFTkSuQmCC;" vertex="1" parent="1">
          <mxGeometry x="40.5" y="947" width="65" height="65" as="geometry" />
        </mxCell>
        <mxCell id="aXy_L43vjC-4vkgIH09A-107" value="" style="shape=flexArrow;endArrow=classic;html=1;rounded=0;fillColor=#d5e8d4;strokeColor=#82b366;" edge="1" parent="1">
          <mxGeometry width="50" height="50" relative="1" as="geometry">
            <mxPoint x="110.49999999999999" y="978.8299999999999" as="sourcePoint" />
            <mxPoint x="221.5" y="979" as="targetPoint" />
          </mxGeometry>
        </mxCell>
        <mxCell id="aXy_L43vjC-4vkgIH09A-115" value="" style="shape=flexArrow;endArrow=classic;html=1;rounded=0;fillColor=#d5e8d4;strokeColor=#82b366;" edge="1" parent="1">
          <mxGeometry width="50" height="50" relative="1" as="geometry">
            <mxPoint x="290.5" y="979.26" as="sourcePoint" />
            <mxPoint x="378.5" y="979.26" as="targetPoint" />
          </mxGeometry>
        </mxCell>
        <mxCell id="aXy_L43vjC-4vkgIH09A-116" value="" style="shape=flexArrow;endArrow=classic;html=1;rounded=0;fillColor=#d5e8d4;strokeColor=#82b366;" edge="1" parent="1">
          <mxGeometry width="50" height="50" relative="1" as="geometry">
            <mxPoint x="440.5" y="979.1899999999999" as="sourcePoint" />
            <mxPoint x="528.5" y="979.1899999999999" as="targetPoint" />
          </mxGeometry>
        </mxCell>
        <mxCell id="aXy_L43vjC-4vkgIH09A-117" value="" style="shape=image;verticalLabelPosition=bottom;labelBackgroundColor=default;verticalAlign=top;aspect=fixed;imageAspect=0;image=data:image/png,iVBORw0KGgoAAAANSUhEUgAAAMgAAADICAYAAACtWK6eAAAAAXNSR0IArs4c6QAACjtJREFUeF7tnVt21DgQQK3OmQybmAyfySpIVkaysjSrgE9gNsHj0JpjhwDDJO1SVUltqW5+KcmqW3WR7Xa702T8e/vyxXXK+fUyTc7XxukYDgE7gZT2Oec3Vx+/3FonS5YJ3l6c36ZpepCDPwhskECepjuLKGpBkGOD3cCSniRgkUQlCHLQib0RyLvdzdX7T/vSdasEeXdxnksPRDwETkogpf3lh883pWsoFmS5KD8c7ksPRDwETk1As4uUC8KF+anrzPGVBBBECY5hMQhoLtbZQWL0BlnOH9MpbvkiCK0ThgCChCk1iWoIIIiGGmPCEECQMKUmUQ0BBNFQY0wYAggSptQkqiGweUE0H9RoQDBmXAKWJzkQZNy+ILPvBBCEVoDAEQIIQntAAEHoAQjoCLCD6LgxKggBBAlSaNLUEUAQHTdGBSGAIEEKTZo6Agii48aoIAQQJEihSVNHAEF03BgVhACCBCk0aeoIIIiOG6OCEECQIIUmTR0BBNFxY1QQAggSpNCkqSOAIDpujApCAEGCFJo0dQQQRMeNUUEIIEiQQpOmjgCC6LgxKggBBAlSaNLUEUAQHTdGBSGAIEEKTZo6Agii48aoIAQQJEihSVNHAEF03BgVhACCBCk0aeoIIIiOG6OCEEAQQ6FneIbhDC0gcPX+074g3C0UQRQo3/Lb7Qpq9iHzzwlMu92+pSwIUlC3Bda3b6+nlNg5Crh5h2p+d0O7BgQpIPfu4jwXhBNakUArSRBEWEROq4SgGoa1+AUxBBEWlN1DCKphWItdBEEEBbVAEkxPiJZAzvvLf77eaIdLxllqrxE4SRb1a4zl1MZrC7asoTRf4ssIXH78UtxTJUdAEAEtCyTB9IRoCbCDTJPlf2+3HWS+vXs43GvryLg6BDSnMKUrsfznqFlf8Xa4BUFmqFykl7ZW/XhNA5auCkGExCyghIcgrIBACznm5VjqrlljtzvIsov89cc9n6IXdHHF0NoX549LR5DCIlpO+QoPRfhTBHLe57Ozu1bPYyGIsg0XUXJ+xY6iBFgyLOflSd6WYrCDlBSI2LAE2EHClp7EJQQQREKJmLAEECRs6UlcQgBBJJSICUsAQcKWnsQlBBBEQomYsAQQJGzpSVxCAEEklIgJSwBBwpaexCUEEERCiZiwBBAkbOlJXEIAQSSUiAlLAEHClp7EJQQQREKJmLAEECRs6UlcQgBBJJSeiZnhTYfD9fLFKf6OEsgpvVkCGr+d3VoWBFEQXKDxlncFuYchmpcZqA9mHIgghQD5TnohsCPhXu8t81vR/2dCkAK6yFEASxLa4M2IkmUci0GQAoK8PK4AljB066dbCCIspAWU8BAxwza+i1jqrpG/2xfHcXpVz99WL4HTZIAgQmoIIgSlCNvyxTqCCAuKIEJQijB2kJ/Q+j3F4icQFK0vG4IgAwgyp8DLq2UNXxKluZAtmd8ayylWAUELrILDxAnd+B2suRCWmmvk7/YU67FruRZx8rcDORBEWWuexVKC+z5M8z+r7Yj60ewgenbL9js/zWuYItbQ3W75GYNWv+3hARdBPCgyx7AEEGTY0pKYBwEE8aDIHMMSQJBhS0tiHgQQxIMicwxLAEGGLS2JeRBAEA+KzDEsAQQZtrQk5kEAQTwoMsewBBBk2NKSmAcBBPGgyBzDEkCQYUtLYh4EEMSDInMMSwBBhi0tiXkQQBADxeVx9/mPR94NFAVDT/jCawQR1Of3EL5VqIDmMGT+olXrt8MjSEHh+CZhAayKoS2/kYggBYXk3bwFsCqHtnrZHIIIC8lplRBUw7AW79NCEGFB2T2EoBqGtTjVQhBBQS2QBNMToiXQ4NVBltprBO7yvVicXmk7uPI4BJkmS3N6XchZ/hep3CKxp0cQBIltwPHsNacwpTwt/zlq1tflKdYMlYv00taqH69pwNJVIYiQmAWU8BCEFRBoIce8HEvdNWvsdgdZYF2c36Zpel1QR0IrEWjxGQiCKIqHJAponkNy3uezs7tW7/dlB1EWbxEl51fL8JR4gbWSo2hYzstLr1uK8bguBBFViKCoBBAkauXJW0QAQUSYCIpKAEGiVp68RQQQRISJoKgEECRq5clbRABBRJgIikoAQaJWnrxFBBBEhImgqAQQJGrlyVtEAEFEmAiKSgBBolaevEUEEESEiaCoBBAkauXJW0QAQUSYCIpKAEGiVp68RQQQRISJoKgEECRq5clbRABBRJgIikoAQaJWnrxFBBBEhIkgLYGlwXJ+eFVSzqFebhHuvVjaJok6LvorkhAkaucL8o4ux7JhTtPd1ccvtwJcP0K6frNiSaKRY5HjofoIEtmCI7nzom8EQY1nCFju+owGlR1ktIo65MPp1U+ICOLQUKNNgSAIMlpPu+aDIAji2lCjTYYgCDJaT7vmgyAI4tpQo02GIAgyWk+75oMgvwiy292U/hIWn6S7tuP2JkOQnzXR/I4igmyvp11XZBIkpeWn1pr+VXrCWPMZyJw3gjStfvuDWQTR/I9rydCy1mPH1cqBIJZqdjLW0nQtBbGs82gpUtpffvh8oy0XO4iWXCfjLI3XShDLGmvKwQ7SSZNblmlpvhaCvPv7z/sa32y0nFb9ypsdxNJ9HYzdqiA/vvpb4aLcSw52kA4a3LrELQpS8xF8TzkQxNp9HYzfmiCW9azhzooPAtfm5BRrjVDn/25pSO9rEMtaal+MPzc/gnQuwNryLU3pKYhlHaeSg1Oste4a4N8tjeklyNbvVB0rMzvIABIcS+GUgvRypwpBBpdgi4JUvVNV4WKca5CgkpxiB7Ecc+16I6d0V/rIuqX0nGJZ6HUw1tKsmmsQy/HW5LA8U6UtFYJoyXUyztKwpYJYjnUMp/eHfyWlQ5ASWh3GWpq2RJCe71Rxkd5hY3stubYgI9ypQhCvbutwnpqCjHKnCkE6bGyvJdcSxDLv2sV46ztVCOLVbR3OY2nk565BLHOuyXGKO1UI0mFjey3Z0sxPCWKZb6t3qhDEq9s6nMfS0L8LMuqdKgTpsLG9luwhyOh3qhDEq9s6nMcqSIQ7VQjSYWN7LdkiyPwJdpqmh5+M9vwzvorHcylrc/FJ+hqhzv/dIkiV1DuSY84fQap0wXYm3ZIgp3ymSlsRBNGS62TcVgTpUQ52kE6a3LLMLQhS420jFiYlY9lBSmh1GHtSQVLab+mxEU35mgoyneJ1+hoqo42p8PbCVUSdXYw/l09bQVapEjACgV6vN55ijyAjdOSGchhJjuYX6RuqI0upQGA0ORCkQpNEnbLnO1XHasYpVtSO9sp7gDtVCOLVDMzzXwKD3KlCEBrbncCI1xs+d7FevrhOh8O9O3Em7IZAFDl0F+kI0k0j11hoJDlUgsyDan31skZBmdOPwKh3qlyvQebJan7LzK+czORGIMDF+HOsim/zPk7ELuLWftueKLAc6lOsx4qe9EnRbbfVEKuLdr3hchfrqUkWUVJ6VeMH4YfotJ6S+P7Ede+PqXsh/xcpSH5ul4EleAAAAABJRU5ErkJggg==;" vertex="1" parent="1">
          <mxGeometry x="387.5" y="956.7099999999999" width="44.58" height="44.58" as="geometry" />
        </mxCell>
        <mxCell id="aXy_L43vjC-4vkgIH09A-118" value="" style="shape=image;verticalLabelPosition=bottom;labelBackgroundColor=default;verticalAlign=top;aspect=fixed;imageAspect=0;image=data:image/png,iVBORw0KGgoAAAANSUhEUgAAAQMAAADICAYAAADsiYQIAAAAAXNSR0IArs4c6QAAEHRJREFUeF7tnel13LgSRiknNnYQHiegPDSThxJ4M0HYTsx6B2pzxGazidqw9u1fPhaWwleFywJIgk8LPxRAARRYluUJFVAABVAgKQAMiAMUQIF3BXQw+Pf587IsL2iHAijQQIFfy8/3Xj8tP5avrz+iLcjDYAXA25JAwA8FUKAXBd6Wv5dvr39FmXMOg/89/7U8kQlEiU07KBCuwNN7lvAlot37MAAEEfrSBgrUUeBp+eJdOhzDABDUcSC9oECkAn++5pf9J/0dV/7n+S3SRtpCARSooIBzyXALA7KCCl6jCxQopIBjuXALA7KCQl6iWRSooIAjO7iGAVlBBW/RBQoUVsC4dwAMCvuF5lGgugLGpcI1DP59/r7wcFF139EhCoQqAAxC5aQxFBhXAeOTiWQG47ocy1HgWAFgQGSgAAq8KwAMCAQUQAFgQAygAAp8KEBmQDSgAAqQGRADKIACZAbEAAqgwE4BlgmEBAqgAMsEYgAFUIBlAjGAAigw0jIhrWHSia78UAAFtgq8FHkXqOs9A+OLE8QNCkytQKkXA4HB1GHD4GZUABjM6FXGhAIGBYCBQTSqoMCMCgCDGb3KmFDAoAAwMIhGFRSYUQFgMKNXGRMKGBQABgbRqIICMyoADGb0KmNCAYMCwMAgGlVQYEYFgMGMXmVMKGBQABgYRKMKCsyoQKkvmPE48ozRwpimVgAYTO1eBocCcgWAgVwrSqLA1AoAg6ndy+BQQK4AMJBrRUkUmFoBYDC1exkcCsgVAAZyrSiJAlMrAAymdi+DQwG5AsBArhUlUWBqBYDB1O5lcCggVwAYyLWiJApMrQAwmNq9DA4F5AoAA7lWlESBqRUABlO7l8GhgFwBYCDXipIoMLUCwGBq9zI4FJArAAzkWlESBaZXIAEh/Z6Wl7CxcrhJmJQ0hAJtFEhg+LT84f4yMzBo4z96RYFwBbzZAjAIdwkNokB7BSz7CsCgvd+wAAWKKaCBAjAo5gYaRoE+FPj3+fPya/mc3WwEBn34CytQoLgCuSwBGBR3Qd0O1qtA2l3+tfx87/zT8mP5+vqjriH01q0C96AADLp1mc6wBIFleTm9vWR0ts4QSg+hwBEQjPHxdDXgUp97elq+cEUThFYu/ds2YXS4wAqKrApcwHz9S2v2lKFtfz1ka9vYMcYGMOgl9DUgWG02Or2XIXdjx3ZJlox6W24hIDH2afnx35Iulf/2enm6sNZvjSFjXACDWo7K9fPP81uuyOHfybr0sq1LMc/El/a6BUQNOKwPLBn6AgZSp5YsZ8kKVntSsH19/VLSvCnaluzF1Bhoumq3yBoEYwMGApGKF7FmBathf75e+7G4wYN00AsA7smVwNDRHSJg0ENce2HAUuHai71DYB9znWQLwKA1DFLgvi3fXWYAg4t8o0HgyOnGzT9X/PyuDAwiVPS0AQw86n3ULXVbPMY6XSuNgAAMdG6KLw0MfJp6Nl99PZevXRkKwEDj0vV+9LaO4RbOVZfAQOOBbSaQf1LT1nJ/tSpBARhIXJ+7+nicBQwkHrguk/OHvsX+a3hiTDg6YJATSroWtd7vBwY5D1z/XeoPXatjlLbGmHB0wOBMKG3gWZwFDGShOsOdAtlI86UKZQnA4J701lRUCwRgkA/+CI3yvYxVogAQgMG9EPA8CKS57x8R6Jr+xgr5y7MD3ucwRhuz1N5gIACDI+GtWcHalmZyRgS7pj9poPVQzuuHHsZQ2oZAIACDMjCQvzwEDI6nCyCQYyQICMDgSHLtxuG+Dc2+ATC49QAgkINgLRkABGAADPSBV7JGBBxL2tdz204gAANg0Fd4ezZu+xpJG2sc+0djw2A9oy6dS7f+vI8Hp3ZYJrQJZK/ubazur1fj+RZjwiD3AIr30AhvULJnoJ8g7BPoNbtXQxN/mzbGg4EmaKxrKGAQF5iSljQ+lbQ3epk0mZffx6NtT17WfJDVEPtjwcASNAZRWCZUnk3sE1wE12S0krmg3D8YCwbWoNGuocgM6tFAEtT1rGnXk3Livhuau/OiXC6MAwNP0ChFITOoNCc8Pq1kYpVuLCDYGnZ28VJkxuPAwJoVJNGAQZWYVnfi8am6s04rKCbr3RHkMgRhZvwYMLgAQf6JN5YJ5WcOWcFljyDiVnjy1pmewovhGDDIkU8SusBAolK9MmQFyyK8YoudcnYRE8Q/MDhSmsxAHH+mgmQFsVnB6oRzGGRfngMGwMA0n12VyApKweD87IdMdgAMgIFrXqsrkxVcJBOk7WptU4Uz0Gb2DoABMDDFnLkSWcFFuuj9gtUhOX1P+gUGwMA8r9UVyQo+JGuRGaTeT+5gAANgoJ7T5grAoD0MTpYKwAAYmOe2umIuhVU3OHCFyGcMVhmksL2TlQADYFBnRkkDtY417XsRPgikMlSq8Z2+gQEwUMWbubA0UM0dDFgxet9AmnkBAx5HbjpdpIHqNfJyFsDH721zCpa37ej6kdmBFrYHICIzIDOIDvHb9iIeJ89ZuR4Isj0MRLuWzvVR4u8RewdaEKRxAIPX66vGPefyOHJs2FuCVWOBNN0ubYfG5uvsxf7CknVMB1kJmQGZgTWE5fW8cD3rSQqC3rMES4ZgBcElM7h5VwEYAAP5pLaWLLVfYJlAaQwl4WTVSDqWtORKp4E/LS/Wrv6rtwMpMAAG7pg6baDUfoF08hz7t7+Pue4fE07AOvpFbogCA0Hse68cml3iiMmiTZUFEoQV8aSyZ0Z4YNBbdrAfSynN9nru+iUzIDMIm/eHDZUKbO+LPl7gR6nWCgQH+wbAABhEhfVxO8DgXN+j5UHkUuB88/VqExEYAIOyMCh1BfZmBqUgpVGzZVZAZsBzBppYDSlbCgbefZJSdzg0ou2B1sKmjQ1kBmQGmvDVly0V4JpN2r3VEZu2eiWua7TOClZrgEHGk96rmSZQIwLTe5X0BvZZ/VIwSH1alwqtlwh7EETEgNWHwAAYWGNHXa8kDDTQ3RreGgZ7iLW0BxgAA/WktlYoCYNkk/V5g1YTsJflwerPTVbJngF7BtZpLqtXGgae5UKL9LyHTcOt58gMyAxkMzmgVGkYHK2/r81+Wdb79veyiFpZQm9ZwQ6kZAZkBgEz/qSJ0jDQXmlbAeGo39LaSDxLZkBmIImTkDLeOzNnRniutEd3YNKyYVk+MokQAX430tOm4cMvEzS3obwBrNnUili39nxr0avlvQm5v5Ng0bFWluCBViSQjtoaLjNIg/CmVDoY+F5x1cAgjc07YTRjKx1c+/a9Y7tnb9QEqwEE7VKmlo92QB1jz8A7YfST0wcD7eT0TBjt2GoF2tpPic25KBBstSgFhRK2RvlwyFeYLzCwT1Dt5PTAxzI5a48tKpgk7XjGdq/9UlfaaCD0umm46josDNIALFcZy+RcxdJesa1PxLUYm2QiR5SJhkHpK+09H1pib7+XY2kjwgfCpdY4ywRL2ukBwZqNSHeXz47qljpUEyzesUltiijn2e/Zfwfh6+uXK5M8bZ+NzZsllIZWhF+GPPZsP/A0adLv3qGQERNz22dukkZOzNpjiwiqXBuWDGtZ/l6OvoGg8UvOrtzfNUBYofVr+fne7LfXS4yuv1LQyo3h7O+75dZ4mcE9MKT///T7azq5ILIKuE7UtX7qr1Rf6ym4277Sv0v1Z9VEUk8DA81Sq9YEu/dMQjqlWBIDuYuJRMPoMsMelR4tBO3VVUC6b6ABQRqBBjLeEXuzv96AcDCe8TMDr5OpX14BOQy+qDIfabtRI5wJCMN+Xi3KmbTTToHcVVybFawjybUbPWIvEGrbe2/8B7fbyQyig4X2jhXITQLrJKudHVieWdkqUtveI2/c0RoYMHnrKJCbBCPAwGrjXuEcGEt7BBiUVpj2swqcTQLry1Y5yGSNUhSIgkHrzcQ72Q2ZgSIWKOpU4GwSWCdazYllBdZtZmB/tN7pgrNj4oCBV1zqyxU4u4pbNxBrPWuQRundL/jY9AQG8qih5LQKRC4VamYFM8Agk32RGUw76zodWG6NL03Fc+2UGL7UtlzftSG22gMMcp7h79UVyO2m5/YPWoAgiZSzSypkKxhkljlkBlIHUi5OAclkThMv/db3TT56L3NGoWR01n2Nfds19zmEWUEqBgwkQUCZeAVy2UF8jzEterODFlmBEGJ1YLBSPsYdtFJLgdur8nHPljcpJdlBrXFq+7HuHbQAgWJ5UwcGWrEpP5YCwivPzaBaTY4IdbUZQquxKuwEBhGBQRtpwal743DVrMX6OcpfkolW8lsMknEono0ABhJBKZNXwJodjLxc2G7O9bbZqVgerMMABvkwp4RUAWt20CqFlo5rxHKSrGU3LmAwoqN7tdmaHaTxjHp3oVdfKJYHZAa9OnF0u6zZwQzLhV58Z8gKkulkBr04cBY7PNkBywV/FBhBAAz80tPCkQKOgDR9KAcvXBTw6E5mQBQVU8C6XEgGkSHo3eIEAZmBXnJqSBXwLBcAglTlSzmv1r97Y89AJzulNQp4soPUD3cY8moHgYDMIC81JbwKGG5xXXXJkuG+BwJBAAy8gU79vAIRAQsQbnUO2CPYN7pfJrQ7my0fVpQYVYGIwAUIH96P0PMglq5hkAqM/OLIqJPlEeyOCGCA4L59eBZqtzBA8EeYmm3G6N1QXK1+xI3Fyyff85+pd3j2FgZkBw45qZpVwLuhuHbwSBetiKwq65j948gf5GXvQCAeRQwKRGwoPgoQKmQDWw8eZwapxCOR1xDTVHEoEAmEWWO1UjYgg0EqxZtkjoin6qkC0UCYBQqVswE5DB4lHWPetlGgBBBGhUJDCKzOv79MOAqPlCn8Wj63iRx6nVKBdAKz5XRliRgjLHU7gIANBhIHUAYFelMgQSH9npaXLkzrCAD6ZUIXCmIECgQo0AoMnQIAGATEFE1MoMB22RudNaTJ/2v5+f55uFLLoGAX6PYMgjunORToToGjfbFPyx937UwTPv3Wr08NMvGPxgMMuotGDEKBNgoAgza60ysKdKcAMOjOJRiEAm0UAAZtdKdXFOhOAWDQnUswCAXaKAAM2uhOryjQnQJzwuDyGezLj8enuwu6IgYNdD+/yPgDGp0HBhcAvCxvvDsREBdjNrE+6PPt9fL4MT+VAnPAYIQXUlRuobBbgXQeQPoBBrGU48PgEc/DE7uXgu8KAAZRIIwNA0AgcjKFNgqsSwmyhpuwGBcGLA2Y41EKbAGxvmOQ2h74PQOLNGPCABBYfE0djwINziT0mGupCwwsqlHnMRWI+u5Dp+qNCQO++tRpOE1uVqkzGzuRbTwYsEToJHQe0Axg0JnTgUFnDnkwc6K+CNWhbGQGHToFkzpWABh05Bwyg46c8YCmAIOOnM5XnjpyxgOaAgw6cjow6MgZD2YKG4gdOpzHkDt0ygOYNPmDR+NtIKaYIzt4gJnX4RAnXiIktceEwQUI3zm7oMMJM6tJk2cFo8Pg8/K2fJ819hhXRwo8AAjGhgHLhY5my8SmTL5puPXcuMuEdRTsH0w8ExsP7UEyglXl8WGwjoSHkRrPnIm6H+CLySXUngcG20xhPRH57IOZJdSkzdEVuJyb+GCHmsyXGYwehtiPAo0VmC8zaCwo3aPAqAoAg1E9h90oEKzA/wG0N6tu89UPRQAAAABJRU5ErkJggg==;" vertex="1" parent="1">
          <mxGeometry x="534.5" y="953" width="67.34" height="52" as="geometry" />
        </mxCell>
        <mxCell id="aXy_L43vjC-4vkgIH09A-119" value="梳理" style="text;html=1;align=center;verticalAlign=middle;whiteSpace=wrap;rounded=0;" vertex="1" parent="1">
          <mxGeometry x="124.49999999999999" y="947" width="60" height="30" as="geometry" />
        </mxCell>
        <mxCell id="aXy_L43vjC-4vkgIH09A-120" value="开发" style="text;html=1;align=center;verticalAlign=middle;whiteSpace=wrap;rounded=0;" vertex="1" parent="1">
          <mxGeometry x="294.5" y="947" width="60" height="30" as="geometry" />
        </mxCell>
        <mxCell id="aXy_L43vjC-4vkgIH09A-121" value="交付" style="text;html=1;align=center;verticalAlign=middle;whiteSpace=wrap;rounded=0;" vertex="1" parent="1">
          <mxGeometry x="446.5" y="945" width="60" height="30" as="geometry" />
        </mxCell>
        <mxCell id="aXy_L43vjC-4vkgIH09A-122" value="业务需求" style="text;html=1;align=center;verticalAlign=middle;whiteSpace=wrap;rounded=0;" vertex="1" parent="1">
          <mxGeometry x="43" y="1010" width="60" height="30" as="geometry" />
        </mxCell>
        <mxCell id="aXy_L43vjC-4vkgIH09A-123" value="代码" style="text;html=1;align=center;verticalAlign=middle;whiteSpace=wrap;rounded=0;" vertex="1" parent="1">
          <mxGeometry x="371.14" y="1001.29" width="77.29" height="30" as="geometry" />
        </mxCell>
        <mxCell id="aXy_L43vjC-4vkgIH09A-124" value="数字化产品" style="text;html=1;align=center;verticalAlign=middle;whiteSpace=wrap;rounded=0;" vertex="1" parent="1">
          <mxGeometry x="532.5" y="1005" width="71.33" height="30" as="geometry" />
        </mxCell>
        <mxCell id="aXy_L43vjC-4vkgIH09A-125" value="" style="shape=image;verticalLabelPosition=bottom;labelBackgroundColor=default;verticalAlign=top;aspect=fixed;imageAspect=0;image=data:image/png,iVBORw0KGgoAAAANSUhEUgAAAMgAAADICAYAAACtWK6eAAAAAXNSR0IArs4c6QAACLlJREFUeF7tnVFS40gMht1zFXiEMwDXYqgCqna4FpkzwCNcBW95UqkBapI4rb8tWf3t09auWy39+r+ROxPHZeAfFECBvQoUtEEBFNivAIDgDhQ4oACAYA8UABA8gAJ1CjBB6nRjVScKAEgnjabMOgUApE43VnWiAIB00mjKrFMAQOp0Y1UnCgBIJ42mzDoFAKRON1Z1ogCAdNJoyqxTAEDqdGNVJwoASCeNpsw6BQCkTjdWdaIAgHTSaMqsUwBA6nRjVScKLALIy/nddSd6dlPm5dt/mx6KbQrIy/ntQxnL1TCMAJLQTWMZHqeyLt+eHhKW96ekJoBME6OMH89ZRaOurwpMoGSFRA4IcPSJT1ZI5IC8nt2OfVqEqjNCIgVke+YY7rFKvwpcvD9JPeWtpLQYpod3O/33H8uPm0yfcAGIv6eSZVA2F++/brIUJQOEw3kWS1jrAJB/KgggVmNlWQ8gAJLFy03qABAAaWKsLEEBBECyeLlJHQACIE2MlSUogABIFi83qQNAAKSJsbIEBRAAyeLlJnUASDNAsn2Pp4n/Gge1f58OQACksUk9wwPIV/VDfdWECeKJxnZvAAEQfxcGzgBAACSwPf1TAxAA8Xdh4AwABEAC29M/NQABEH8XBs4AQAAksD39UwMQAPF3YeAMAARAAtvTPzUAARB/FwbOAEAAJLA9/VMDEADxd2HgDAAEQALb0z81AAEQfxcGzgBAACSwPf1TAxAA8Xdh4AwABEAC29M/NQABEH8XBs4AQAAksD39UwMQAPF3YeAMAARAAtvTPzUAARB/FwbOAEASA/L3veyBHdg4tbGUR8sr0AAkMSCvZz+fh2G8buzB0OGt7wgEEAAJbXBrcgBiVRBAtAoGiwYg2oak+mVFbrGGAUAAZK8CAAIgWjyGgQmiVtQ5HhNE2wAA0erpHg1AtC0AEK2e7tEARNsCANHq6R4NQLQtABCtnu7RAETbAgDR6ukeDUC0LQAQrZ7u0QBE2wIA0erpHg1AtC0AEK2e7tEARNsCANHq6R4NQLQtSAXI9FVtrTzri3b59mTSgK+7f+15KkDWZ+d4GQMIgMRzZaCMAARAAtkxXioAAiDxXBkoIwABkEB2jJcKgABIPFcGyghAACSQHeOlAiAAEs+VgTICEAAJZMd4qQAIgMRzZaCMAARAAtkxXioAAiDxXBkoIwABkEB2jJcKgABIPFcGyghAACSQHeOlAiCJAXk5v+v61QdTay3vBpnWA0hiQPhtXn6bVz2TUz0wBSAAAiAHFAAQAAEQADnoAX60QYsIt1haPd2jAYi2BQCi1dM9GoBoWwAgWj3dowGItgUAotXTPRqAaFsAIFo93aMBiLYFAKLV0z0agGhbACBaPd2jAYi2BQCi1dM9GoBoWwAgWj3dowGItgUAotXTPRqAaFsAIFo93aMBiLYFAKLV0z0agGhbkAoQrTR9RuOBqa99B5A+OdhbNYAACEgcUABAAARAAGS2B7jFmi1VHxcyQZggfTi9skoAAZBK6/SxDEAApA+nV1YJIABSaZ0+lgEIgPTh9MoqAQRAKq3TxzIAAZA+nF5ZJYAASKV1+lgGIADSh9MrqwQQAKm0Th/LAARA+nB6ZZUAkhiQbXPLVaU3mi8by/j78u3poflGhg3sgEybl40hBfPSsZRH64uEdkmk+rJi/NcflM3F+68bswMaBtAA0jDBGaGtT1V+3gJAZgiuuwRAdFrujwQge7RhgtjtxwRJfAYBEACZFGCCMEHsJOyJwARhgjQz1/HAnEGOa2S/ggnCBLG7iAkyS0M+xZolk+oiJohKyUNxmCBMkGY+4wzCGaSZuY4HZoIc18h+BROECWJ3EWeQWRpyBpklk+oiJohKSc4gFUryF4UVon1bwhmEM4jdRdURmCDV0p2wkDMIZ5AT7HLapUyQxBNkau5pdlj66h8b1XMKrTJXADKW4dGSXxmHe8t6JohFPdYeVMAOiP028vXsdrS0CUAs6rEWQE7wQKqPeU+om0v3KMAESXwGwfV2BQAEQOwuShwBQAAksb3tpQEIgNhdlDgCgABIYnvbSwMQALG7KHEEAAGQxPa2lwYgAGJ3UeIIAAIgie1tLw1AAMTuosQRAARAEtvbXhqAAIjdRYkjAAiAJLa3vTQAARC7ixJHAJBGgExhIz3oktjDTUuzAzIMF+9P1Y9RvJzfXZfx49lSpGX/7/tWF/KvAgDE0tYYaxWAWJ7oU+yfFpDp3XbRX1EWw8btslAY1NJH6x+ykzKBAfn5PAzjtaV90wP/0V90aakv+loNIHUvsdHsrf1DVnqLpSlwEhdIvEBS9XDK/5RbLdW+au+IAbEfsHbGUBfqZbi17asy6il9VO55CpRzeiMFRPFJ1vekt7+xFP/3pOaIvYZrlGb9DMn0759vnadPq6b/Vsbx3npb/llX5fnjT37qpsX/fVx1xcSLokCLuw45IIrPsaMITh7rUmAVgGxvs+yfZq2rNWTrrUALOJrcYk1BmSLedulvf/XZY6eg/BZrF5gp0p9JvSpuNT2aTRCmiJdV+ty31fRoCgiQ9GnWpatuOT2aA7KF5PbB+r6HpUVnv3Uo0BqORQABknWYbW1ZLgHHYoAAydrsFzvfpeBYFBAgiW26tWS3JByLAwIka7FhzDzVX0ScU2Wzvwc5tjmH92MK8f//KlA2YymPHi9AdQNkVzygAMJ+BfzA2OXkDsjutuvP/Z7x9b9YLYsC/mCEAuRzW7fPCXxcl7FcKZ8TyGKdnHVMQIy/Iz73E2KCzGn67gGbOddyTXwFPM4TNaqsBpCa4liDAlYFAMSqIOtTKwAgqdtLcVYFAMSqIOtTKwAgqdtLcVYFAMSqIOtTKwAgqdtLcVYFAMSqIOtTKwAgqdtLcVYFAMSqIOtTKwAgqdtLcVYFAMSqIOtTKwAgqdtLcVYFAMSqIOtTKwAgqdtLcVYFAMSqIOtTKwAgqdtLcVYFAMSqIOtTK/A/A9MCUAhybIYAAAAASUVORK5CYII=;" vertex="1" parent="1">
          <mxGeometry x="225.71" y="950.2199999999999" width="58.57" height="58.57" as="geometry" />
        </mxCell>
        <mxCell id="aXy_L43vjC-4vkgIH09A-126" value="产品文档" style="text;html=1;align=center;verticalAlign=middle;whiteSpace=wrap;rounded=0;" vertex="1" parent="1">
          <mxGeometry x="224.28" y="1008.79" width="60" height="30" as="geometry" />
        </mxCell>
        <mxCell id="aXy_L43vjC-4vkgIH09A-127" value="" style="rounded=0;whiteSpace=wrap;html=1;fillColor=none;dashed=1;dashPattern=8 8;" vertex="1" parent="1">
          <mxGeometry x="222" y="886" width="239.72" height="173.78" as="geometry" />
        </mxCell>
        <mxCell id="aXy_L43vjC-4vkgIH09A-128" value="定制化开发" style="text;html=1;align=center;verticalAlign=middle;whiteSpace=wrap;rounded=0;" vertex="1" parent="1">
          <mxGeometry x="298" y="897" width="78" height="23" as="geometry" />
        </mxCell>
        <mxCell id="aXy_L43vjC-4vkgIH09A-129" value="" style="rounded=0;whiteSpace=wrap;html=1;fillColor=none;dashed=1;dashPattern=8 8;" vertex="1" parent="1">
          <mxGeometry x="288" y="556" width="205.08" height="148" as="geometry" />
        </mxCell>
        <mxCell id="aXy_L43vjC-4vkgIH09A-130" value="产品定制" style="text;html=1;align=center;verticalAlign=middle;whiteSpace=wrap;rounded=0;" vertex="1" parent="1">
          <mxGeometry x="338" y="568" width="78" height="23" as="geometry" />
        </mxCell>
      </root>
    </mxGraphModel>
  </diagram>
</mxfile>
